<?xml version="1.0" encoding="UTF-8"?>
<svg width="48px" height="48px" viewBox="0 0 48 48" version="1.1" xmlns="http://www.w3.org/2000/svg" xmlns:xlink="http://www.w3.org/1999/xlink">
    <title>managing-data</title>
    <g id="Page-1" stroke="none" stroke-width="1" fill="none" fill-rule="evenodd">
        <g id="KoBo-Toolbox-data-Copy-9" transform="translate(-958.000000, -978.000000)">
            <g id="managing-data" transform="translate(958.000000, 978.000000)">
                <circle id="Oval-Copy-5" fill-opacity="0.2" fill="#CFD5E3" cx="24" cy="24" r="24"></circle>
                <g id="Fill-460" transform="translate(12.000000, 16.000000)" fill="#2195F3">
                    <path d="M3.99621212,5.999 L5.99431818,5.999 L5.99431818,13.999 L3.99621212,13.999 L3.99621212,5.999 Z M10.9895833,7.999 L12.9876894,7.999 L12.9876894,13.999 L10.9895833,13.999 L10.9895833,7.999 Z M17.9829545,2 L19.9810606,2 L19.9810606,13.999 L17.9829545,13.999 L17.9829545,2 Z M21.9791667,14 L21.9791667,1 C21.9791667,0.448 21.5315909,0 20.9801136,0 L16.9839015,0 C16.4324242,0 15.9848485,0.448 15.9848485,1 L15.9848485,14 L14.9857955,14 L14.9857955,6.999 C14.9857955,6.447 14.5382197,5.999 13.9867424,5.999 L9.9905303,5.999 C9.43905303,5.999 8.99147727,6.447 8.99147727,6.999 L8.99147727,14 L7.99242424,14 L7.99242424,4.999 C7.99242424,4.447 7.54484848,3.999 6.99337121,3.999 L2.99715909,3.999 C2.44568182,3.999 1.99810606,4.447 1.99810606,4.999 L1.99810606,14 L0,14 L0,16 L23.9772727,16 L23.9772727,14 L21.9791667,14 Z"></path>
                </g>
            </g>
        </g>
    </g>
</svg>