<?xml version="1.0" encoding="UTF-8"?>
<svg width="48px" height="48px" viewBox="0 0 48 48" version="1.1" xmlns="http://www.w3.org/2000/svg" xmlns:xlink="http://www.w3.org/1999/xlink">
    <title>managing-projects</title>
    <g id="Page-1" stroke="none" stroke-width="1" fill="none" fill-rule="evenodd">
        <g id="KoBo-Toolbox-data-Copy-9" transform="translate(-566.000000, -978.000000)">
            <g id="managing-projects" transform="translate(566.000000, 978.000000)">
                <circle id="Oval-Copy-4" fill-opacity="0.2" fill="#CFD5E3" cx="24" cy="24" r="24"></circle>
                <g id="Group" transform="translate(14.000000, 15.000000)" fill="#2195F3">
                    <path d="M16.9839015,15 L2.99715909,15 L2.99715909,5 L16.9839015,5 L16.9839015,15 Z M1.99810606,2 L17.9829545,2 L17.9829545,3 L1.99810606,3 L1.99810606,2 Z M19.9810606,4 L19.9810606,1 C19.9810606,0.448 19.5344839,0 18.9820076,0 L0.99905303,0 C0.447575758,0 0,0.448 0,1 L0,4 C0,4.552 0.447575758,5 0.99905303,5 L0.99905303,15 L0,15 L0,17 L8.99147727,17 L8.99147727,19 L10.9895833,19 L10.9895833,17 L19.9810606,17 L19.9810606,15 L18.9820076,15 L18.9820076,5 C19.5344839,5 19.9810606,4.552 19.9810606,4 L19.9810606,4 Z" id="Fill-499"></path>
                    <path d="M6.99337121,13 C8.64880208,13 9.9905303,11.657 9.9905303,10 L6.99337121,10 L6.99337121,7 C5.33893939,7 3.99621212,8.344 3.99621212,10 C3.99621212,11.657 5.33893939,13 6.99337121,13" id="Fill-500"></path>
                    <path d="M7.99242424,6 L7.99242424,9 L10.9895833,9 C10.9895833,7.344 9.64785511,6 7.99242424,6" id="Fill-501"></path>
                    <polygon id="Fill-502" points="15.9848485 6 12.9876894 6 12.9876894 8 15.9848485 8"></polygon>
                    <polygon id="Fill-503" points="15.9848485 9 11.9886364 9 11.9886364 11 15.9848485 11"></polygon>
                    <polygon id="Fill-504" points="9.9905303 14 15.9848485 14 15.9848485 12 9.9905303 12"></polygon>
                </g>
            </g>
        </g>
    </g>
</svg>