<?xml version="1.0" encoding="UTF-8"?>
<svg width="48px" height="48px" viewBox="0 0 48 48" version="1.1" xmlns="http://www.w3.org/2000/svg" xmlns:xlink="http://www.w3.org/1999/xlink">
    <title>computer-server</title>
    <g id="Page-1" stroke="none" stroke-width="1" fill="none" fill-rule="evenodd">
        <g id="KoBo-Toolbox-data-Copy-9" transform="translate(-566.000000, -610.000000)">
            <g id="computer-server" transform="translate(566.000000, 610.000000)">
                <circle id="Oval-Copy" fill-opacity="0.2" fill="#CFD5E3" cx="24" cy="24" r="24"></circle>
                <g id="Fill-501-+-Fill-502-+-Fill-503" transform="translate(12.000000, 12.000000)" fill="#2195F3">
                    <path d="M8,19 L8,17 L21.998,17 L21.997,19 L8,19 Z M22,10 L21.999,15 L8,15 L8,10 L22,10 Z M22,8 L8,8 C6.897,8 6,8.897 6,10 L6,19 C6,20.103 6.897,21 8,21 L14,21 L14,22 L11,22 L11,24 L19,24 L19,22 L16,22 L16,21 L22,21 C23.103,21 24,20.103 24,19 L24,10 C24,8.897 23.103,8 22,8 L22,8 Z" id="Fill-501"></path>
                    <polygon id="Fill-502" points="2 12 4.999 12 4.999 10 2 10"></polygon>
                    <path d="M2,2 L10,2 L10,7 L12,7 L12,1 C12,0.448 11.552,0 11,0 L1,0 C0.448,0 0,0.448 0,1 L0,8 C0,8.552 0.448,9 1,9 L4.999,9 L4.999,7 L2,7 L2,2 Z" id="Fill-503"></path>
                </g>
            </g>
        </g>
    </g>
</svg>