<svg height="12" viewBox="0 0 13 12" width="13" xmlns="http://www.w3.org/2000/svg"><path d="m6.19047619.012c.33057143 0 .64133333.1248.87533333.351l4.95176188 4.788c.3553334.3444.4611905.858.2692857 1.3074-.1912857.4512-.6407142.7416-1.144.7416h-.6190476v4.2c0 .3312-.2773333.6-.6190476.6h-2.47619047v-3h-2.47619048v3h-2.47619047c-.34171429 0-.61904762-.2688-.61904762-.6v-4.2h-.61904762c-.50204762 0-.95085714-.2904-1.14338095-.7404-.19252381-.4506-.08666667-.9642.26804762-1.308l4.95299999-4.7892c.23338096-.2256.54414286-.3504.87471429-.3504z"/></svg>