<?xml version="1.0" standalone="no"?>
<!DOCTYPE svg PUBLIC "-//W3C//DTD SVG 1.1//EN" "http://www.w3.org/Graphics/SVG/1.1/DTD/svg11.dtd" >
<svg xmlns="http://www.w3.org/2000/svg">
<defs>
  <font id="k-icons" horiz-adv-x="280">
    <font-face font-family="k-icons"
      units-per-em="290" ascent="0"
      descent="0"
      font-weight="normal"
      font-style="normal" />
    <missing-glyph horiz-adv-x="0" />
    <glyph glyph-name="alert"
      unicode="&#xF101;"
      horiz-adv-x="280" d="M140 260C206.274 260 260 206.2742 260 140C260 73.726 206.274 20 140 20C73.7258 20 20 73.726 20 140C20 206.2742 73.7258 260 140 260zM140 100C128.954 100 120 91.046 120 80S128.954 60 140 60S160 68.954 160 80S151.046 100 140 100zM150 220H130C124.477 220 120 215.5228 120 210V130C120 124.477 124.477 120 130 120H150C155.523 120 160 124.477 160 130V210C160 215.5228 155.523 220 150 220z" />
    <glyph glyph-name="alert-1"
      unicode="&#x61;&#x6C;&#x65;&#x72;&#x74;"
      horiz-adv-x="280" d="M140 260C206.274 260 260 206.2742 260 140C260 73.726 206.274 20 140 20C73.7258 20 20 73.726 20 140C20 206.2742 73.7258 260 140 260zM140 100C128.954 100 120 91.046 120 80S128.954 60 140 60S160 68.954 160 80S151.046 100 140 100zM150 220H130C124.477 220 120 215.5228 120 210V130C120 124.477 124.477 120 130 120H150C155.523 120 160 124.477 160 130V210C160 215.5228 155.523 220 150 220z" />
    <glyph glyph-name="angle-bar-left"
      unicode="&#xF102;"
      horiz-adv-x="280" d="M56.6655 260C66.9222168 260 75.3756432 252.2791962 76.5309454 242.3324225L76.6655 240V40C76.6655 28.954305 67.711195 20 56.6655 20C46.4087832 20 37.9553568 27.720804 36.8000546 37.667577L36.6655 40V240C36.6655 251.045695 45.619805 260 56.6655 260zM237.476565 254.1422063C244.68628 246.9325632 245.2409280000001 235.5879448 239.140469 227.7420902L237.4767060000001 225.8579351L151.6255000000001 140L237.4767060000001 54.142065C244.6863500000001 46.93235 245.240884 35.587726 239.140346 27.741932L237.476565 25.857794C230.2668500000001 18.64815 218.922226 18.093616 211.076432 24.194154L209.192294 25.857935L109.193294 125.857935C101.983701 133.067599 101.429117 144.412126 107.529542 152.257923L109.193294 154.142065L209.192294 254.1420649C217.00274 261.9525898 229.66604 261.9526531 237.476565 254.1422063z" />
    <glyph glyph-name="angle-bar-left-1"
      unicode="&#x61;&#x6E;&#x67;&#x6C;&#x65;&#x2D;&#x62;&#x61;&#x72;&#x2D;&#x6C;&#x65;&#x66;&#x74;"
      horiz-adv-x="280" d="M56.6655 260C66.9222168 260 75.3756432 252.2791962 76.5309454 242.3324225L76.6655 240V40C76.6655 28.954305 67.711195 20 56.6655 20C46.4087832 20 37.9553568 27.720804 36.8000546 37.667577L36.6655 40V240C36.6655 251.045695 45.619805 260 56.6655 260zM237.476565 254.1422063C244.68628 246.9325632 245.2409280000001 235.5879448 239.140469 227.7420902L237.4767060000001 225.8579351L151.6255000000001 140L237.4767060000001 54.142065C244.6863500000001 46.93235 245.240884 35.587726 239.140346 27.741932L237.476565 25.857794C230.2668500000001 18.64815 218.922226 18.093616 211.076432 24.194154L209.192294 25.857935L109.193294 125.857935C101.983701 133.067599 101.429117 144.412126 107.529542 152.257923L109.193294 154.142065L209.192294 254.1420649C217.00274 261.9525898 229.66604 261.9526531 237.476565 254.1422063z" />
    <glyph glyph-name="angle-bar-right"
      unicode="&#xF103;"
      horiz-adv-x="280" d="M223.3345 20C213.0777832 20 204.6243568 27.7208038 203.4690546 37.6675775L203.3345 40V240C203.3345 251.045695 212.288805 260 223.3345 260C233.5912168 260 242.0446432 252.279196 243.1999454 242.332423L243.3345 240V40C243.3345 28.954305 234.380195 20 223.3345 20zM42.523435 25.8577937C35.31372 33.0674368 34.759072 44.4120552 40.859531 52.2579098L42.523294 54.1420649L128.3745 140L42.523294 225.857935C35.31365 233.06765 34.759116 244.412274 40.859654 252.258068L42.523435 254.142206C49.73315 261.35185 61.077774 261.906384 68.923568 255.805846L70.807706 254.142065L170.806706 154.142065C178.016299 146.932401 178.570883 135.587874 172.470458 127.742077L170.806706 125.857935L70.807706 25.8579351C62.99726 18.0474102 50.33396 18.0473469 42.523435 25.8577937z" />
    <glyph glyph-name="angle-bar-right-1"
      unicode="&#x61;&#x6E;&#x67;&#x6C;&#x65;&#x2D;&#x62;&#x61;&#x72;&#x2D;&#x72;&#x69;&#x67;&#x68;&#x74;"
      horiz-adv-x="280" d="M223.3345 20C213.0777832 20 204.6243568 27.7208038 203.4690546 37.6675775L203.3345 40V240C203.3345 251.045695 212.288805 260 223.3345 260C233.5912168 260 242.0446432 252.279196 243.1999454 242.332423L243.3345 240V40C243.3345 28.954305 234.380195 20 223.3345 20zM42.523435 25.8577937C35.31372 33.0674368 34.759072 44.4120552 40.859531 52.2579098L42.523294 54.1420649L128.3745 140L42.523294 225.857935C35.31365 233.06765 34.759116 244.412274 40.859654 252.258068L42.523435 254.142206C49.73315 261.35185 61.077774 261.906384 68.923568 255.805846L70.807706 254.142065L170.806706 154.142065C178.016299 146.932401 178.570883 135.587874 172.470458 127.742077L170.806706 125.857935L70.807706 25.8579351C62.99726 18.0474102 50.33396 18.0473469 42.523435 25.8577937z" />
    <glyph glyph-name="angle-down"
      unicode="&#xF104;"
      horiz-adv-x="280" d="M25.8578644 175.857864C18.0473785 183.66835 18.0473785 196.33165 25.8578644 204.142136C33.0675436 211.351815 44.4121647 211.906406 52.2579889 205.805908L54.1421356 204.142136L140 118.3L225.857864 204.142136C233.067544 211.351815 244.412165 211.906406 252.257989 205.805908L254.142136 204.142136C261.3518150000001 196.932456 261.906406 185.587835 255.805908 177.742011L254.142136 175.857864L154.142136 75.8578644C146.932456 68.6481851 135.587835 68.0935944 127.742011 74.1940922L125.857864 75.8578644z" />
    <glyph glyph-name="angle-down-1"
      unicode="&#x61;&#x6E;&#x67;&#x6C;&#x65;&#x2D;&#x64;&#x6F;&#x77;&#x6E;"
      horiz-adv-x="280" d="M25.8578644 175.857864C18.0473785 183.66835 18.0473785 196.33165 25.8578644 204.142136C33.0675436 211.351815 44.4121647 211.906406 52.2579889 205.805908L54.1421356 204.142136L140 118.3L225.857864 204.142136C233.067544 211.351815 244.412165 211.906406 252.257989 205.805908L254.142136 204.142136C261.3518150000001 196.932456 261.906406 185.587835 255.805908 177.742011L254.142136 175.857864L154.142136 75.8578644C146.932456 68.6481851 135.587835 68.0935944 127.742011 74.1940922L125.857864 75.8578644z" />
    <glyph glyph-name="angle-left"
      unicode="&#xF105;"
      horiz-adv-x="280" d="M175.857864 254.1421356C183.66835 261.9526215 196.33165 261.9526215 204.142136 254.1421356C211.351815 246.9324564 211.906406 235.5878353 205.805908 227.7420111L204.142136 225.8578644L118.3 140L204.142136 54.142136C211.351815 46.932456 211.906406 35.587835 205.805908 27.742011L204.142136 25.857864C196.932456 18.648185 185.587835 18.093594 177.742011 24.194092L175.857864 25.857864L75.8578644 125.857864C68.6481851 133.067544 68.0935944 144.412165 74.1940922 152.257989L75.8578644 154.142136z" />
    <glyph glyph-name="angle-left-1"
      unicode="&#x61;&#x6E;&#x67;&#x6C;&#x65;&#x2D;&#x6C;&#x65;&#x66;&#x74;"
      horiz-adv-x="280" d="M175.857864 254.1421356C183.66835 261.9526215 196.33165 261.9526215 204.142136 254.1421356C211.351815 246.9324564 211.906406 235.5878353 205.805908 227.7420111L204.142136 225.8578644L118.3 140L204.142136 54.142136C211.351815 46.932456 211.906406 35.587835 205.805908 27.742011L204.142136 25.857864C196.932456 18.648185 185.587835 18.093594 177.742011 24.194092L175.857864 25.857864L75.8578644 125.857864C68.6481851 133.067544 68.0935944 144.412165 74.1940922 152.257989L75.8578644 154.142136z" />
    <glyph glyph-name="angle-right"
      unicode="&#xF106;"
      horiz-adv-x="280" d="M104.142136 25.8578644C96.33165 18.0473785 83.66835 18.0473785 75.857864 25.8578644C68.648185 33.0675436 68.093594 44.4121647 74.194092 52.2579889L75.857864 54.1421356L161.7 140L75.857864 225.857864C68.648185 233.067544 68.093594 244.412165 74.194092 252.257989L75.857864 254.142136C83.067544 261.351815 94.412165 261.906406 102.257989 255.805908L104.142136 254.142136L204.1421356 154.142136C211.3518149 146.932456 211.9064056 135.587835 205.8059078 127.742011L204.1421356 125.857864z" />
    <glyph glyph-name="angle-right-1"
      unicode="&#x61;&#x6E;&#x67;&#x6C;&#x65;&#x2D;&#x72;&#x69;&#x67;&#x68;&#x74;"
      horiz-adv-x="280" d="M104.142136 25.8578644C96.33165 18.0473785 83.66835 18.0473785 75.857864 25.8578644C68.648185 33.0675436 68.093594 44.4121647 74.194092 52.2579889L75.857864 54.1421356L161.7 140L75.857864 225.857864C68.648185 233.067544 68.093594 244.412165 74.194092 252.257989L75.857864 254.142136C83.067544 261.351815 94.412165 261.906406 102.257989 255.805908L104.142136 254.142136L204.1421356 154.142136C211.3518149 146.932456 211.9064056 135.587835 205.8059078 127.742011L204.1421356 125.857864z" />
    <glyph glyph-name="angle-up"
      unicode="&#xF107;"
      horiz-adv-x="280" d="M254.1421356 104.142136C261.9526215 96.33165 261.9526215 83.66835 254.1421356 75.857864C246.9324564 68.648185 235.5878353 68.093594 227.7420111 74.194092L225.8578644 75.857864L140 161.7L54.142136 75.857864C46.932456 68.648185 35.587835 68.093594 27.742011 74.194092L25.857864 75.857864C18.648185 83.067544 18.093594 94.412165 24.194092 102.257989L25.857864 104.142136L125.857864 204.1421356C133.067544 211.3518149 144.412165 211.9064056 152.257989 205.8059078L154.142136 204.1421356z" />
    <glyph glyph-name="angle-up-1"
      unicode="&#x61;&#x6E;&#x67;&#x6C;&#x65;&#x2D;&#x75;&#x70;"
      horiz-adv-x="280" d="M254.1421356 104.142136C261.9526215 96.33165 261.9526215 83.66835 254.1421356 75.857864C246.9324564 68.648185 235.5878353 68.093594 227.7420111 74.194092L225.8578644 75.857864L140 161.7L54.142136 75.857864C46.932456 68.648185 35.587835 68.093594 27.742011 74.194092L25.857864 75.857864C18.648185 83.067544 18.093594 94.412165 24.194092 102.257989L25.857864 104.142136L125.857864 204.1421356C133.067544 211.3518149 144.412165 211.9064056 152.257989 205.8059078L154.142136 204.1421356z" />
    <glyph glyph-name="archived"
      unicode="&#xF108;"
      horiz-adv-x="280" d="M100 180V150C100 144.477 104.477 140 110 140H170C175.523 140 180 144.477 180 150V180H240V50C240 44.477 235.523 40 230 40H50C44.4772 40 40 44.477 40 50V180zM240 240C245.523 240 250 235.5228 250 230V210C250 204.4772 245.523 200 240 200H40C34.4772 200 30 204.4772 30 210V230C30 235.5228 34.4772 240 40 240z" />
    <glyph glyph-name="archived-1"
      unicode="&#x61;&#x72;&#x63;&#x68;&#x69;&#x76;&#x65;&#x64;"
      horiz-adv-x="280" d="M100 180V150C100 144.477 104.477 140 110 140H170C175.523 140 180 144.477 180 150V180H240V50C240 44.477 235.523 40 230 40H50C44.4772 40 40 44.477 40 50V180zM240 240C245.523 240 250 235.5228 250 230V210C250 204.4772 245.523 200 240 200H40C34.4772 200 30 204.4772 30 210V230C30 235.5228 34.4772 240 40 240z" />
    <glyph glyph-name="arrow-down-left"
      unicode="&#xF109;"
      horiz-adv-x="280" d="M40.0241451 63.909769L40 175.839462C40 182.4338307 45.3429122 187.7780857 51.9372739 187.7767483L70.2715973 187.7728062C76.865959 187.7714688 82.212813 182.4246091 82.2141505 175.83024L82.2283699 110.385501L208.926924 237.0841887C212.814598 240.9718667 219.117743 240.9720075 223.005558 237.0841887L237.084192 223.0055399C240.972006 219.117721 240.971866 212.8145692 237.084192 208.9268911L110.385638 82.228203L175.830167 82.214125C182.4246 82.212717 187.771665 76.865646 187.773073 70.271207L187.776592 51.937287C187.778 45.342847 182.433751 40 175.839319 40L63.9099554 40.023934C50.7217951 40.027454 40.0276648 50.721595 40.0241451 63.909769z" />
    <glyph glyph-name="arrow-down-left-1"
      unicode="&#x61;&#x72;&#x72;&#x6F;&#x77;&#x2D;&#x64;&#x6F;&#x77;&#x6E;&#x2D;&#x6C;&#x65;&#x66;&#x74;"
      horiz-adv-x="280" d="M40.0241451 63.909769L40 175.839462C40 182.4338307 45.3429122 187.7780857 51.9372739 187.7767483L70.2715973 187.7728062C76.865959 187.7714688 82.212813 182.4246091 82.2141505 175.83024L82.2283699 110.385501L208.926924 237.0841887C212.814598 240.9718667 219.117743 240.9720075 223.005558 237.0841887L237.084192 223.0055399C240.972006 219.117721 240.971866 212.8145692 237.084192 208.9268911L110.385638 82.228203L175.830167 82.214125C182.4246 82.212717 187.771665 76.865646 187.773073 70.271207L187.776592 51.937287C187.778 45.342847 182.433751 40 175.839319 40L63.9099554 40.023934C50.7217951 40.027454 40.0276648 50.721595 40.0241451 63.909769z" />
    <glyph glyph-name="arrow-down-right"
      unicode="&#xF10A;"
      horiz-adv-x="280" d="M216.090045 40.024251L104.16047 40.000106C97.5661086 40.000106 92.2218591 45.343018 92.2231966 51.93738L92.2271386 70.271703C92.2284761 76.866065 97.5753301 82.212919 104.169692 82.214256L169.614362 82.228475L42.9158083 208.9270295C39.0281343 212.8147035 39.0279935 219.1178486 42.9158083 223.0056634L56.9944422 237.0842973C60.8822569 240.9721121 67.1854021 240.9719713 71.0730761 237.0842973L197.77163 110.385743L197.785709 175.830273C197.787117 182.4247051 203.134182 187.7717703 209.728614 187.7731781L228.062515 187.7766978C234.656947 187.7781056 239.999789 182.4338562 239.999789 175.839424L239.975855 63.910061C239.972335 50.721901 229.278205 40.02777 216.090045 40.024251z" />
    <glyph glyph-name="arrow-down-right-1"
      unicode="&#x61;&#x72;&#x72;&#x6F;&#x77;&#x2D;&#x64;&#x6F;&#x77;&#x6E;&#x2D;&#x72;&#x69;&#x67;&#x68;&#x74;"
      horiz-adv-x="280" d="M216.090045 40.024251L104.16047 40.000106C97.5661086 40.000106 92.2218591 45.343018 92.2231966 51.93738L92.2271386 70.271703C92.2284761 76.866065 97.5753301 82.212919 104.169692 82.214256L169.614362 82.228475L42.9158083 208.9270295C39.0281343 212.8147035 39.0279935 219.1178486 42.9158083 223.0056634L56.9944422 237.0842973C60.8822569 240.9721121 67.1854021 240.9719713 71.0730761 237.0842973L197.77163 110.385743L197.785709 175.830273C197.787117 182.4247051 203.134182 187.7717703 209.728614 187.7731781L228.062515 187.7766978C234.656947 187.7781056 239.999789 182.4338562 239.999789 175.839424L239.975855 63.910061C239.972335 50.721901 229.278205 40.02777 216.090045 40.024251z" />
    <glyph glyph-name="arrow-down"
      unicode="&#xF10B;"
      horiz-adv-x="280" d="M123.033975 17.024L43.513675 96.51C38.828775 101.193 38.828775 108.785 43.513675 113.468L56.539275 126.488C61.224175 131.171 68.819875 131.171 73.504775 126.488L119.999975 80.013V260C119.999975 265.5228 124.476975 270 129.999975 270H149.999975C155.522975 270 159.999975 265.5228 159.999975 260V80.013L206.494975 126.488C211.179975 131.171 218.775975 131.171 223.460975 126.488L236.485975 113.468C241.1709750000001 108.785 241.1709750000001 101.193 236.485975 96.51L156.965975 17.024C147.595975 7.659 132.403975 7.659 123.033975 17.024z" />
    <glyph glyph-name="arrow-down-1"
      unicode="&#x61;&#x72;&#x72;&#x6F;&#x77;&#x2D;&#x64;&#x6F;&#x77;&#x6E;"
      horiz-adv-x="280" d="M123.033975 17.024L43.513675 96.51C38.828775 101.193 38.828775 108.785 43.513675 113.468L56.539275 126.488C61.224175 131.171 68.819875 131.171 73.504775 126.488L119.999975 80.013V260C119.999975 265.5228 124.476975 270 129.999975 270H149.999975C155.522975 270 159.999975 265.5228 159.999975 260V80.013L206.494975 126.488C211.179975 131.171 218.775975 131.171 223.460975 126.488L236.485975 113.468C241.1709750000001 108.785 241.1709750000001 101.193 236.485975 96.51L156.965975 17.024C147.595975 7.659 132.403975 7.659 123.033975 17.024z" />
    <glyph glyph-name="arrow-left"
      unicode="&#xF10C;"
      horiz-adv-x="280" d="M17.02429 156.966025L96.50989 236.486325C101.19299 241.171225 108.78499 241.171225 113.46799 236.486325L126.48799 223.460725C131.17099 218.775825 131.17099 211.180125 126.48799 206.495225L80.01319 160.000025H260C265.52299 160.000025 270 155.523025 270 150.000025V130.000025C270 124.477025 265.52299 120.000025 260 120.000025H80.01319L126.48799 73.505025C131.17099 68.820025 131.17099 61.224025 126.48799 56.539025L113.46799 43.514025C108.78499 38.829025 101.19299 38.829025 96.50989 43.514025L17.02429 123.034025C7.65857 132.404025 7.65857 147.596025 17.02429 156.966025z" />
    <glyph glyph-name="arrow-left-1"
      unicode="&#x61;&#x72;&#x72;&#x6F;&#x77;&#x2D;&#x6C;&#x65;&#x66;&#x74;"
      horiz-adv-x="280" d="M17.02429 156.966025L96.50989 236.486325C101.19299 241.171225 108.78499 241.171225 113.46799 236.486325L126.48799 223.460725C131.17099 218.775825 131.17099 211.180125 126.48799 206.495225L80.01319 160.000025H260C265.52299 160.000025 270 155.523025 270 150.000025V130.000025C270 124.477025 265.52299 120.000025 260 120.000025H80.01319L126.48799 73.505025C131.17099 68.820025 131.17099 61.224025 126.48799 56.539025L113.46799 43.514025C108.78499 38.829025 101.19299 38.829025 96.50989 43.514025L17.02429 123.034025C7.65857 132.404025 7.65857 147.596025 17.02429 156.966025z" />
    <glyph glyph-name="arrow-right"
      unicode="&#xF10D;"
      horiz-adv-x="280" d="M262.97601 123.034025L183.49001 43.514025C178.80701 38.829025 171.21501 38.829025 166.53201 43.514025L153.51201 56.539025C148.82901 61.224025 148.82901 68.820025 153.51201 73.505025L199.98701 120.000025H20C14.47721 120.000025 10 124.477025 10 130.000025V150.000025C10 155.523025 14.47711 160.000025 20 160.000025H199.98701L153.51201 206.495125C148.82901 211.180025 148.82901 218.775825 153.51201 223.460725L166.53201 236.486325C171.21501 241.171225 178.80701 241.171225 183.49001 236.486325L262.97601 156.966025C272.34101 147.596025 272.34101 132.404025 262.97601 123.034025z" />
    <glyph glyph-name="arrow-right-1"
      unicode="&#x61;&#x72;&#x72;&#x6F;&#x77;&#x2D;&#x72;&#x69;&#x67;&#x68;&#x74;"
      horiz-adv-x="280" d="M262.97601 123.034025L183.49001 43.514025C178.80701 38.829025 171.21501 38.829025 166.53201 43.514025L153.51201 56.539025C148.82901 61.224025 148.82901 68.820025 153.51201 73.505025L199.98701 120.000025H20C14.47721 120.000025 10 124.477025 10 130.000025V150.000025C10 155.523025 14.47711 160.000025 20 160.000025H199.98701L153.51201 206.495125C148.82901 211.180025 148.82901 218.775825 153.51201 223.460725L166.53201 236.486325C171.21501 241.171225 178.80701 241.171225 183.49001 236.486325L262.97601 156.966025C272.34101 147.596025 272.34101 132.404025 262.97601 123.034025z" />
    <glyph glyph-name="arrow-up-left"
      unicode="&#xF10E;"
      horiz-adv-x="280" d="M63.9097695 239.9759604C50.7215952 239.9724408 40.0274536 229.2782992 40.023934 216.0901249L40 104.160644C40 97.566205 45.3428475 92.221949 51.9372866 92.223357L70.2712069 92.226877C76.865646 92.228285 82.2127168 97.575356 82.2141247 104.169795L82.2282033 169.614394L208.926891 42.915706C212.814569 39.028028 219.117721 39.027887 223.00554 42.915706L237.0841890000001 56.994355C240.9720080000001 60.882173 240.9718670000001 67.185325 237.0841890000001 71.073003L110.385501 197.7716911L175.83024 197.7859105C182.424609 197.787248 187.771469 203.1341076 187.772806 209.7284763L187.776748 228.062819C187.778086 234.6571877 182.433831 240.0001056 175.839462 240.0001056z" />
    <glyph glyph-name="arrow-up-left-1"
      unicode="&#x61;&#x72;&#x72;&#x6F;&#x77;&#x2D;&#x75;&#x70;&#x2D;&#x6C;&#x65;&#x66;&#x74;"
      horiz-adv-x="280" d="M63.9097695 239.9759604C50.7215952 239.9724408 40.0274536 229.2782992 40.023934 216.0901249L40 104.160644C40 97.566205 45.3428475 92.221949 51.9372866 92.223357L70.2712069 92.226877C76.865646 92.228285 82.2127168 97.575356 82.2141247 104.169795L82.2282033 169.614394L208.926891 42.915706C212.814569 39.028028 219.117721 39.027887 223.00554 42.915706L237.0841890000001 56.994355C240.9720080000001 60.882173 240.9718670000001 67.185325 237.0841890000001 71.073003L110.385501 197.7716911L175.83024 197.7859105C182.424609 197.787248 187.771469 203.1341076 187.772806 209.7284763L187.776748 228.062819C187.778086 234.6571877 182.433831 240.0001056 175.839462 240.0001056z" />
    <glyph glyph-name="arrow-up-right"
      unicode="&#xF10F;"
      horiz-adv-x="280" d="M239.975855 216.0901502L240 104.160576C240 97.566214 234.657088 92.221965 228.062726 92.223302L209.728403 92.227244C203.134041 92.228582 197.787187 97.575436 197.78585 104.169797L197.77163 169.614468L71.0730761 42.915914C67.1854021 39.02824 60.8822569 39.028099 56.9944422 42.915914L42.9158083 56.994548C39.0279935 60.882363 39.0281343 67.185508 42.9158083 71.073182L169.614362 197.7717357L104.169833 197.7858143C97.5754005 197.7872222 92.2283353 203.1342873 92.2269275 209.7287195L92.2234078 228.0626205C92.2219999 234.6570526 97.5662494 239.9998944 104.160681 239.9998944L216.090045 239.9759605C229.2782050000001 239.9724408 239.9723350000001 229.2783105 239.975855 216.0901502z" />
    <glyph glyph-name="arrow-up-right-1"
      unicode="&#x61;&#x72;&#x72;&#x6F;&#x77;&#x2D;&#x75;&#x70;&#x2D;&#x72;&#x69;&#x67;&#x68;&#x74;"
      horiz-adv-x="280" d="M239.975855 216.0901502L240 104.160576C240 97.566214 234.657088 92.221965 228.062726 92.223302L209.728403 92.227244C203.134041 92.228582 197.787187 97.575436 197.78585 104.169797L197.77163 169.614468L71.0730761 42.915914C67.1854021 39.02824 60.8822569 39.028099 56.9944422 42.915914L42.9158083 56.994548C39.0279935 60.882363 39.0281343 67.185508 42.9158083 71.073182L169.614362 197.7717357L104.169833 197.7858143C97.5754005 197.7872222 92.2283353 203.1342873 92.2269275 209.7287195L92.2234078 228.0626205C92.2219999 234.6570526 97.5662494 239.9998944 104.160681 239.9998944L216.090045 239.9759605C229.2782050000001 239.9724408 239.9723350000001 229.2783105 239.975855 216.0901502z" />
    <glyph glyph-name="arrow-up"
      unicode="&#xF110;"
      horiz-adv-x="280" d="M156.965975 262.9757062L236.485975 183.4901062C241.170975 178.807006 241.170975 171.215006 236.485975 166.532006L223.460975 153.512006C218.775975 148.829006 211.179975 148.829006 206.494975 153.512006L159.999975 199.9868062V20C159.999975 14.477006 155.522975 10 149.999975 10H129.999975C124.476975 10 119.999975 14.477006 119.999975 20V199.9868062L73.504875 153.512006C68.819875 148.829006 61.224175 148.829006 56.539275 153.512006L43.513675 166.532006C38.828775 171.215006 38.828775 178.807006 43.513675 183.4901062L123.033975 262.9757062C132.403975 272.34143625 147.595975 272.34142625 156.965975 262.9757062z" />
    <glyph glyph-name="arrow-up-1"
      unicode="&#x61;&#x72;&#x72;&#x6F;&#x77;&#x2D;&#x75;&#x70;"
      horiz-adv-x="280" d="M156.965975 262.9757062L236.485975 183.4901062C241.170975 178.807006 241.170975 171.215006 236.485975 166.532006L223.460975 153.512006C218.775975 148.829006 211.179975 148.829006 206.494975 153.512006L159.999975 199.9868062V20C159.999975 14.477006 155.522975 10 149.999975 10H129.999975C124.476975 10 119.999975 14.477006 119.999975 20V199.9868062L73.504875 153.512006C68.819875 148.829006 61.224175 148.829006 56.539275 153.512006L43.513675 166.532006C38.828775 171.215006 38.828775 178.807006 43.513675 183.4901062L123.033975 262.9757062C132.403975 272.34143625 147.595975 272.34142625 156.965975 262.9757062z" />
    <glyph glyph-name="attach"
      unicode="&#xF111;"
      horiz-adv-x="280" d="M60 70C60 36.863 86.8629 10 120 10C153.137 10 180 36.863 180 70V190C180 212.0914 162.091 230 140 230S100 212.0914 100 190V110C100 104.477 104.477 100 110 100H120C125.523 100 130 104.477 130 110V190C130 195.5228 134.477 200 140 200S150 195.5228 150 190V70C150 53.431 136.569 40 120 40S90 53.431 90 70V190C90 217.6142 112.386 240 140 240S190 217.6142 190 190V110C190 104.477 194.477 100 200 100H210C215.523 100 220 104.477 220 110V190C220 234.1828 184.183 270 140 270C95.8172 270 60 234.1828 60 190z" />
    <glyph glyph-name="attach-1"
      unicode="&#x61;&#x74;&#x74;&#x61;&#x63;&#x68;"
      horiz-adv-x="280" d="M60 70C60 36.863 86.8629 10 120 10C153.137 10 180 36.863 180 70V190C180 212.0914 162.091 230 140 230S100 212.0914 100 190V110C100 104.477 104.477 100 110 100H120C125.523 100 130 104.477 130 110V190C130 195.5228 134.477 200 140 200S150 195.5228 150 190V70C150 53.431 136.569 40 120 40S90 53.431 90 70V190C90 217.6142 112.386 240 140 240S190 217.6142 190 190V110C190 104.477 194.477 100 200 100H210C215.523 100 220 104.477 220 110V190C220 234.1828 184.183 270 140 270C95.8172 270 60 234.1828 60 190z" />
    <glyph glyph-name="background-rec"
      unicode="&#xF112;"
      horiz-adv-x="280" d="M219.464174 119.784882V31.327798C219.464174 21.683597 207.959426 16.853986 201.230215 23.67332L174.526662 50.7353640000001C172.523921 52.7661440000001 169.807202 53.9067050000001 166.974324 53.9067050000001H150.036139C144.137064 53.9067050000001 139.354517 58.7533390000001 139.354517 64.7315220000001V86.3811570000001C139.354517 92.3603420000001 144.137064 97.2059750000001 150.036139 97.2059750000001H166.974324C169.807202 97.2059750000001 172.523921 98.346536 174.526662 100.3773160000001L201.230215 127.4393590000001C207.958425 134.2586940000001 219.464174 129.4290830000001 219.464174 119.7848820000001zM244.498442 100.590608C258.324368 100.590608 269.53271 89.382265 269.53271 75.55634C269.53271 61.730414 258.324368 50.522072 244.498442 50.522072C241.733658 50.522072 239.491589 52.764141 239.491589 55.528925V60.535779C239.491589 63.300564 241.733658 65.542633 244.498442 65.542633C250.029013 65.542633 254.51215 70.025769 254.51215 75.55634C254.51215 81.0869100000001 250.029013 85.5700470000001 244.498442 85.5700470000001C241.733658 85.5700470000001 239.491589 87.812116 239.491589 90.5769000000001V95.5837540000001C239.491589 98.3485390000001 241.733658 100.5906080000001 244.498442 100.5906080000001zM129.34081 110.604315C129.85952 110.604315 130.367215 110.565261 130.863895 110.489157C123.793216 104.793361 119.327103 96.037375 119.327103 86.382159V70.549486H29.2037383C23.6736685 70.549486 19.1900312 75.033624 19.1900312 80.563193V100.590608C19.1900312 106.120177 23.6736685 110.604315 29.2037383 110.604315zM179.409346 180.7002649C184.939916 180.7002649 189.423053 176.217128 189.423053 170.686558V150.659143C189.423053 145.128573 184.939916 140.645436 179.409346 140.645436H29.2037383C23.6733681 140.645436 19.1900312 145.128573 19.1900312 150.659143V170.686558C19.1900312 176.217128 23.6733681 180.7002649 29.2037383 180.7002649zM179.409346 250.7962151C184.939916 250.7962151 189.423053 246.3128781 189.423053 240.7825079V220.7550936C189.423053 215.2247234 184.939916 210.7413864 179.409346 210.7413864H29.2037383C23.6733681 210.7413864 19.1900312 215.2247234 19.1900312 220.7550936V240.7825079C19.1900312 246.3128781 23.6733681 250.7962151 29.2037383 250.7962151z" />
    <glyph glyph-name="background-rec-1"
      unicode="&#x62;&#x61;&#x63;&#x6B;&#x67;&#x72;&#x6F;&#x75;&#x6E;&#x64;&#x2D;&#x72;&#x65;&#x63;"
      horiz-adv-x="280" d="M219.464174 119.784882V31.327798C219.464174 21.683597 207.959426 16.853986 201.230215 23.67332L174.526662 50.7353640000001C172.523921 52.7661440000001 169.807202 53.9067050000001 166.974324 53.9067050000001H150.036139C144.137064 53.9067050000001 139.354517 58.7533390000001 139.354517 64.7315220000001V86.3811570000001C139.354517 92.3603420000001 144.137064 97.2059750000001 150.036139 97.2059750000001H166.974324C169.807202 97.2059750000001 172.523921 98.346536 174.526662 100.3773160000001L201.230215 127.4393590000001C207.958425 134.2586940000001 219.464174 129.4290830000001 219.464174 119.7848820000001zM244.498442 100.590608C258.324368 100.590608 269.53271 89.382265 269.53271 75.55634C269.53271 61.730414 258.324368 50.522072 244.498442 50.522072C241.733658 50.522072 239.491589 52.764141 239.491589 55.528925V60.535779C239.491589 63.300564 241.733658 65.542633 244.498442 65.542633C250.029013 65.542633 254.51215 70.025769 254.51215 75.55634C254.51215 81.0869100000001 250.029013 85.5700470000001 244.498442 85.5700470000001C241.733658 85.5700470000001 239.491589 87.812116 239.491589 90.5769000000001V95.5837540000001C239.491589 98.3485390000001 241.733658 100.5906080000001 244.498442 100.5906080000001zM129.34081 110.604315C129.85952 110.604315 130.367215 110.565261 130.863895 110.489157C123.793216 104.793361 119.327103 96.037375 119.327103 86.382159V70.549486H29.2037383C23.6736685 70.549486 19.1900312 75.033624 19.1900312 80.563193V100.590608C19.1900312 106.120177 23.6736685 110.604315 29.2037383 110.604315zM179.409346 180.7002649C184.939916 180.7002649 189.423053 176.217128 189.423053 170.686558V150.659143C189.423053 145.128573 184.939916 140.645436 179.409346 140.645436H29.2037383C23.6733681 140.645436 19.1900312 145.128573 19.1900312 150.659143V170.686558C19.1900312 176.217128 23.6733681 180.7002649 29.2037383 180.7002649zM179.409346 250.7962151C184.939916 250.7962151 189.423053 246.3128781 189.423053 240.7825079V220.7550936C189.423053 215.2247234 184.939916 210.7413864 179.409346 210.7413864H29.2037383C23.6733681 210.7413864 19.1900312 215.2247234 19.1900312 220.7550936V240.7825079C19.1900312 246.3128781 23.6733681 250.7962151 29.2037383 250.7962151z" />
    <glyph glyph-name="block"
      unicode="&#xF113;"
      horiz-adv-x="280" d="M28.5351764 180.4748417V48.931606H180.532663V28.694185H28.5351764C17.3582946 28.694185 8.26884486 37.770668 8.26884486 48.931606V180.4748417zM58.9346737 210.8309731V79.287737H210.93216V59.050316H58.9346737C47.7577919 59.050316 38.6683422 68.126799 38.6683422 79.287737V210.8309731zM225.2604570000001 251.305815L271.7311550000001 204.9014088V109.643868C271.7311550000001 98.482931 262.6417050000001 89.406448 251.4648230000001 89.406448H89.3341710000001C78.1572892000001 89.406448 69.0678395000001 98.482931 69.0678395000001 109.643868V231.0683941C69.0678395000001 242.219213 78.1572892000001 251.305815 89.3341710000001 251.305815zM210.9321600000001 231.0683941H89.334171V109.643868H251.474957L251.464823 190.5935522H210.93216zM221.065326 150.11871V129.881289H109.600503V150.11871zM180.532663 190.5935522V170.356131H109.600503V190.5935522z" />
    <glyph glyph-name="block-1"
      unicode="&#x62;&#x6C;&#x6F;&#x63;&#x6B;"
      horiz-adv-x="280" d="M28.5351764 180.4748417V48.931606H180.532663V28.694185H28.5351764C17.3582946 28.694185 8.26884486 37.770668 8.26884486 48.931606V180.4748417zM58.9346737 210.8309731V79.287737H210.93216V59.050316H58.9346737C47.7577919 59.050316 38.6683422 68.126799 38.6683422 79.287737V210.8309731zM225.2604570000001 251.305815L271.7311550000001 204.9014088V109.643868C271.7311550000001 98.482931 262.6417050000001 89.406448 251.4648230000001 89.406448H89.3341710000001C78.1572892000001 89.406448 69.0678395000001 98.482931 69.0678395000001 109.643868V231.0683941C69.0678395000001 242.219213 78.1572892000001 251.305815 89.3341710000001 251.305815zM210.9321600000001 231.0683941H89.334171V109.643868H251.474957L251.464823 190.5935522H210.93216zM221.065326 150.11871V129.881289H109.600503V150.11871zM180.532663 190.5935522V170.356131H109.600503V190.5935522z" />
    <glyph glyph-name="caret-down"
      unicode="&#xF114;"
      horiz-adv-x="280" d="M157.371012 78.252C148.331012 67.249 131.669012 67.249 122.629012 78.252L45.2842117 172.385C33.0110117 187.322 43.4839117 210 62.6552117 210H217.345012C236.516012 210 246.989012 187.3221 234.716012 172.385z" />
    <glyph glyph-name="caret-down-1"
      unicode="&#x63;&#x61;&#x72;&#x65;&#x74;&#x2D;&#x64;&#x6F;&#x77;&#x6E;"
      horiz-adv-x="280" d="M157.371012 78.252C148.331012 67.249 131.669012 67.249 122.629012 78.252L45.2842117 172.385C33.0110117 187.322 43.4839117 210 62.6552117 210H217.345012C236.516012 210 246.989012 187.3221 234.716012 172.385z" />
    <glyph glyph-name="caret-left"
      unicode="&#xF115;"
      horiz-adv-x="280" d="M78.2518 122.628988C67.2494 131.668988 67.2494 148.330988 78.2518 157.370988L172.385 234.7157883C187.322 246.9889883 210 236.5160883 210 217.3447883V62.654988C210 43.483988 187.322 33.010988 172.385 45.283988z" />
    <glyph glyph-name="caret-left-1"
      unicode="&#x63;&#x61;&#x72;&#x65;&#x74;&#x2D;&#x6C;&#x65;&#x66;&#x74;"
      horiz-adv-x="280" d="M78.2518 122.628988C67.2494 131.668988 67.2494 148.330988 78.2518 157.370988L172.385 234.7157883C187.322 246.9889883 210 236.5160883 210 217.3447883V62.654988C210 43.483988 187.322 33.010988 172.385 45.283988z" />
    <glyph glyph-name="caret-right"
      unicode="&#xF116;"
      horiz-adv-x="280" d="M201.748 157.370991C212.751 148.330991 212.751 131.668991 201.748 122.628991L107.615 45.283991C92.678 33.010991 70 43.483991 70 62.654991V217.3446909C70 236.5160909 92.6779 246.9889909000001 107.615 234.7157909z" />
    <glyph glyph-name="caret-right-1"
      unicode="&#x63;&#x61;&#x72;&#x65;&#x74;&#x2D;&#x72;&#x69;&#x67;&#x68;&#x74;"
      horiz-adv-x="280" d="M201.748 157.370991C212.751 148.330991 212.751 131.668991 201.748 122.628991L107.615 45.283991C92.678 33.010991 70 43.483991 70 62.654991V217.3446909C70 236.5160909 92.6779 246.9889909000001 107.615 234.7157909z" />
    <glyph glyph-name="caret-up"
      unicode="&#xF117;"
      horiz-adv-x="280" d="M122.629009 201.7482C131.669009 212.7506 148.331009 212.7506 157.371009 201.7482L234.716009 107.615C246.989009 92.678 236.516009 70 217.345009 70H62.6553091C43.4839091 70 33.0110091 92.678 45.2842091 107.615z" />
    <glyph glyph-name="caret-up-1"
      unicode="&#x63;&#x61;&#x72;&#x65;&#x74;&#x2D;&#x75;&#x70;"
      horiz-adv-x="280" d="M122.629009 201.7482C131.669009 212.7506 148.331009 212.7506 157.371009 201.7482L234.716009 107.615C246.989009 92.678 236.516009 70 217.345009 70H62.6553091C43.4839091 70 33.0110091 92.678 45.2842091 107.615z" />
    <glyph glyph-name="cascading"
      unicode="&#xF118;"
      horiz-adv-x="280" d="M20 235C20 246.0457 28.9543 255 40 255H140C151.046 255 160 246.0457 160 235V215C160 203.9543 151.046 195 140 195H85V165C85 156.716 91.7157 150 100 150H120.63C122.85 158.626 130.681 165 140 165H240C251.046 165 260 156.046 260 145V125C260 113.954 251.046 105 240 105H225V85C225 60.147 204.853 40 180 40H159.37C157.15 31.374 149.319 25 140 25H40C28.9543 25 20 33.954 20 45V65C20 76.046 28.9543 85 40 85H140C149.319 85 157.15 78.626 159.37 70H180C188.284 70 195 76.716 195 85V105H140C130.681 105 122.85 111.374 120.63 120H100C75.1472 120 55 140.147 55 165V195H40C28.9543 195 20 203.9543 20 215z" />
    <glyph glyph-name="cascading-1"
      unicode="&#x63;&#x61;&#x73;&#x63;&#x61;&#x64;&#x69;&#x6E;&#x67;"
      horiz-adv-x="280" d="M20 235C20 246.0457 28.9543 255 40 255H140C151.046 255 160 246.0457 160 235V215C160 203.9543 151.046 195 140 195H85V165C85 156.716 91.7157 150 100 150H120.63C122.85 158.626 130.681 165 140 165H240C251.046 165 260 156.046 260 145V125C260 113.954 251.046 105 240 105H225V85C225 60.147 204.853 40 180 40H159.37C157.15 31.374 149.319 25 140 25H40C28.9543 25 20 33.954 20 45V65C20 76.046 28.9543 85 40 85H140C149.319 85 157.15 78.626 159.37 70H180C188.284 70 195 76.716 195 85V105H140C130.681 105 122.85 111.374 120.63 120H100C75.1472 120 55 140.147 55 165V195H40C28.9543 195 20 203.9543 20 215z" />
    <glyph glyph-name="check-circle"
      unicode="&#xF119;"
      horiz-adv-x="280" d="M140 260C206.274 260 260 206.2742 260 140C260 73.726 206.274 20 140 20C73.7258 20 20 73.726 20 140C20 206.2742 73.7258 260 140 260zM193.485 186.5147C188.799 191.201 181.201 191.201 176.515 186.5147L120 130L98.4853 151.515C93.799 156.201 86.201 156.201 81.5147 151.515L73.4853 143.485C68.799 138.799 68.799 131.201 73.4853 126.515L103.029 96.971C112.402 87.598 127.598 87.598 136.971 96.971L201.515 161.515C206.201 166.201 206.201 173.799 201.515 178.485z" />
    <glyph glyph-name="check-circle-1"
      unicode="&#x63;&#x68;&#x65;&#x63;&#x6B;&#x2D;&#x63;&#x69;&#x72;&#x63;&#x6C;&#x65;"
      horiz-adv-x="280" d="M140 260C206.274 260 260 206.2742 260 140C260 73.726 206.274 20 140 20C73.7258 20 20 73.726 20 140C20 206.2742 73.7258 260 140 260zM193.485 186.5147C188.799 191.201 181.201 191.201 176.515 186.5147L120 130L98.4853 151.515C93.799 156.201 86.201 156.201 81.5147 151.515L73.4853 143.485C68.799 138.799 68.799 131.201 73.4853 126.515L103.029 96.971C112.402 87.598 127.598 87.598 136.971 96.971L201.515 161.515C206.201 166.201 206.201 173.799 201.515 178.485z" />
    <glyph glyph-name="check"
      unicode="&#xF11A;"
      horiz-adv-x="280" d="M58.9662848 144.430084L69.1303836 154.594942C75.0625847 160.526763 84.6805913 160.526763 90.6127925 154.594942L117.847397 127.359958L189.387492 198.899673C195.319314 204.8318742 204.93732 204.8318742 210.869142 198.899673L221.034 188.7351945C226.9658210000001 182.8033731 226.9658210000001 173.185367 221.034 167.253545L139.330312 85.549858C127.465404 73.684949 108.229391 73.684949 96.3644819 85.549858L58.9662848 122.948434C53.0340837 128.880256 53.0340837 138.498262 58.9662848 144.430084z" />
    <glyph glyph-name="check-1"
      unicode="&#x63;&#x68;&#x65;&#x63;&#x6B;"
      horiz-adv-x="280" d="M58.9662848 144.430084L69.1303836 154.594942C75.0625847 160.526763 84.6805913 160.526763 90.6127925 154.594942L117.847397 127.359958L189.387492 198.899673C195.319314 204.8318742 204.93732 204.8318742 210.869142 198.899673L221.034 188.7351945C226.9658210000001 182.8033731 226.9658210000001 173.185367 221.034 167.253545L139.330312 85.549858C127.465404 73.684949 108.229391 73.684949 96.3644819 85.549858L58.9662848 122.948434C53.0340837 128.880256 53.0340837 138.498262 58.9662848 144.430084z" />
    <glyph glyph-name="close"
      unicode="&#xF11B;"
      horiz-adv-x="280" d="M139.999913 169.991166L73.5048704 236.4863085C68.8199483 241.1712305 61.2241824 241.1712305 56.5393604 236.4863085L43.5136915 223.4607396C38.8287695 218.7758176 38.8287695 211.1800517 43.5136915 206.4951296L110.008734 139.999988L43.5136915 73.504545C38.8287695 68.8199230000001 38.8287695 61.2241570000001 43.5136915 56.539535L56.5393604 43.513367C61.2241824 38.828744 68.8199483 38.828744 73.5048704 43.513367L139.999913 110.008809L206.495355 43.513367C211.179977 38.828744 218.775743 38.828744 223.460365 43.513367L236.486533 56.539535C241.171156 61.224157 241.171156 68.819923 236.486533 73.504545L169.991091 139.999988L236.486533 206.4951296000001C241.171156 211.1800517 241.171156 218.7758176000001 236.486533 223.4607396L223.460365 236.4863085C218.775743 241.1712305000001 211.179977 241.1712305000001 206.495355 236.4863085z" />
    <glyph glyph-name="close-1"
      unicode="&#x63;&#x6C;&#x6F;&#x73;&#x65;"
      horiz-adv-x="280" d="M139.999913 169.991166L73.5048704 236.4863085C68.8199483 241.1712305 61.2241824 241.1712305 56.5393604 236.4863085L43.5136915 223.4607396C38.8287695 218.7758176 38.8287695 211.1800517 43.5136915 206.4951296L110.008734 139.999988L43.5136915 73.504545C38.8287695 68.8199230000001 38.8287695 61.2241570000001 43.5136915 56.539535L56.5393604 43.513367C61.2241824 38.828744 68.8199483 38.828744 73.5048704 43.513367L139.999913 110.008809L206.495355 43.513367C211.179977 38.828744 218.775743 38.828744 223.460365 43.513367L236.486533 56.539535C241.171156 61.224157 241.171156 68.819923 236.486533 73.504545L169.991091 139.999988L236.486533 206.4951296000001C241.171156 211.1800517 241.171156 218.7758176000001 236.486533 223.4607396L223.460365 236.4863085C218.775743 241.1712305000001 211.179977 241.1712305000001 206.495355 236.4863085z" />
    <glyph glyph-name="data-sync"
      unicode="&#xF11C;"
      horiz-adv-x="280" d="M254.485981 82.757009C254.485981 51.1875 228.8125 25.514019 197.242991 25.514019C181.806464 25.514019 167.486176 31.581776 156.800818 42.314836L140 25.514019V73.216511H187.702492L170.4246500000001 55.938668C177.5514020000001 48.792835 186.9678740000001 44.595016 197.2429910000001 44.595016C218.28933 44.595016 235.4049840000001 61.7106700000001 235.4049840000001 82.757009zM111.378505 254.4859813C154.053154 254.4859813 197.242991 241.3773364 197.242991 216.3239875V178.104751H178.152453C178.152453 178.123832 178.161994 178.142913 178.161994 178.161994V191.5186916C161.599688 182.722352 136.431854 178.161994 111.378505 178.161994C86.3251558 178.161994 61.1573209 182.722352 44.5950156 191.5186916V178.161994C44.5950156 172.618964 67.9978583 159.080997 111.378505 159.080997C114.689058 159.080997 117.846963 159.185942 120.919003 159.32905V140.219431C117.751558 140.076324 114.565031 140 111.378505 140C86.3251558 140 61.1573209 144.560358 44.5950156 153.356698V140C44.5950156 134.4569700000001 67.9978583 120.919003 111.378505 120.919003C114.689058 120.919003 117.846963 121.0239490000001 120.919003 121.167056V102.057438C117.751558 101.91433 114.565031 101.838006 111.378505 101.838006C86.3251558 101.838006 61.1573209 106.398364 44.5950156 115.194704V101.838006C44.5950156 96.294977 67.9978583 82.757009 111.378505 82.757009C114.689058 82.757009 117.846963 82.861955 120.919003 83.005062V63.914525C117.742017 63.771417 114.565031 63.676012 111.378505 63.676012C68.7038551 63.676012 25.5140187 76.784657 25.5140187 101.838006V216.3239875C25.5140187 241.3773364 68.7038551 254.4859813 111.378505 254.4859813zM254.483119 140.002862V92.30037H206.780627L224.05847 109.578213C216.941258 116.714505 207.524786 120.921865 197.240129 120.921865C176.203329 120.921865 159.078135 103.796671 159.078135 82.759871H139.997138C139.997138 114.31984 165.68016 140.002862 197.240129 140.002862C212.6766550000001 140.002862 227.016024 133.935105 237.691842 123.202044zM111.378505 235.4049844C67.9978583 235.4049844 44.5950156 221.8670171 44.5950156 216.3239875S67.9978583 197.2429907 111.378505 197.2429907C154.759151 197.2429907 178.161994 210.7809579 178.161994 216.3239875S154.759151 235.4049844 111.378505 235.4049844z" />
    <glyph glyph-name="data-sync-1"
      unicode="&#x64;&#x61;&#x74;&#x61;&#x2D;&#x73;&#x79;&#x6E;&#x63;"
      horiz-adv-x="280" d="M254.485981 82.757009C254.485981 51.1875 228.8125 25.514019 197.242991 25.514019C181.806464 25.514019 167.486176 31.581776 156.800818 42.314836L140 25.514019V73.216511H187.702492L170.4246500000001 55.938668C177.5514020000001 48.792835 186.9678740000001 44.595016 197.2429910000001 44.595016C218.28933 44.595016 235.4049840000001 61.7106700000001 235.4049840000001 82.757009zM111.378505 254.4859813C154.053154 254.4859813 197.242991 241.3773364 197.242991 216.3239875V178.104751H178.152453C178.152453 178.123832 178.161994 178.142913 178.161994 178.161994V191.5186916C161.599688 182.722352 136.431854 178.161994 111.378505 178.161994C86.3251558 178.161994 61.1573209 182.722352 44.5950156 191.5186916V178.161994C44.5950156 172.618964 67.9978583 159.080997 111.378505 159.080997C114.689058 159.080997 117.846963 159.185942 120.919003 159.32905V140.219431C117.751558 140.076324 114.565031 140 111.378505 140C86.3251558 140 61.1573209 144.560358 44.5950156 153.356698V140C44.5950156 134.4569700000001 67.9978583 120.919003 111.378505 120.919003C114.689058 120.919003 117.846963 121.0239490000001 120.919003 121.167056V102.057438C117.751558 101.91433 114.565031 101.838006 111.378505 101.838006C86.3251558 101.838006 61.1573209 106.398364 44.5950156 115.194704V101.838006C44.5950156 96.294977 67.9978583 82.757009 111.378505 82.757009C114.689058 82.757009 117.846963 82.861955 120.919003 83.005062V63.914525C117.742017 63.771417 114.565031 63.676012 111.378505 63.676012C68.7038551 63.676012 25.5140187 76.784657 25.5140187 101.838006V216.3239875C25.5140187 241.3773364 68.7038551 254.4859813 111.378505 254.4859813zM254.483119 140.002862V92.30037H206.780627L224.05847 109.578213C216.941258 116.714505 207.524786 120.921865 197.240129 120.921865C176.203329 120.921865 159.078135 103.796671 159.078135 82.759871H139.997138C139.997138 114.31984 165.68016 140.002862 197.240129 140.002862C212.6766550000001 140.002862 227.016024 133.935105 237.691842 123.202044zM111.378505 235.4049844C67.9978583 235.4049844 44.5950156 221.8670171 44.5950156 216.3239875S67.9978583 197.2429907 111.378505 197.2429907C154.759151 197.2429907 178.161994 210.7809579 178.161994 216.3239875S154.759151 235.4049844 111.378505 235.4049844z" />
    <glyph glyph-name="deploy"
      unicode="&#xF11D;"
      horiz-adv-x="280" d="M258.605329 229.9253774L239.575862 177.593448C236.58262 169.360995 231.821008 161.884848 225.627714 155.691525L160.100089 90.163592V34.014063C160.100089 21.552486 145.033971 15.312206 136.22209 24.123129L24.1247732 136.222372C15.3133917 145.033295 21.5539419 160.099484 34.0151604 160.099484H90.1645259L155.692151 225.6272174C161.885444 231.8209398 169.361556 236.5821753 177.593971 239.5756313L229.925754 258.6055872C247.785298 265.099934 265.100345 247.7848062 258.605329 229.9253774zM40.2106472 80.172751L80.1740141 40.209384C74.0509269 27.963609 61.5345003 20.2277 47.8429509 20.2277H20.2289637V47.841388C20.2289637 61.532837 27.9645728 74.049364 40.2106472 80.172751z" />
    <glyph glyph-name="deploy-1"
      unicode="&#x64;&#x65;&#x70;&#x6C;&#x6F;&#x79;"
      horiz-adv-x="280" d="M258.605329 229.9253774L239.575862 177.593448C236.58262 169.360995 231.821008 161.884848 225.627714 155.691525L160.100089 90.163592V34.014063C160.100089 21.552486 145.033971 15.312206 136.22209 24.123129L24.1247732 136.222372C15.3133917 145.033295 21.5539419 160.099484 34.0151604 160.099484H90.1645259L155.692151 225.6272174C161.885444 231.8209398 169.361556 236.5821753 177.593971 239.5756313L229.925754 258.6055872C247.785298 265.099934 265.100345 247.7848062 258.605329 229.9253774zM40.2106472 80.172751L80.1740141 40.209384C74.0509269 27.963609 61.5345003 20.2277 47.8429509 20.2277H20.2289637V47.841388C20.2289637 61.532837 27.9645728 74.049364 40.2106472 80.172751z" />
    <glyph glyph-name="document"
      unicode="&#xF11E;"
      horiz-adv-x="280" d="M160 260V220C160 197.9077 177.908 180 200 180H240V40C240 28.954 231.045 20 220 20H60C48.9551 20 40 28.954 40 40V240C40 251.0461 48.9551 260 60 260zM190 100H90C84.4775 100 80 95.522 80 90V80C80 74.478 84.4775 70 90 70H190C195.522 70 200 74.478 200 80V90C200 95.522 195.522 100 190 100zM190 150H90C84.5711017 150 80.1520799 145.67251 80.0038421 140.279863L80 140V130C80 124.571593 84.3270066 120.152097 89.7201122 120.003843L90 120H190C195.428407 120 199.847903 124.32749 199.996157 129.720137L200 130V140C200 145.522 195.522 150 190 150zM130 200H90C84.4775 200 80 195.5225 80 190V180C80 174.478 84.4775 170 90 170H130C135.522 170 140 174.478 140 180V190C140 195.5225 135.522 200 130 200zM180 260L240 200H200C188.955 200 180 208.9539 180 220z" />
    <glyph glyph-name="document-1"
      unicode="&#x64;&#x6F;&#x63;&#x75;&#x6D;&#x65;&#x6E;&#x74;"
      horiz-adv-x="280" d="M160 260V220C160 197.9077 177.908 180 200 180H240V40C240 28.954 231.045 20 220 20H60C48.9551 20 40 28.954 40 40V240C40 251.0461 48.9551 260 60 260zM190 100H90C84.4775 100 80 95.522 80 90V80C80 74.478 84.4775 70 90 70H190C195.522 70 200 74.478 200 80V90C200 95.522 195.522 100 190 100zM190 150H90C84.5711017 150 80.1520799 145.67251 80.0038421 140.279863L80 140V130C80 124.571593 84.3270066 120.152097 89.7201122 120.003843L90 120H190C195.428407 120 199.847903 124.32749 199.996157 129.720137L200 130V140C200 145.522 195.522 150 190 150zM130 200H90C84.4775 200 80 195.5225 80 190V180C80 174.478 84.4775 170 90 170H130C135.522 170 140 174.478 140 180V190C140 195.5225 135.522 200 130 200zM180 260L240 200H200C188.955 200 180 208.9539 180 220z" />
    <glyph glyph-name="download"
      unicode="&#xF11F;"
      horiz-adv-x="280" d="M81.7157 80L111.716 50C127.337 34.379 152.663 34.379 168.284 50L198.284 80H230C241.046 80 250 71.046 250 60V40C250 28.954 241.046 20 230 20H50C38.9543 20 30 28.954 30 40V60C30 71.046 38.9543 80 50 80zM150 260C155.523 260 160 255.5228 160 250V120L192.929 152.929C196.834 156.834 203.166 156.834 207.071 152.929L217.929 142.071C221.834 138.166 221.834 131.834 217.929 127.929L154.142 64.142C146.332 56.332 133.668 56.332 125.858 64.142L62.0711 127.929C58.1658 131.834 58.1658 138.166 62.0711 142.071L72.9289 152.929C76.8342 156.834 83.1658 156.834 87.0711 152.929L120 120V250C120 255.5229 124.477 260 130 260z" />
    <glyph glyph-name="download-1"
      unicode="&#x64;&#x6F;&#x77;&#x6E;&#x6C;&#x6F;&#x61;&#x64;"
      horiz-adv-x="280" d="M81.7157 80L111.716 50C127.337 34.379 152.663 34.379 168.284 50L198.284 80H230C241.046 80 250 71.046 250 60V40C250 28.954 241.046 20 230 20H50C38.9543 20 30 28.954 30 40V60C30 71.046 38.9543 80 50 80zM150 260C155.523 260 160 255.5228 160 250V120L192.929 152.929C196.834 156.834 203.166 156.834 207.071 152.929L217.929 142.071C221.834 138.166 221.834 131.834 217.929 127.929L154.142 64.142C146.332 56.332 133.668 56.332 125.858 64.142L62.0711 127.929C58.1658 131.834 58.1658 138.166 62.0711 142.071L72.9289 152.929C76.8342 156.834 83.1658 156.834 87.0711 152.929L120 120V250C120 255.5229 124.477 260 130 260z" />
    <glyph glyph-name="drafts"
      unicode="&#xF120;"
      horiz-adv-x="280" d="M204 126L234 96L166.903 28.903C164.988 26.988 162.703 25.481 160.188 24.475L135.664 14.666C127.501 11.401 119.401 19.501 122.666 27.664L132.475 52.188C133.481 54.703 134.988 56.988 136.903 58.903zM129 266V226C129 212.1929 140.193 201 154 201H194V144.284L122.761 73.045C118.93 69.215 115.918 64.646 113.906 59.616L112.459 56H44C32.9543 56 24 64.954 24 76V246C24 257.0457 32.9543 266 44 266zM249 141C257.284 132.716 257.284 119.284 249 111L244 106L214 136L219 141C227.284 149.284 240.716 149.284 249 141zM144 266L194 216H154C148.477 216 144 220.4772 144 226z" />
    <glyph glyph-name="drafts-1"
      unicode="&#x64;&#x72;&#x61;&#x66;&#x74;&#x73;"
      horiz-adv-x="280" d="M204 126L234 96L166.903 28.903C164.988 26.988 162.703 25.481 160.188 24.475L135.664 14.666C127.501 11.401 119.401 19.501 122.666 27.664L132.475 52.188C133.481 54.703 134.988 56.988 136.903 58.903zM129 266V226C129 212.1929 140.193 201 154 201H194V144.284L122.761 73.045C118.93 69.215 115.918 64.646 113.906 59.616L112.459 56H44C32.9543 56 24 64.954 24 76V246C24 257.0457 32.9543 266 44 266zM249 141C257.284 132.716 257.284 119.284 249 111L244 106L214 136L219 141C227.284 149.284 240.716 149.284 249 141zM144 266L194 216H154C148.477 216 144 220.4772 144 226z" />
    <glyph glyph-name="drag-handle"
      unicode="&#xF121;"
      horiz-adv-x="280" d="M86.1071378 62.222C103.278095 62.222 117.214076 48.3 117.214076 31.112C117.214076 13.906 103.278095 0 86.1071378 0C68.9204022 0 55 13.906 55 31.112C55 48.3 68.9204022 62.222 86.1071378 62.222zM193.892862 62.222C211.06402 62.222 225 48.3 225 31.112C225 13.906 211.06402 0 193.892862 0C176.706307 0 162.785924 13.906 162.785924 31.112C162.785924 48.3 176.706307 62.222 193.892862 62.222zM86.1071378 171.1112C103.278095 171.1112 117.214076 157.1888 117.214076 140C117.214076 122.7956 103.278095 108.8888 86.1071378 108.8888C68.9204022 108.8888 55 122.7956 55 140C55 157.1888 68.9204022 171.1112 86.1071378 171.1112zM193.892862 171.1112C211.06402 171.1112 225 157.1888 225 140C225 122.7956 211.06402 108.8888 193.892862 108.8888C176.706307 108.8888 162.785924 122.7956 162.785924 140C162.785924 157.1888 176.706307 171.1112 193.892862 171.1112zM86.1071378 280C103.278095 280 117.214076 266.07778 117.214076 248.8888C117.214076 231.6844 103.278095 217.7778 86.1071378 217.7778C68.9204022 217.7778 55 231.6844 55 248.8888C55 266.07778 68.9204022 280 86.1071378 280zM193.892862 280C211.06402 280 225 266.07778 225 248.8888C225 231.6844 211.06402 217.7778 193.892862 217.7778C176.706307 217.7778 162.785924 231.6844 162.785924 248.8888C162.785924 266.07778 176.706307 280 193.892862 280z" />
    <glyph glyph-name="drag-handle-1"
      unicode="&#x64;&#x72;&#x61;&#x67;&#x2D;&#x68;&#x61;&#x6E;&#x64;&#x6C;&#x65;"
      horiz-adv-x="280" d="M86.1071378 62.222C103.278095 62.222 117.214076 48.3 117.214076 31.112C117.214076 13.906 103.278095 0 86.1071378 0C68.9204022 0 55 13.906 55 31.112C55 48.3 68.9204022 62.222 86.1071378 62.222zM193.892862 62.222C211.06402 62.222 225 48.3 225 31.112C225 13.906 211.06402 0 193.892862 0C176.706307 0 162.785924 13.906 162.785924 31.112C162.785924 48.3 176.706307 62.222 193.892862 62.222zM86.1071378 171.1112C103.278095 171.1112 117.214076 157.1888 117.214076 140C117.214076 122.7956 103.278095 108.8888 86.1071378 108.8888C68.9204022 108.8888 55 122.7956 55 140C55 157.1888 68.9204022 171.1112 86.1071378 171.1112zM193.892862 171.1112C211.06402 171.1112 225 157.1888 225 140C225 122.7956 211.06402 108.8888 193.892862 108.8888C176.706307 108.8888 162.785924 122.7956 162.785924 140C162.785924 157.1888 176.706307 171.1112 193.892862 171.1112zM86.1071378 280C103.278095 280 117.214076 266.07778 117.214076 248.8888C117.214076 231.6844 103.278095 217.7778 86.1071378 217.7778C68.9204022 217.7778 55 231.6844 55 248.8888C55 266.07778 68.9204022 280 86.1071378 280zM193.892862 280C211.06402 280 225 266.07778 225 248.8888C225 231.6844 211.06402 217.7778 193.892862 217.7778C176.706307 217.7778 162.785924 231.6844 162.785924 248.8888C162.785924 266.07778 176.706307 280 193.892862 280z" />
    <glyph glyph-name="duplicate"
      unicode="&#xF122;"
      horiz-adv-x="280" d="M70 215V85C70 62.909 87.9086 45 110 45H190V35C190 23.954 181.046 15 170 15H50C38.9543 15 30 23.954 30 35V195C30 206.0457 38.9543 215 50 215zM180 265V225C180 208.4315 193.431 195 210 195H250V85C250 73.954 241.046 65 230 65H110C98.9543 65 90 73.954 90 85V245C90 256.0457 98.9543 265 110 265zM200 265L250 215H210C204.477 215 200 219.4772 200 225z" />
    <glyph glyph-name="duplicate-1"
      unicode="&#x64;&#x75;&#x70;&#x6C;&#x69;&#x63;&#x61;&#x74;&#x65;"
      horiz-adv-x="280" d="M70 215V85C70 62.909 87.9086 45 110 45H190V35C190 23.954 181.046 15 170 15H50C38.9543 15 30 23.954 30 35V195C30 206.0457 38.9543 215 50 215zM180 265V225C180 208.4315 193.431 195 210 195H250V85C250 73.954 241.046 65 230 65H110C98.9543 65 90 73.954 90 85V245C90 256.0457 98.9543 265 110 265zM200 265L250 215H210C204.477 215 200 219.4772 200 225z" />
    <glyph glyph-name="edit"
      unicode="&#xF123;"
      horiz-adv-x="280" d="M160.608742 218.07105L217.176742 161.50255L99.1097418 43.43555C97.7137418 42.03955 95.9357418 41.08755 93.9997418 40.70055L40.9667418 30.09355C33.9695418 28.69455 27.8003418 34.86355 29.1997418 41.86055L39.8063418 94.89355C40.1935418 96.82955 41.1451418 98.60755 42.5411418 100.00355zM238.389742 239.28425C254.010742 223.66335 254.010742 198.33675 238.389742 182.71575L231.318742 175.64455L174.750742 232.21325L181.821742 239.28425C197.442742 254.90525 222.768742 254.90525 238.389742 239.28425z" />
    <glyph glyph-name="edit-1"
      unicode="&#x65;&#x64;&#x69;&#x74;"
      horiz-adv-x="280" d="M160.608742 218.07105L217.176742 161.50255L99.1097418 43.43555C97.7137418 42.03955 95.9357418 41.08755 93.9997418 40.70055L40.9667418 30.09355C33.9695418 28.69455 27.8003418 34.86355 29.1997418 41.86055L39.8063418 94.89355C40.1935418 96.82955 41.1451418 98.60755 42.5411418 100.00355zM238.389742 239.28425C254.010742 223.66335 254.010742 198.33675 238.389742 182.71575L231.318742 175.64455L174.750742 232.21325L181.821742 239.28425C197.442742 254.90525 222.768742 254.90525 238.389742 239.28425z" />
    <glyph glyph-name="editor"
      unicode="&#xF124;"
      horiz-adv-x="280" d="M240 190V50C240 38.954 231.046 30 220 30H60C48.9543 30 40 38.954 40 50V190zM150 100H90C84.4772 100 80 95.523 80 90V80C80 74.477 84.4772 70 90 70H150C155.523 70 160 74.477 160 80V90C160 95.523 155.523 100 150 100zM190 150H90C84.5708068 150 80.1520699 145.673477 80.0038418 140.279912L80 140V130C80 124.57061 84.3267167 120.152063 89.7200975 120.003842L90 120H190C195.42939 120 199.847937 124.326523 199.996158 129.720088L200 130V140C200 145.523 195.523 150 190 150zM220 250C231.046 250 240 241.0457 240 230V210H40V230C40 241.0457 48.9543 250 60 250z" />
    <glyph glyph-name="editor-1"
      unicode="&#x65;&#x64;&#x69;&#x74;&#x6F;&#x72;"
      horiz-adv-x="280" d="M240 190V50C240 38.954 231.046 30 220 30H60C48.9543 30 40 38.954 40 50V190zM150 100H90C84.4772 100 80 95.523 80 90V80C80 74.477 84.4772 70 90 70H150C155.523 70 160 74.477 160 80V90C160 95.523 155.523 100 150 100zM190 150H90C84.5708068 150 80.1520699 145.673477 80.0038418 140.279912L80 140V130C80 124.57061 84.3267167 120.152063 89.7200975 120.003842L90 120H190C195.42939 120 199.847937 124.326523 199.996158 129.720088L200 130V140C200 145.523 195.523 150 190 150zM220 250C231.046 250 240 241.0457 240 230V210H40V230C40 241.0457 48.9543 250 60 250z" />
    <glyph glyph-name="email"
      unicode="&#xF125;"
      horiz-adv-x="280" d="M239.976036 229.9784328C256.541066 229.9784328 269.968847 216.5501514 269.968847 199.9856219V80.014378C269.968847 63.449349 256.541066 50.021567 239.976036 50.021567H40.0239636C23.459434 50.021567 10.0311526 63.449349 10.0311526 80.014378V199.9856219C10.0311526 216.5501514 23.459434 229.9784328 40.0239636 229.9784328zM219.547933 193.3829045L145.430698 145.4247C142.12649 143.286212 137.87351 143.286212 134.568302 145.4247L60.4515672 193.3829045C55.8158784 196.3824855 49.626262 195.0562034 46.6266809 190.4204146C43.6270999 185.7847257 44.953382 179.595509 49.5891709 176.595228L123.705906 128.637723C133.621529 122.221261 146.378471 122.221261 156.294094 128.637723L230.4103290000001 176.595228C235.0462180000001 179.595509 236.3729000000001 185.7847257 233.3736190000001 190.4204146C230.3733380000001 195.0562034 224.1838220000001 196.3824855 219.5479330000001 193.3829045z" />
    <glyph glyph-name="email-1"
      unicode="&#x65;&#x6D;&#x61;&#x69;&#x6C;"
      horiz-adv-x="280" d="M239.976036 229.9784328C256.541066 229.9784328 269.968847 216.5501514 269.968847 199.9856219V80.014378C269.968847 63.449349 256.541066 50.021567 239.976036 50.021567H40.0239636C23.459434 50.021567 10.0311526 63.449349 10.0311526 80.014378V199.9856219C10.0311526 216.5501514 23.459434 229.9784328 40.0239636 229.9784328zM219.547933 193.3829045L145.430698 145.4247C142.12649 143.286212 137.87351 143.286212 134.568302 145.4247L60.4515672 193.3829045C55.8158784 196.3824855 49.626262 195.0562034 46.6266809 190.4204146C43.6270999 185.7847257 44.953382 179.595509 49.5891709 176.595228L123.705906 128.637723C133.621529 122.221261 146.378471 122.221261 156.294094 128.637723L230.4103290000001 176.595228C235.0462180000001 179.595509 236.3729000000001 185.7847257 233.3736190000001 190.4204146C230.3733380000001 195.0562034 224.1838220000001 196.3824855 219.5479330000001 193.3829045z" />
    <glyph glyph-name="expand-arrow"
      unicode="&#xF126;"
      horiz-adv-x="280" d="M210 240C226.569 240 240 226.5685 240 210V70C240 53.431 226.569 40 210 40H70C53.4315 40 40 53.431 40 70V210C40 226.5685 53.4315 240 70 240zM190 200H134.142C125.233 200 120.771 189.2286 127.071 182.929L145 165L97.0711 117.071C93.1658 113.166 93.1658 106.834 97.0711 102.929L102.929 97.071C106.834 93.166 113.166 93.166 117.071 97.071L165 145L182.929 127.071C189.229 120.771 200 125.233 200 134.142V190C200 195.5228 195.523 200 190 200z" />
    <glyph glyph-name="expand-arrow-1"
      unicode="&#x65;&#x78;&#x70;&#x61;&#x6E;&#x64;&#x2D;&#x61;&#x72;&#x72;&#x6F;&#x77;"
      horiz-adv-x="280" d="M210 240C226.569 240 240 226.5685 240 210V70C240 53.431 226.569 40 210 40H70C53.4315 40 40 53.431 40 70V210C40 226.5685 53.4315 240 70 240zM190 200H134.142C125.233 200 120.771 189.2286 127.071 182.929L145 165L97.0711 117.071C93.1658 113.166 93.1658 106.834 97.0711 102.929L102.929 97.071C106.834 93.166 113.166 93.166 117.071 97.071L165 145L182.929 127.071C189.229 120.771 200 125.233 200 134.142V190C200 195.5228 195.523 200 190 200z" />
    <glyph glyph-name="expand-list"
      unicode="&#xF127;"
      horiz-adv-x="280" d="M250 80C255.523 80 260 75.523 260 70V50C260 44.477 255.523 40 250 40H110C104.477 40 100 44.477 100 50V70C100 75.523 104.477 80 110 80zM108.672 150C118.258 150 123.494 140.281 117.358 133.879L78.6855 93.537C74.1654 88.821 65.8346 88.821 61.3145 93.537L22.6421 133.879C16.5055 140.281 21.7419 150 31.3276 150zM250 150C255.523 150 260 145.523 260 140V120C260 114.477 255.523 110 250 110H136.025L139.015 113.119C149.115 123.656 151.976 137.592 148.704 150zM78.6855 236.4635L117.358 196.1208C123.494 189.7191 118.258 180 108.672 180H31.3276C21.742 180 16.5055 189.7191 22.6421 196.1208L61.3145 236.4635C65.8346 241.1788 74.1654 241.1788 78.6855 236.4635zM250 220C255.523 220 260 215.5229 260 210V190C260 184.4772 255.523 180 250 180H148.704C151.976 192.4082 149.115 206.3441 139.015 216.8809L136.025 220z" />
    <glyph glyph-name="expand-list-1"
      unicode="&#x65;&#x78;&#x70;&#x61;&#x6E;&#x64;&#x2D;&#x6C;&#x69;&#x73;&#x74;"
      horiz-adv-x="280" d="M250 80C255.523 80 260 75.523 260 70V50C260 44.477 255.523 40 250 40H110C104.477 40 100 44.477 100 50V70C100 75.523 104.477 80 110 80zM108.672 150C118.258 150 123.494 140.281 117.358 133.879L78.6855 93.537C74.1654 88.821 65.8346 88.821 61.3145 93.537L22.6421 133.879C16.5055 140.281 21.7419 150 31.3276 150zM250 150C255.523 150 260 145.523 260 140V120C260 114.477 255.523 110 250 110H136.025L139.015 113.119C149.115 123.656 151.976 137.592 148.704 150zM78.6855 236.4635L117.358 196.1208C123.494 189.7191 118.258 180 108.672 180H31.3276C21.742 180 16.5055 189.7191 22.6421 196.1208L61.3145 236.4635C65.8346 241.1788 74.1654 241.1788 78.6855 236.4635zM250 220C255.523 220 260 215.5229 260 210V190C260 184.4772 255.523 180 250 180H148.704C151.976 192.4082 149.115 206.3441 139.015 216.8809L136.025 220z" />
    <glyph glyph-name="expand"
      unicode="&#xF128;"
      horiz-adv-x="280" d="M270 110V74C270 55.222 254.778 40 236 40H200V70H230C235.523 70 240 74.477 240 80V110zM40 110V80C40 74.477 44.4772 70 50 70H80V40H44C25.2223 40 10 55.222 10 74V110zM204 180C207.314 180 210 177.314 210 174V106C210 102.686 207.314 100 204 100H76C72.6863 100 70 102.686 70 106V174C70 177.314 72.6863 180 76 180zM80 240V210H50C44.4772 210 40 205.5228 40 200V170H10V206C10 224.7777 25.2223 240 44 240zM236 240C254.778 240 270 224.7777 270 206V170H240V200C240 205.5228 235.523 210 230 210H200V240z" />
    <glyph glyph-name="expand-1"
      unicode="&#x65;&#x78;&#x70;&#x61;&#x6E;&#x64;"
      horiz-adv-x="280" d="M270 110V74C270 55.222 254.778 40 236 40H200V70H230C235.523 70 240 74.477 240 80V110zM40 110V80C40 74.477 44.4772 70 50 70H80V40H44C25.2223 40 10 55.222 10 74V110zM204 180C207.314 180 210 177.314 210 174V106C210 102.686 207.314 100 204 100H76C72.6863 100 70 102.686 70 106V174C70 177.314 72.6863 180 76 180zM80 240V210H50C44.4772 210 40 205.5228 40 200V170H10V206C10 224.7777 25.2223 240 44 240zM236 240C254.778 240 270 224.7777 270 206V170H240V200C240 205.5228 235.523 210 230 210H200V240z" />
    <glyph glyph-name="file-audio"
      unicode="&#xF129;"
      horiz-adv-x="280" d="M180 240V199.9994C180 177.907 197.91 159.999 220 159.999H260V60C260 48.954 251.046 40 240 40H40C28.9543 40 20 48.954 20 60V220C20 231.0457 28.9543 240 40 240zM111.791 176.812L85.1242 149.787C83.1238 147.759 80.4107 146.62 77.5817 146.62H60.6667C54.7756 146.62 50 141.781 50 135.81V114.19C50 108.22 54.7756 103.38 60.6667 103.38H77.5817C80.4107 103.38 83.1238 102.241 85.1242 100.213L111.791 73.188C118.511 66.378 130 71.201 130 80.832V169.168C130 178.799 118.51 183.6221 111.791 176.812zM155 150C152.239 150 150 147.761 150 145V140C150 137.239 152.239 135 155 135C160.523 135 165 130.523 165 125S160.523 115 155 115C152.239 115 150 112.761 150 110V105C150 102.239 152.239 100 155 100C168.807 100 180 111.193 180 125S168.807 150 155 150zM200 240L260 180H220C208.955 180 200 188.9539 200 200z" />
    <glyph glyph-name="file-audio-1"
      unicode="&#x66;&#x69;&#x6C;&#x65;&#x2D;&#x61;&#x75;&#x64;&#x69;&#x6F;"
      horiz-adv-x="280" d="M180 240V199.9994C180 177.907 197.91 159.999 220 159.999H260V60C260 48.954 251.046 40 240 40H40C28.9543 40 20 48.954 20 60V220C20 231.0457 28.9543 240 40 240zM111.791 176.812L85.1242 149.787C83.1238 147.759 80.4107 146.62 77.5817 146.62H60.6667C54.7756 146.62 50 141.781 50 135.81V114.19C50 108.22 54.7756 103.38 60.6667 103.38H77.5817C80.4107 103.38 83.1238 102.241 85.1242 100.213L111.791 73.188C118.511 66.378 130 71.201 130 80.832V169.168C130 178.799 118.51 183.6221 111.791 176.812zM155 150C152.239 150 150 147.761 150 145V140C150 137.239 152.239 135 155 135C160.523 135 165 130.523 165 125S160.523 115 155 115C152.239 115 150 112.761 150 110V105C150 102.239 152.239 100 155 100C168.807 100 180 111.193 180 125S168.807 150 155 150zM200 240L260 180H220C208.955 180 200 188.9539 200 200z" />
    <glyph glyph-name="file-image"
      unicode="&#xF12A;"
      horiz-adv-x="280" d="M180 240V199.9994C180 178.127924 197.553591 160.357578 219.338568 160.004359L220 159.999H260V60C260 49.069063 251.23157 40.186769 240.344499 40.002907L240 40H40C29.0693594 40 20.1867748 48.76843 20.0029071 59.655501L20 60V220C20 230.9306406000001 28.7687237 239.8132252000001 39.6555104 239.9970929000001L40 240.0000000000001zM145.858 125.858L130 110.001C124.477 104.478 115.523 104.478 110 110.001C104.477 115.523 95.5226 115.523 89.9998 110.001L61.9495 81.95C57.5398 77.541 60.663 70.001 66.8993 70.001H213.1C219.337 70.001 222.46 77.541 218.05 81.95L174.142 125.858C166.331 133.669 153.668 133.669 145.858 125.858zM90 200C73.4315 200 60 186.5685 60 170C60 153.431 73.4315 140 90 140C106.569 140 120 153.431 120 170C120 186.5685 106.569 200 90 200zM200 240L260 180H220C208.955 180 200 188.9539 200 200z" />
    <glyph glyph-name="file-image-1"
      unicode="&#x66;&#x69;&#x6C;&#x65;&#x2D;&#x69;&#x6D;&#x61;&#x67;&#x65;"
      horiz-adv-x="280" d="M180 240V199.9994C180 178.127924 197.553591 160.357578 219.338568 160.004359L220 159.999H260V60C260 49.069063 251.23157 40.186769 240.344499 40.002907L240 40H40C29.0693594 40 20.1867748 48.76843 20.0029071 59.655501L20 60V220C20 230.9306406000001 28.7687237 239.8132252000001 39.6555104 239.9970929000001L40 240.0000000000001zM145.858 125.858L130 110.001C124.477 104.478 115.523 104.478 110 110.001C104.477 115.523 95.5226 115.523 89.9998 110.001L61.9495 81.95C57.5398 77.541 60.663 70.001 66.8993 70.001H213.1C219.337 70.001 222.46 77.541 218.05 81.95L174.142 125.858C166.331 133.669 153.668 133.669 145.858 125.858zM90 200C73.4315 200 60 186.5685 60 170C60 153.431 73.4315 140 90 140C106.569 140 120 153.431 120 170C120 186.5685 106.569 200 90 200zM200 240L260 180H220C208.955 180 200 188.9539 200 200z" />
    <glyph glyph-name="file-video"
      unicode="&#xF12B;"
      horiz-adv-x="280" d="M180 240V199.9994C180 177.907 197.91 159.999 220 159.999H260V60C260 48.954 251.046 40 240 40H40C28.9543 40 20 48.954 20 60V220C20 231.0457 28.9543 240 40 240zM70 177.54V92.46C70 81.916 82.9588 76.156 91.4944 82.906L145.285 125.446C151.572 130.418 151.572 139.582 145.285 144.554L91.4944 187.094C82.9588 193.8439 70 188.084 70 177.54zM200 240L260 180H220C208.955 180 200 188.954 200 200z" />
    <glyph glyph-name="file-video-1"
      unicode="&#x66;&#x69;&#x6C;&#x65;&#x2D;&#x76;&#x69;&#x64;&#x65;&#x6F;"
      horiz-adv-x="280" d="M180 240V199.9994C180 177.907 197.91 159.999 220 159.999H260V60C260 48.954 251.046 40 240 40H40C28.9543 40 20 48.954 20 60V220C20 231.0457 28.9543 240 40 240zM70 177.54V92.46C70 81.916 82.9588 76.156 91.4944 82.906L145.285 125.446C151.572 130.418 151.572 139.582 145.285 144.554L91.4944 187.094C82.9588 193.8439 70 188.084 70 177.54zM200 240L260 180H220C208.955 180 200 188.954 200 200z" />
    <glyph glyph-name="file-xls"
      unicode="&#xF12C;"
      horiz-adv-x="280" d="M180 240V199.9994C180 177.907 197.91 159.999 220 159.999H260V60C260 48.954 251.046 40 240 40H40C28.9543 40 20 48.954 20 60V220C20 231.0457 28.9543 240 40 240zM184.776 140C169.47 140 158.69 129.199 158.69 116.024C158.69 105.0254 165.079456 98.063934 172.488252 94.684669L172.811 94.54L181.543 90.504C182.069 90.272 182.577 90.052 183.066 89.839C188.075 87.663 191.028 86.379 191.028 83.027C191.028 79.585 188.657 77.567 183.052 77.567C179.31 77.567 175.005 79.18 171.033 81.734C168.561611 83.323583 165.342556 83.060543 163.437063 80.752817L163.277 80.55L159.413 75.426C157.564 72.975 157.786 69.315 160.189 67.539C167.082 62.446 175.295 60 182.621 60C200.083 60 210 71.632 210 84.688C210 95.211552 205.188896 101.818683 196.698459 105.644032L196.31 105.816L187.795 109.496C187.197 109.752 186.62 109.996 186.066 110.23C180.721 112.492 177.446 113.877 177.446 117.211C177.446 120.653 180.249 122.433 184.776 122.433C188.328 122.433 191.372 121.538 194.466 119.787C196.931486 118.391057 199.997148 118.751291 201.799312 121.026291L201.955 121.232L205.036 125.493C206.755 127.869 206.59 131.34 204.346 133.107C198.43 137.768 191.3139999999999 140 184.776 140zM54.6407 138.576H46.4621C42.4081 138.576 39.8054 133.833 41.6907 129.881L54.1177 103.832C54.9432 102.102 54.942 100.035 54.1145 98.306L40.6288 70.126C38.7376 66.174 41.3401 61.424 45.397 61.424H52.6961C54.8767 61.424 56.8425 62.871 57.6762 65.09L61.4728 75.193C62.9575 79.163 64.4422 83.134 65.9269 87.782C65.9708 87.919 66.0886 88.012 66.2208 88.012C66.3479 88.012 66.4624 87.926 66.5097 87.796C68.2019 83.142 69.6913 79.167 71.3898 75.193L75.5673 64.931C76.436 62.798 78.3617 61.424 80.4854 61.424H88.6566C92.7374 61.424 95.3379 66.224 93.3992 70.1779999999999L80.0666 97.3719999999999C79.2234 99.0909999999999 79.2032 101.1579999999999 80.0125 102.8969999999999L92.5929 129.935C94.4304 133.884 91.8259 138.5759999999999 87.7962 138.5759999999999H80.5728C78.2974 138.5759999999999 76.2672 137.0019999999999 75.4993 134.644L72.6833 125.994C71.4102 122.489 69.9283 118.2949999999999 68.4431 113.411C68.4004 113.27 68.2809 113.175 68.1464 113.175C68.0214 113.175 67.9083 113.258 67.8591 113.384C67.1583 115.189 66.5136 116.899 65.9044 118.516C64.861 121.284 63.9213 123.777 62.9819 125.994L59.6185 134.916C58.7834 137.132 56.8191 138.576 54.6407 138.576zM119.669 138.576H111.908C108.932 138.576 106.519 135.919 106.519 132.641V67.359C106.519 64.081 108.932 61.424 111.908 61.424H146.186C149.163 61.424 151.576 64.081 151.576 67.359V72.582C151.576 75.859 149.163 78.516 146.186 78.516H130.449C127.472 78.516 125.059 81.173 125.059 84.451V132.641C125.059 135.919 122.646 138.576 119.669 138.576zM200 240L260 180H220C208.955 180 200 188.9539 200 200z" />
    <glyph glyph-name="file-xls-1"
      unicode="&#x66;&#x69;&#x6C;&#x65;&#x2D;&#x78;&#x6C;&#x73;"
      horiz-adv-x="280" d="M180 240V199.9994C180 177.907 197.91 159.999 220 159.999H260V60C260 48.954 251.046 40 240 40H40C28.9543 40 20 48.954 20 60V220C20 231.0457 28.9543 240 40 240zM184.776 140C169.47 140 158.69 129.199 158.69 116.024C158.69 105.0254 165.079456 98.063934 172.488252 94.684669L172.811 94.54L181.543 90.504C182.069 90.272 182.577 90.052 183.066 89.839C188.075 87.663 191.028 86.379 191.028 83.027C191.028 79.585 188.657 77.567 183.052 77.567C179.31 77.567 175.005 79.18 171.033 81.734C168.561611 83.323583 165.342556 83.060543 163.437063 80.752817L163.277 80.55L159.413 75.426C157.564 72.975 157.786 69.315 160.189 67.539C167.082 62.446 175.295 60 182.621 60C200.083 60 210 71.632 210 84.688C210 95.211552 205.188896 101.818683 196.698459 105.644032L196.31 105.816L187.795 109.496C187.197 109.752 186.62 109.996 186.066 110.23C180.721 112.492 177.446 113.877 177.446 117.211C177.446 120.653 180.249 122.433 184.776 122.433C188.328 122.433 191.372 121.538 194.466 119.787C196.931486 118.391057 199.997148 118.751291 201.799312 121.026291L201.955 121.232L205.036 125.493C206.755 127.869 206.59 131.34 204.346 133.107C198.43 137.768 191.3139999999999 140 184.776 140zM54.6407 138.576H46.4621C42.4081 138.576 39.8054 133.833 41.6907 129.881L54.1177 103.832C54.9432 102.102 54.942 100.035 54.1145 98.306L40.6288 70.126C38.7376 66.174 41.3401 61.424 45.397 61.424H52.6961C54.8767 61.424 56.8425 62.871 57.6762 65.09L61.4728 75.193C62.9575 79.163 64.4422 83.134 65.9269 87.782C65.9708 87.919 66.0886 88.012 66.2208 88.012C66.3479 88.012 66.4624 87.926 66.5097 87.796C68.2019 83.142 69.6913 79.167 71.3898 75.193L75.5673 64.931C76.436 62.798 78.3617 61.424 80.4854 61.424H88.6566C92.7374 61.424 95.3379 66.224 93.3992 70.1779999999999L80.0666 97.3719999999999C79.2234 99.0909999999999 79.2032 101.1579999999999 80.0125 102.8969999999999L92.5929 129.935C94.4304 133.884 91.8259 138.5759999999999 87.7962 138.5759999999999H80.5728C78.2974 138.5759999999999 76.2672 137.0019999999999 75.4993 134.644L72.6833 125.994C71.4102 122.489 69.9283 118.2949999999999 68.4431 113.411C68.4004 113.27 68.2809 113.175 68.1464 113.175C68.0214 113.175 67.9083 113.258 67.8591 113.384C67.1583 115.189 66.5136 116.899 65.9044 118.516C64.861 121.284 63.9213 123.777 62.9819 125.994L59.6185 134.916C58.7834 137.132 56.8191 138.576 54.6407 138.576zM119.669 138.576H111.908C108.932 138.576 106.519 135.919 106.519 132.641V67.359C106.519 64.081 108.932 61.424 111.908 61.424H146.186C149.163 61.424 151.576 64.081 151.576 67.359V72.582C151.576 75.859 149.163 78.516 146.186 78.516H130.449C127.472 78.516 125.059 81.173 125.059 84.451V132.641C125.059 135.919 122.646 138.576 119.669 138.576zM200 240L260 180H220C208.955 180 200 188.9539 200 200z" />
    <glyph glyph-name="file-xml"
      unicode="&#xF12D;"
      horiz-adv-x="280" d="M180 240V199.9994C180 177.907 197.91 159.999 220 159.999H260V60C260 48.954 251.046 40 240 40H40C28.9543 40 20 48.954 20 60V220C20 231.0457 28.9543 240 40 240zM54.9959 140H46.6188C42.4666 140 39.8007 135.082 41.7317 130.984L54.4601 103.974C55.3057 102.18 55.3044 100.036 54.4569 98.243L40.6441 69.023C38.7069 64.925 41.3726 60 45.5279 60H53.0041C55.2376 60 57.251 61.5 58.105 63.801L61.9937 74.277C63.5144 78.394 65.0352 82.511 66.5559 87.331C66.6008 87.473 66.7215 87.569 66.8568 87.569C66.9871 87.569 67.1044 87.48 67.1528 87.346C68.886 82.519 70.4115 78.398 72.1513 74.277L76.4301 63.637C77.3199 61.424 79.2923 60 81.4675 60H89.8369C94.0168 60 96.6803 64.977 94.6946 69.077L81.0386 97.275C80.175 99.058 80.1542 101.201 80.9831 103.004L93.8687 131.04C95.7508 135.135 93.0831 140 88.9556 140H81.5571C79.2265 140 77.147 138.368 76.3605 135.923L73.4762 126.954C72.1722 123.3200000000001 70.6543 118.971 69.1331 113.906C69.0893 113.7600000000001 68.9669 113.662 68.8292 113.662C68.7012 113.662 68.5853 113.7470000000001 68.5349 113.8780000000001C67.817 115.7500000000001 67.1566 117.524 66.5325 119.2000000000001C65.4638 122.0710000000001 64.5016 124.6550000000001 63.5394 126.954L60.0945 136.2050000000001C59.239 138.5030000000001 57.2271 140 54.9959 140zM124.598 140H113.653C110.604 140 108.132 137.245 108.132 133.846V66.154C108.132 62.755 110.604 60 113.653 60H119.615C122.663 60 125.135 62.755 125.135 66.154V83.631C125.135 90.679 123.971 100.971 123.086 108.797C122.964 109.88 122.847 110.916 122.739 111.889C122.721 112.048 122.832 112.185 122.976 112.185C123.078 112.185 123.17 112.111 123.202 112.003L128.889 92.985L136.384 70.531C137.188 68.121 139.251 66.523 141.558 66.523H144.043C146.349 66.523 148.413 68.121 149.217 70.531L156.712 92.985L162.618 112.005C162.651 112.112 162.742 112.185 162.844 112.185C162.988 112.185 163.1 112.047 163.083 111.888C162.975 110.915 162.858 109.8790000000001 162.735 108.797C161.85 100.971 160.686 90.679 160.686 83.631V66.154C160.686 62.755 163.158 60 166.207 60H172.39C175.439 60 177.91 62.755 177.91 66.154V133.846C177.91 137.245 175.439 140 172.39 140H161.499C159.159 140 157.074 138.356 156.294 135.897L147.217 107.262C146.488 104.825 145.826 102.239 145.158 99.627C144.631 97.57 144.1 95.495 143.529 93.465C143.49 93.326 143.373 93.231 143.242 93.231S142.994 93.326 142.955 93.465C142.384 95.495 141.853 97.569 141.327 99.626C140.658 102.237 139.996 104.825 139.267 107.262L129.778 135.974C128.978 138.393 126.911 140 124.598 140zM207.319 140H199.37C196.321 140 193.849 137.245 193.849 133.846V66.154C193.849 62.755 196.321 60 199.37 60H234.48C237.528 60 240.0000000000001 62.755 240.0000000000001 66.154V71.569C240.0000000000001 74.968 237.528 77.723 234.48 77.723H218.36C215.311 77.723 212.84 80.478 212.84 83.877V133.846C212.84 137.245 210.368 140 207.319 140zM220 180C208.955 180 200 188.9539 200 200V240L260 180z" />
    <glyph glyph-name="file-xml-1"
      unicode="&#x66;&#x69;&#x6C;&#x65;&#x2D;&#x78;&#x6D;&#x6C;"
      horiz-adv-x="280" d="M180 240V199.9994C180 177.907 197.91 159.999 220 159.999H260V60C260 48.954 251.046 40 240 40H40C28.9543 40 20 48.954 20 60V220C20 231.0457 28.9543 240 40 240zM54.9959 140H46.6188C42.4666 140 39.8007 135.082 41.7317 130.984L54.4601 103.974C55.3057 102.18 55.3044 100.036 54.4569 98.243L40.6441 69.023C38.7069 64.925 41.3726 60 45.5279 60H53.0041C55.2376 60 57.251 61.5 58.105 63.801L61.9937 74.277C63.5144 78.394 65.0352 82.511 66.5559 87.331C66.6008 87.473 66.7215 87.569 66.8568 87.569C66.9871 87.569 67.1044 87.48 67.1528 87.346C68.886 82.519 70.4115 78.398 72.1513 74.277L76.4301 63.637C77.3199 61.424 79.2923 60 81.4675 60H89.8369C94.0168 60 96.6803 64.977 94.6946 69.077L81.0386 97.275C80.175 99.058 80.1542 101.201 80.9831 103.004L93.8687 131.04C95.7508 135.135 93.0831 140 88.9556 140H81.5571C79.2265 140 77.147 138.368 76.3605 135.923L73.4762 126.954C72.1722 123.3200000000001 70.6543 118.971 69.1331 113.906C69.0893 113.7600000000001 68.9669 113.662 68.8292 113.662C68.7012 113.662 68.5853 113.7470000000001 68.5349 113.8780000000001C67.817 115.7500000000001 67.1566 117.524 66.5325 119.2000000000001C65.4638 122.0710000000001 64.5016 124.6550000000001 63.5394 126.954L60.0945 136.2050000000001C59.239 138.5030000000001 57.2271 140 54.9959 140zM124.598 140H113.653C110.604 140 108.132 137.245 108.132 133.846V66.154C108.132 62.755 110.604 60 113.653 60H119.615C122.663 60 125.135 62.755 125.135 66.154V83.631C125.135 90.679 123.971 100.971 123.086 108.797C122.964 109.88 122.847 110.916 122.739 111.889C122.721 112.048 122.832 112.185 122.976 112.185C123.078 112.185 123.17 112.111 123.202 112.003L128.889 92.985L136.384 70.531C137.188 68.121 139.251 66.523 141.558 66.523H144.043C146.349 66.523 148.413 68.121 149.217 70.531L156.712 92.985L162.618 112.005C162.651 112.112 162.742 112.185 162.844 112.185C162.988 112.185 163.1 112.047 163.083 111.888C162.975 110.915 162.858 109.8790000000001 162.735 108.797C161.85 100.971 160.686 90.679 160.686 83.631V66.154C160.686 62.755 163.158 60 166.207 60H172.39C175.439 60 177.91 62.755 177.91 66.154V133.846C177.91 137.245 175.439 140 172.39 140H161.499C159.159 140 157.074 138.356 156.294 135.897L147.217 107.262C146.488 104.825 145.826 102.239 145.158 99.627C144.631 97.57 144.1 95.495 143.529 93.465C143.49 93.326 143.373 93.231 143.242 93.231S142.994 93.326 142.955 93.465C142.384 95.495 141.853 97.569 141.327 99.626C140.658 102.237 139.996 104.825 139.267 107.262L129.778 135.974C128.978 138.393 126.911 140 124.598 140zM207.319 140H199.37C196.321 140 193.849 137.245 193.849 133.846V66.154C193.849 62.755 196.321 60 199.37 60H234.48C237.528 60 240.0000000000001 62.755 240.0000000000001 66.154V71.569C240.0000000000001 74.968 237.528 77.723 234.48 77.723H218.36C215.311 77.723 212.84 80.478 212.84 83.877V133.846C212.84 137.245 210.368 140 207.319 140zM220 180C208.955 180 200 188.9539 200 200V240L260 180z" />
    <glyph glyph-name="file"
      unicode="&#xF12E;"
      horiz-adv-x="280" d="M180 240V199.9994C180 177.907 197.91 159.999 220 159.999H260V60C260 48.954 251.046 40 240 40H40C28.9543 40 20 48.954 20 60V220C20 231.0457 28.9543 240 40 240zM200 240L260 180H220C208.955 180 200 188.9539 200 200z" />
    <glyph glyph-name="file-1"
      unicode="&#x66;&#x69;&#x6C;&#x65;"
      horiz-adv-x="280" d="M180 240V199.9994C180 177.907 197.91 159.999 220 159.999H260V60C260 48.954 251.046 40 240 40H40C28.9543 40 20 48.954 20 60V220C20 231.0457 28.9543 240 40 240zM200 240L260 180H220C208.955 180 200 188.9539 200 200z" />
    <glyph glyph-name="filter-arrows"
      unicode="&#xF12F;"
      horiz-adv-x="280" d="M205.773884 121.651554C222.116042 121.651554 230.300346 101.892897 218.744507 90.337299L152.969039 24.561831C145.805429 17.398462 134.191162 17.398462 127.027552 24.561831L61.2520605 90.337299C49.6963662 101.892897 57.8805568 121.651554 74.222804 121.651554zM152.968318 255.4365942L218.743786 189.6610062C230.299384 178.105408 222.115321 158.346992 205.773162 158.346992H74.2219865C57.879761 158.346992 49.6955487 178.105408 61.251243 189.6610062L127.026831 255.4365702C134.190441 262.6001273 145.804708 262.6001297 152.968318 255.4365942z" />
    <glyph glyph-name="filter-arrows-1"
      unicode="&#x66;&#x69;&#x6C;&#x74;&#x65;&#x72;&#x2D;&#x61;&#x72;&#x72;&#x6F;&#x77;&#x73;"
      horiz-adv-x="280" d="M205.773884 121.651554C222.116042 121.651554 230.300346 101.892897 218.744507 90.337299L152.969039 24.561831C145.805429 17.398462 134.191162 17.398462 127.027552 24.561831L61.2520605 90.337299C49.6963662 101.892897 57.8805568 121.651554 74.222804 121.651554zM152.968318 255.4365942L218.743786 189.6610062C230.299384 178.105408 222.115321 158.346992 205.773162 158.346992H74.2219865C57.879761 158.346992 49.6955487 178.105408 61.251243 189.6610062L127.026831 255.4365702C134.190441 262.6001273 145.804708 262.6001297 152.968318 255.4365942z" />
    <glyph glyph-name="filter"
      unicode="&#xF130;"
      horiz-adv-x="280" d="M160 85C165.523 85 170 80.523 170 75V45C170 39.477 165.523 35 160 35H120C114.477 35 110 39.477 110 45V75C110 80.523 114.477 85 120 85zM200 165C205.523 165 210 160.523 210 155V125C210 119.477 205.523 115 200 115H80C74.4772 115 70 119.477 70 125V155C70 160.523 74.4772 165 80 165zM250 245C255.523 245 260 240.5228 260 235V205C260 199.4772 255.523 195 250 195H30C24.4772 195 20 199.4772 20 205V235C20 240.5228 24.4772 245 30 245z" />
    <glyph glyph-name="filter-1"
      unicode="&#x66;&#x69;&#x6C;&#x74;&#x65;&#x72;"
      horiz-adv-x="280" d="M160 85C165.523 85 170 80.523 170 75V45C170 39.477 165.523 35 160 35H120C114.477 35 110 39.477 110 45V75C110 80.523 114.477 85 120 85zM200 165C205.523 165 210 160.523 210 155V125C210 119.477 205.523 115 200 115H80C74.4772 115 70 119.477 70 125V155C70 160.523 74.4772 165 80 165zM250 245C255.523 245 260 240.5228 260 235V205C260 199.4772 255.523 195 250 195H30C24.4772 195 20 199.4772 20 205V235C20 240.5228 24.4772 245 30 245z" />
    <glyph glyph-name="flows"
      unicode="&#xF131;"
      horiz-adv-x="280" d="M185.996 140.835C189.315 144.088 194.696 144.088 198.015 140.835L257.511 82.527C260.8300000000001 79.274 260.8300000000001 74 257.511 70.747L198.015 12.44C194.696 9.187 189.315 9.187 185.996 12.44L173.976 24.22C170.656 27.473 170.656 32.747 173.976 36L201.963 63.428H188.486C143.773 63.428 120.521 83.685 101.024 100.671L100.699 100.955C92.5998 108.01 85.1957 114.419 76.8373 119.416C90.3699 123.661 101.523 129.7359999999999 111.021 136.255C115.23 132.875 119.166 129.446 122.96 126.1409999999999L123.285 125.857C141.968 109.5819999999999 156.954 96.747 188.486 96.747H194.922L173.976 117.275C170.656 120.528 170.656 125.8019999999999 173.976 129.055zM185.995 277.5603C189.315 280.8132300000001 194.696 280.81324 198.015 277.5603L257.511 219.2527C260.8300000000001 215.9998 260.8300000000001 210.7257 257.511 207.4728L198.015 149.165C194.696 145.912 189.315 145.912 185.995 149.165L173.976 160.945C170.656 164.198 170.656 169.472 173.976 172.725L198.442 196.7027H188.486C156.954 196.7027 141.968 183.867 123.285 167.592L122.531 166.935C104.399 151.137 82.928 132.428 43.9973 130.065H20V163.384H35.498C67.0299 163.384 82.0161 176.22 100.699 192.4947L101.024 192.7782C120.521 209.7644 143.773 230.0213 188.486 230.0213H198.443L173.976 254.0005C170.656 257.2534 170.656 262.5275000000001 173.976 265.7804000000001z" />
    <glyph glyph-name="flows-1"
      unicode="&#x66;&#x6C;&#x6F;&#x77;&#x73;"
      horiz-adv-x="280" d="M185.996 140.835C189.315 144.088 194.696 144.088 198.015 140.835L257.511 82.527C260.8300000000001 79.274 260.8300000000001 74 257.511 70.747L198.015 12.44C194.696 9.187 189.315 9.187 185.996 12.44L173.976 24.22C170.656 27.473 170.656 32.747 173.976 36L201.963 63.428H188.486C143.773 63.428 120.521 83.685 101.024 100.671L100.699 100.955C92.5998 108.01 85.1957 114.419 76.8373 119.416C90.3699 123.661 101.523 129.7359999999999 111.021 136.255C115.23 132.875 119.166 129.446 122.96 126.1409999999999L123.285 125.857C141.968 109.5819999999999 156.954 96.747 188.486 96.747H194.922L173.976 117.275C170.656 120.528 170.656 125.8019999999999 173.976 129.055zM185.995 277.5603C189.315 280.8132300000001 194.696 280.81324 198.015 277.5603L257.511 219.2527C260.8300000000001 215.9998 260.8300000000001 210.7257 257.511 207.4728L198.015 149.165C194.696 145.912 189.315 145.912 185.995 149.165L173.976 160.945C170.656 164.198 170.656 169.472 173.976 172.725L198.442 196.7027H188.486C156.954 196.7027 141.968 183.867 123.285 167.592L122.531 166.935C104.399 151.137 82.928 132.428 43.9973 130.065H20V163.384H35.498C67.0299 163.384 82.0161 176.22 100.699 192.4947L101.024 192.7782C120.521 209.7644 143.773 230.0213 188.486 230.0213H198.443L173.976 254.0005C170.656 257.2534 170.656 262.5275000000001 173.976 265.7804000000001z" />
    <glyph glyph-name="folder-in"
      unicode="&#xF132;"
      horiz-adv-x="280" d="M135.229751 221.0942368C141.202103 221.0942368 146.916861 218.2416277 150.494548 213.461838L166.236371 192.4727414H244.945483C255.468653 192.4727414 264.02648 183.9053738 264.02648 173.391745V77.98676C264.02648 67.46359 255.468653 58.905763 244.945483 58.905763H92.2975078C81.774338 58.905763 73.2165109 67.46359 73.2165109 77.98676V119.646937H92.2975078V77.98676H244.955023L244.945483 173.391745H166.236371C160.264019 173.391745 154.54926 176.244354 150.971573 181.0241433L135.229751 202.0132399H92.2975078V160.353063H73.2165109V202.0132399C73.2165109 212.5268692 81.774338 221.0942368 92.2975078 221.0942368zM122.021289 187.7024922L168.621495 140.149538L122.170649 92.297508L108.130843 106.653117L130.833508 129.681906H15.9735202V150.169084H130.385429L108.280203 173.346883z" />
    <glyph glyph-name="folder-in-1"
      unicode="&#x66;&#x6F;&#x6C;&#x64;&#x65;&#x72;&#x2D;&#x69;&#x6E;"
      horiz-adv-x="280" d="M135.229751 221.0942368C141.202103 221.0942368 146.916861 218.2416277 150.494548 213.461838L166.236371 192.4727414H244.945483C255.468653 192.4727414 264.02648 183.9053738 264.02648 173.391745V77.98676C264.02648 67.46359 255.468653 58.905763 244.945483 58.905763H92.2975078C81.774338 58.905763 73.2165109 67.46359 73.2165109 77.98676V119.646937H92.2975078V77.98676H244.955023L244.945483 173.391745H166.236371C160.264019 173.391745 154.54926 176.244354 150.971573 181.0241433L135.229751 202.0132399H92.2975078V160.353063H73.2165109V202.0132399C73.2165109 212.5268692 81.774338 221.0942368 92.2975078 221.0942368zM122.021289 187.7024922L168.621495 140.149538L122.170649 92.297508L108.130843 106.653117L130.833508 129.681906H15.9735202V150.169084H130.385429L108.280203 173.346883z" />
    <glyph glyph-name="folder-out"
      unicode="&#xF133;"
      horiz-adv-x="280" d="M144.770249 221.0942368C150.742601 221.0942368 156.45736 218.2416277 160.035047 213.461838L175.776869 192.4727414H254.4859810000001C265.0091510000001 192.4727414 273.5669780000001 183.9053738 273.5669780000001 173.391745V77.98676C273.5669780000001 67.46359 265.0091510000001 58.905763 254.4859810000001 58.905763H101.8380060000001C91.3148364000001 58.905763 82.7570093000001 67.46359 82.7570093000001 77.98676V119.646937H101.8380060000001V77.98676H254.4955220000001L254.4859810000001 173.391745H175.776869C169.804517 173.391745 164.0897590000001 176.244354 160.5120720000001 181.0241433L144.770249 202.0132399H101.838006V160.353063H82.7570093V202.0132399C82.7570093 212.5268692 91.3148364 221.0942368 101.838006 221.0942368zM52.8838684 187.7024922L66.9236741 173.346883L44.2210095 150.318094H159.080997V129.830916H44.6690884L66.7743145 106.653117L53.033228 92.297508L6.43302181 139.850462z" />
    <glyph glyph-name="folder-out-1"
      unicode="&#x66;&#x6F;&#x6C;&#x64;&#x65;&#x72;&#x2D;&#x6F;&#x75;&#x74;"
      horiz-adv-x="280" d="M144.770249 221.0942368C150.742601 221.0942368 156.45736 218.2416277 160.035047 213.461838L175.776869 192.4727414H254.4859810000001C265.0091510000001 192.4727414 273.5669780000001 183.9053738 273.5669780000001 173.391745V77.98676C273.5669780000001 67.46359 265.0091510000001 58.905763 254.4859810000001 58.905763H101.8380060000001C91.3148364000001 58.905763 82.7570093000001 67.46359 82.7570093000001 77.98676V119.646937H101.8380060000001V77.98676H254.4955220000001L254.4859810000001 173.391745H175.776869C169.804517 173.391745 164.0897590000001 176.244354 160.5120720000001 181.0241433L144.770249 202.0132399H101.838006V160.353063H82.7570093V202.0132399C82.7570093 212.5268692 91.3148364 221.0942368 101.838006 221.0942368zM52.8838684 187.7024922L66.9236741 173.346883L44.2210095 150.318094H159.080997V129.830916H44.6690884L66.7743145 106.653117L53.033228 92.297508L6.43302181 139.850462z" />
    <glyph glyph-name="folder-plus"
      unicode="&#xF134;"
      horiz-adv-x="280" d="M106.608255 221.0942368C112.580607 221.0942368 118.295366 218.2416277 121.873053 213.461838L137.614875 192.4727414H216.323988C226.847157 192.4727414 235.404984 183.9053738 235.404984 173.391745V77.98676C235.404984 67.46359 226.847157 58.905763 216.323988 58.905763H63.6760125C53.1528427 58.905763 44.5950156 67.46359 44.5950156 77.98676V202.0132399C44.5950156 212.5268692 53.1528427 221.0942368 63.6760125 221.0942368zM106.608255 202.0132399H63.6760125V77.98676H216.333528L216.323988 173.391745H137.614875C131.642523 173.391745 125.927765 176.244354 122.350078 181.0241433zM149.545269 164.423676V135.802181H178.166764V116.721184H149.545269V88.099688H130.464272V116.721184H101.842776V135.802181H130.464272V164.423676z" />
    <glyph glyph-name="folder-plus-1"
      unicode="&#x66;&#x6F;&#x6C;&#x64;&#x65;&#x72;&#x2D;&#x70;&#x6C;&#x75;&#x73;"
      horiz-adv-x="280" d="M106.608255 221.0942368C112.580607 221.0942368 118.295366 218.2416277 121.873053 213.461838L137.614875 192.4727414H216.323988C226.847157 192.4727414 235.404984 183.9053738 235.404984 173.391745V77.98676C235.404984 67.46359 226.847157 58.905763 216.323988 58.905763H63.6760125C53.1528427 58.905763 44.5950156 67.46359 44.5950156 77.98676V202.0132399C44.5950156 212.5268692 53.1528427 221.0942368 63.6760125 221.0942368zM106.608255 202.0132399H63.6760125V77.98676H216.333528L216.323988 173.391745H137.614875C131.642523 173.391745 125.927765 176.244354 122.350078 181.0241433zM149.545269 164.423676V135.802181H178.166764V116.721184H149.545269V88.099688H130.464272V116.721184H101.842776V135.802181H130.464272V164.423676z" />
    <glyph glyph-name="folder-public"
      unicode="&#xF135;"
      horiz-adv-x="280" d="M212.531241 152.738494C247.692106 152.738494 276.297772 124.132828 276.297772 88.971963C276.297772 53.804721 247.692106 25.205431 212.531241 25.205431C177.370375 25.205431 148.7647090000001 53.804721 148.7647090000001 88.971963C148.7647090000001 124.132828 177.370375 152.738494 212.531241 152.738494zM212.504361 139.985188C198.730085 139.985188 186.212831 134.496809 177.024734 125.59219C177.162926 125.375008 177.30339 125.158079 177.444041 124.940989L177.864473 124.288817C178.767589 122.872925 179.590516 121.432637 179.760545 119.853804C180.40488 113.870728 178.569829 114.366305 176.902464 109.041207C175.879349 105.773665 178.967056 97.049891 181.152511 94.097882C181.326563 93.862781 183.265756 91.351129 185.187325 88.926208L185.613326 88.389724C187.2396620000001 86.346043 188.757382 84.492328 189.064475 84.28944C189.975917 83.687274 191.188439 83.63564 192.129834 83.07826C193.367577 82.345418 194.322503 81.224972 195.537287 80.457024C197.792415 79.031404 205.93417 76.472687 206.860074 75.204772C207.132639 74.831526 206.964923 74.27942 206.860074 73.83384C206.595768 72.71061 205.630852 71.930669 204.579318 71.131405L204.277053 70.902205C204.22646 70.863813 204.175803 70.825298 204.125148 70.786623L203.821779 70.552321L203.521652 70.31227C201.935279 69.013319 200.62301 67.38884 201.757321 64.155807C202.451724 62.176607 204.509075 61.411533 206.665623 60.674244L207.145975 60.510378C210.03172 59.524135 212.927395 58.431063 212.83744 54.419091C212.783035 51.992653 209.535384 49.244378 209.354154 45.261067C209.329748 44.724636 209.093216 40.577435 210.523675 40.051199C211.384523 39.73451 212.339444 40.408653 213.19133 40.747261C213.414153 40.835828 213.439201 41.170032 213.644646 41.291721C221.760417 46.098868 217.260074 42.825492 225.855527 53.3318C228.710077 56.820944 232.3503570000001 58.950964 235.7745510000001 61.741597C235.8529800000001 61.805515 242.2196670000001 67.512063 240.1661550000001 69.130939C237.9574570000001 70.872155 228.2709440000001 73.803604 226.8632710000001 74.410903C225.9230910000001 74.816515 225.073316 75.313381 224.236317 75.818281L223.400702 76.322776C222.145041 77.0742899999999 220.859904 77.7814669999999 219.283289 78.163443C218.351039 78.389305 218.003707 78.152981 217.640333 77.845562L217.530238 77.751595C216.95272 77.259117 216.1922800000001 76.689791 213.011015 77.499983C211.484489 77.888753 207.693584 81.647167 206.839852 82.269719C204.708351 83.824036 198.648475 84.5617909999999 198.110571 86.42816C196.179383 93.128818 206.680602 91.861933 209.785562 92.409076C210.48865 92.532971 211.07106 93.043309 211.612308 93.494737C214.340009 95.769782 211.42802 98.517734 215.498354 102.034944C219.211561 105.243558 230.745685 109.158204 232.279469 113.579466C232.603835 114.51448 232.415499 115.578084 232.174987 116.536507C230.894187 121.640411 225.610446 126.24658 220.130939 125.181042C219.647162 125.086967 219.374783 124.533431 219.150159 124.108422C218.318765 122.535348 218.026881 120.691868 216.989747 119.237618C214.65495 115.963811 211.678054 117.705003 209.340928 120.180801L209.069001 120.475202C207.63529 122.060665 206.473244 123.869253 205.899516 124.843607C204.428837 127.341237 204.962744 129.060088 207.830743 130.443074C209.132367 131.070734 210.974525 131.600017 212.861697 132.220182L213.401685 132.400009C217.274246 133.708831 221.137668 135.47427 220.737826 139.321134C218.056999 139.7580199999999 215.306694 139.9851879999999 212.504361 139.9851879999999zM106.608255 221.0942368C112.580607 221.0942368 118.295366 218.2416277 121.873053 213.461838L137.614875 192.4727414H216.323988C226.847157 192.4727414 235.404984 183.9053738 235.404984 173.391745L235.40594 162.086779C229.679905 164.003108 223.327101 165.094827 216.326261 165.240499L216.323988 173.391745H137.614875C131.642523 173.391745 125.927765 176.244354 122.350078 181.0241433L106.608255 202.0132399H63.6760125V77.98676L137.120464 77.985299C138.022931 70.75215 140.047575 64.423521 143.02559 58.904215L63.6760125 58.905763C53.1528427 58.905763 44.5950156 67.46359 44.5950156 77.98676V202.0132399C44.5950156 212.5268692 53.1528427 221.0942368 63.6760125 221.0942368zM260.098669 107.190972C256.933504 106.123016 252.591208 104.114645 254.280882 101.522877C254.991252 100.433251 257.963227 99.99839 257.343736 98.867859L257.733936 97.944058C256.35907 95.435018 253.40778 95.39281 251.087961 93.721489C248.326598 91.732056 248.271799 89.559295 248.398523 86.571126C248.57415 82.429772 251.729914 78.136988 254.530525 75.06908C256.141298 73.304571 257.976737 71.697156 259.863896 70.149173C262.184959 75.975446 263.461741 82.326648 263.461741 88.970274C263.461741 95.386389 262.270909 101.529763 260.098669 107.190972zM233.786751 135.430436C233.812193 134.642317 233.854373 133.855304 233.935445 133.070859C234.199628 130.514648 234.670948 125.46499 237.309194 123.56562C240.150919 121.519757 244.669789 124.325525 246.519385 127.091331C242.736901 130.468043 238.449741 133.290694 233.786751 135.430436z" />
    <glyph glyph-name="folder-public-1"
      unicode="&#x66;&#x6F;&#x6C;&#x64;&#x65;&#x72;&#x2D;&#x70;&#x75;&#x62;&#x6C;&#x69;&#x63;"
      horiz-adv-x="280" d="M212.531241 152.738494C247.692106 152.738494 276.297772 124.132828 276.297772 88.971963C276.297772 53.804721 247.692106 25.205431 212.531241 25.205431C177.370375 25.205431 148.7647090000001 53.804721 148.7647090000001 88.971963C148.7647090000001 124.132828 177.370375 152.738494 212.531241 152.738494zM212.504361 139.985188C198.730085 139.985188 186.212831 134.496809 177.024734 125.59219C177.162926 125.375008 177.30339 125.158079 177.444041 124.940989L177.864473 124.288817C178.767589 122.872925 179.590516 121.432637 179.760545 119.853804C180.40488 113.870728 178.569829 114.366305 176.902464 109.041207C175.879349 105.773665 178.967056 97.049891 181.152511 94.097882C181.326563 93.862781 183.265756 91.351129 185.187325 88.926208L185.613326 88.389724C187.2396620000001 86.346043 188.757382 84.492328 189.064475 84.28944C189.975917 83.687274 191.188439 83.63564 192.129834 83.07826C193.367577 82.345418 194.322503 81.224972 195.537287 80.457024C197.792415 79.031404 205.93417 76.472687 206.860074 75.204772C207.132639 74.831526 206.964923 74.27942 206.860074 73.83384C206.595768 72.71061 205.630852 71.930669 204.579318 71.131405L204.277053 70.902205C204.22646 70.863813 204.175803 70.825298 204.125148 70.786623L203.821779 70.552321L203.521652 70.31227C201.935279 69.013319 200.62301 67.38884 201.757321 64.155807C202.451724 62.176607 204.509075 61.411533 206.665623 60.674244L207.145975 60.510378C210.03172 59.524135 212.927395 58.431063 212.83744 54.419091C212.783035 51.992653 209.535384 49.244378 209.354154 45.261067C209.329748 44.724636 209.093216 40.577435 210.523675 40.051199C211.384523 39.73451 212.339444 40.408653 213.19133 40.747261C213.414153 40.835828 213.439201 41.170032 213.644646 41.291721C221.760417 46.098868 217.260074 42.825492 225.855527 53.3318C228.710077 56.820944 232.3503570000001 58.950964 235.7745510000001 61.741597C235.8529800000001 61.805515 242.2196670000001 67.512063 240.1661550000001 69.130939C237.9574570000001 70.872155 228.2709440000001 73.803604 226.8632710000001 74.410903C225.9230910000001 74.816515 225.073316 75.313381 224.236317 75.818281L223.400702 76.322776C222.145041 77.0742899999999 220.859904 77.7814669999999 219.283289 78.163443C218.351039 78.389305 218.003707 78.152981 217.640333 77.845562L217.530238 77.751595C216.95272 77.259117 216.1922800000001 76.689791 213.011015 77.499983C211.484489 77.888753 207.693584 81.647167 206.839852 82.269719C204.708351 83.824036 198.648475 84.5617909999999 198.110571 86.42816C196.179383 93.128818 206.680602 91.861933 209.785562 92.409076C210.48865 92.532971 211.07106 93.043309 211.612308 93.494737C214.340009 95.769782 211.42802 98.517734 215.498354 102.034944C219.211561 105.243558 230.745685 109.158204 232.279469 113.579466C232.603835 114.51448 232.415499 115.578084 232.174987 116.536507C230.894187 121.640411 225.610446 126.24658 220.130939 125.181042C219.647162 125.086967 219.374783 124.533431 219.150159 124.108422C218.318765 122.535348 218.026881 120.691868 216.989747 119.237618C214.65495 115.963811 211.678054 117.705003 209.340928 120.180801L209.069001 120.475202C207.63529 122.060665 206.473244 123.869253 205.899516 124.843607C204.428837 127.341237 204.962744 129.060088 207.830743 130.443074C209.132367 131.070734 210.974525 131.600017 212.861697 132.220182L213.401685 132.400009C217.274246 133.708831 221.137668 135.47427 220.737826 139.321134C218.056999 139.7580199999999 215.306694 139.9851879999999 212.504361 139.9851879999999zM106.608255 221.0942368C112.580607 221.0942368 118.295366 218.2416277 121.873053 213.461838L137.614875 192.4727414H216.323988C226.847157 192.4727414 235.404984 183.9053738 235.404984 173.391745L235.40594 162.086779C229.679905 164.003108 223.327101 165.094827 216.326261 165.240499L216.323988 173.391745H137.614875C131.642523 173.391745 125.927765 176.244354 122.350078 181.0241433L106.608255 202.0132399H63.6760125V77.98676L137.120464 77.985299C138.022931 70.75215 140.047575 64.423521 143.02559 58.904215L63.6760125 58.905763C53.1528427 58.905763 44.5950156 67.46359 44.5950156 77.98676V202.0132399C44.5950156 212.5268692 53.1528427 221.0942368 63.6760125 221.0942368zM260.098669 107.190972C256.933504 106.123016 252.591208 104.114645 254.280882 101.522877C254.991252 100.433251 257.963227 99.99839 257.343736 98.867859L257.733936 97.944058C256.35907 95.435018 253.40778 95.39281 251.087961 93.721489C248.326598 91.732056 248.271799 89.559295 248.398523 86.571126C248.57415 82.429772 251.729914 78.136988 254.530525 75.06908C256.141298 73.304571 257.976737 71.697156 259.863896 70.149173C262.184959 75.975446 263.461741 82.326648 263.461741 88.970274C263.461741 95.386389 262.270909 101.529763 260.098669 107.190972zM233.786751 135.430436C233.812193 134.642317 233.854373 133.855304 233.935445 133.070859C234.199628 130.514648 234.670948 125.46499 237.309194 123.56562C240.150919 121.519757 244.669789 124.325525 246.519385 127.091331C242.736901 130.468043 238.449741 133.290694 233.786751 135.430436z" />
    </font>
</defs>
</svg>
