<?xml version="1.0" encoding="UTF-8"?>
<svg width="48px" height="48px" viewBox="0 0 48 48" version="1.1" xmlns="http://www.w3.org/2000/svg" xmlns:xlink="http://www.w3.org/1999/xlink">
    <title>collecting-data</title>
    <g id="Page-1" stroke="none" stroke-width="1" fill="none" fill-rule="evenodd">
        <g id="KoBo-Toolbox-data-Copy-9" transform="translate(-174.000000, -978.000000)">
            <g id="collecting-data" transform="translate(174.000000, 978.000000)">
                <circle id="Oval-Copy-3" fill-opacity="0.2" fill="#CFD5E3" cx="24" cy="24" r="24"></circle>
                <g id="Fill-30-+-Fill-31-+-Fill-32" transform="translate(14.000000, 11.000000)" fill="#2195F3">
                    <path d="M18.0015,16 L8.0005,16 L8.0005,2 L14.0005,2 L14.0005,6 L18.0005,6 L18.0015,16 Z M15.4145,0 L8.0005,0 C6.8975,0 6.0005,0.898 6.0005,2 L6.0005,16 C6.0005,17.103 6.8975,18 8.0005,18 L18.0005,18 C19.1035,18 20.0005,17.103 20.0005,16 L20.0005,4.586 L15.4145,0 Z" id="Fill-30"></path>
                    <path d="M5,3 L3,3 L3,19 C3,20.103 3.897,21 5,21 L17,21 L17,19 L5,19 L5,3 Z" id="Fill-31"></path>
                    <path d="M2,6 L0,6 L0,22 C0,23.103 0.897,24 2,24 L14,24 L14,22 L2,22 L2,6 Z" id="Fill-32"></path>
                </g>
            </g>
        </g>
    </g>
</svg>