<?xml version="1.0" encoding="UTF-8"?>
<svg width="48px" height="48px" viewBox="0 0 48 48" version="1.1" xmlns="http://www.w3.org/2000/svg" xmlns:xlink="http://www.w3.org/1999/xlink">
    <title>creating-forms</title>
    <g id="Page-1" stroke="none" stroke-width="1" fill="none" fill-rule="evenodd">
        <g id="KoBo-Toolbox-data-Copy-9" transform="translate(-958.000000, -610.000000)">
            <g id="creating-forms" transform="translate(958.000000, 610.000000)">
                <circle id="Oval-Copy-2" fill-opacity="0.2" fill="#CFD5E3" cx="24" cy="24" r="24"></circle>
                <g id="Group" transform="translate(14.000000, 12.000000)" fill="#2195F3">
                    <polygon id="Fill-90" points="12 9 4 9 4 11 12 11"></polygon>
                    <polygon id="Fill-91" points="4 15 10 15 10 13 4 13"></polygon>
                    <path d="M2,2 L12,2 L12,6 L16,6 L16,9 L18,9 L18,4.586 L13.414,0 L2,0 C0.897,0 0,0.898 0,2 L0,20 C0,21.103 0.897,22 2,22 L9,22 L9,20 L2,20 L2,2 Z" id="Fill-92"></path>
                    <path d="M20,16.5859 L18.414,14.9999 L20,13.4139 L21.586,14.9999 L20,16.5859 Z M15.489,21.0969 L13.375,21.6259 L13.903,19.5109 L17,16.4139 L18.586,17.9999 L15.489,21.0969 Z M23.707,14.2929 L20.707,11.2929 C20.316,10.9019 19.684,10.9019 19.293,11.2929 L12.293,18.2929 C12.165,18.4209 12.074,18.5819 12.03,18.7569 L11.03,22.7569 C10.945,23.0979 11.044,23.4589 11.293,23.7069 C11.549,23.9629 11.913,24.0529 12.243,23.9709 L16.243,22.9709 C16.418,22.9269 16.579,22.8359 16.707,22.7069 L23.707,15.7069 C24.098,15.3159 24.098,14.6839 23.707,14.2929 L23.707,14.2929 Z" id="Fill-93"></path>
                </g>
            </g>
        </g>
    </g>
</svg>