<?xml version="1.0" encoding="UTF-8"?>
<svg width="48px" height="48px" viewBox="0 0 48 48" version="1.1" xmlns="http://www.w3.org/2000/svg" xmlns:xlink="http://www.w3.org/1999/xlink">
    <title>getting-started</title>
    <g id="Page-1" stroke="none" stroke-width="1" fill="none" fill-rule="evenodd">
        <g id="KoBo-Toolbox-data-Copy-9" transform="translate(-174.000000, -610.000000)">
            <g id="getting-started" transform="translate(174.000000, 610.000000)">
                <circle id="Oval" fill-opacity="0.2" fill="#CFD5E3" cx="24" cy="24" r="24"></circle>
                <g id="Fill-2240" transform="translate(15.000000, 13.000000)" fill="#2195F3">
                    <path d="M3.33351851,4.4 L16.2064943,4.4 L17.3175745,5.5 L16.2064943,6.6 L3.33351851,6.6 L3.33351851,4.4 Z M16.6664815,13.2 L16.6664815,15.4 L3.79350574,15.4 L2.68242549,14.3 L3.79350574,13.2 L16.6664815,13.2 Z M16.6664815,8.8 C16.9609178,8.8 17.2442432,8.6845 17.4520152,8.4777 L19.6741757,6.2777 C20.1086081,5.8476 20.1086081,5.1524 19.6741757,4.7223 L17.4520152,2.5223 C17.2442432,2.3155 16.9609178,2.2 16.6664815,2.2 L11.1110802,2.2 L11.1110802,0 L8.88891975,0 L8.88891975,2.2 L2.22243827,2.2 C1.60912197,2.2 1.11135802,2.6928 1.11135802,3.3 L1.11135802,7.7 C1.11135802,8.3072 1.60912197,8.8 2.22243827,8.8 L8.88891975,8.8 L8.88891975,11 L3.33351851,11 C3.03908225,11 2.75575678,11.1155 2.54798478,11.3223 L0.325824283,13.5223 C-0.108608094,13.9524 -0.108608094,14.6476 0.325824283,15.0777 L2.54798478,17.2777 C2.75575678,17.4845 3.03908225,17.6 3.33351851,17.6 L8.88891975,17.6 L8.88891975,22 L11.1110802,22 L11.1110802,17.6 L17.7775617,17.6 C18.390878,17.6 18.888642,17.1072 18.888642,16.5 L18.888642,12.1 C18.888642,11.4928 18.390878,11 17.7775617,11 L11.1110802,11 L11.1110802,8.8 L16.6664815,8.8 Z"></path>
                </g>
            </g>
        </g>
    </g>
</svg>