<svg height="30" viewBox="0 0 30 30" width="30" xmlns="http://www.w3.org/2000/svg"><path d="m12.1784138 21.3122241c-2.43872739 0-4.73283609-.9499163-6.45760394-2.6746841-1.72629015-1.7247679-2.67620642-4.0188766-2.67620642-6.4591262 0-2.43872739.94991627-4.73283609 2.67620642-6.45760394 1.72476785-1.72629015 4.01887655-2.67620642 6.45760394-2.67620642 2.4387273 0 4.732836.94991627 6.4576039 2.67620642 1.7262901 1.72476785 2.6762064 4.01887655 2.6762064 6.45760394 0 2.4402496-.9499163 4.7343583-2.6762064 6.4591262-1.7247679 1.7247678-4.0188766 2.6746841-6.4576039 2.6746841zm17.8215862 6.5352413-8.2082509-8.2097732c1.6562643-2.1251332 2.5650784-4.7206576 2.5650784-7.4592784 0-3.25315881-1.2680773-6.31146297-3.5682752-8.61013857-2.2986756-2.3017202-5.3569798-3.56827523-8.6101385-3.56827523-3.25315881 0-6.31146297 1.26655503-8.61013857 3.56827523-2.3001979 2.2986756-3.56827523 5.35697976-3.56827523 8.61013857 0 3.2531587 1.26807733 6.3114629 3.56827523 8.6101385 2.2986756 2.3017202 5.35697976 3.5682752 8.61013857 3.5682752 2.7386208 0 5.3341452-.9072918 7.4592784-2.5666007l8.2097732 8.2097732z"/></svg>