<?xml version="1.0" standalone="no"?>
<!DOCTYPE svg PUBLIC "-//W3C//DTD SVG 1.1//EN" "http://www.w3.org/Graphics/SVG/1.1/DTD/svg11.dtd" >
<svg xmlns="http://www.w3.org/2000/svg">
<defs>
  <font id="k-icons" horiz-adv-x="642">
    <font-face font-family="k-icons"
      units-per-em="642" ascent="0"
      descent="0"
      font-weight="normal"
      font-style="normal" />
    <missing-glyph horiz-adv-x="0" />
    <glyph glyph-name="alert"
      unicode="&#xF101;"
      horiz-adv-x="642" d="M321 596C472.877917 596 596 472.878375 596 321C596 169.122083 472.877917 46 321 46C169.121625 46 46 169.122083 46 321C46 472.878375 169.121625 596 321 596zM321 229.333333C295.68625 229.333333 275.166667 208.81375 275.166667 183.5S295.6862500000001 137.666667 321 137.666667S366.833333 158.18625 366.833333 183.5S346.31375 229.333333 321 229.333333zM343.916667 504.333333H298.0833330000001C285.4264580000001 504.333333 275.166667 494.073083 275.166667 481.416667V298.083333C275.166667 285.426458 285.4264580000001 275.166667 298.0833330000001 275.166667H343.916667C356.5735420000001 275.166667 366.8333330000001 285.426458 366.8333330000001 298.083333V481.416667C366.8333330000001 494.073083 356.5735420000001 504.333333 343.916667 504.333333z" />
    <glyph glyph-name="alert-1"
      unicode="&#x61;&#x6C;&#x65;&#x72;&#x74;"
      horiz-adv-x="642" d="M321 596C472.877917 596 596 472.878375 596 321C596 169.122083 472.877917 46 321 46C169.121625 46 46 169.122083 46 321C46 472.878375 169.121625 596 321 596zM321 229.333333C295.68625 229.333333 275.166667 208.81375 275.166667 183.5S295.6862500000001 137.666667 321 137.666667S366.833333 158.18625 366.833333 183.5S346.31375 229.333333 321 229.333333zM343.916667 504.333333H298.0833330000001C285.4264580000001 504.333333 275.166667 494.073083 275.166667 481.416667V298.083333C275.166667 285.426458 285.4264580000001 275.166667 298.0833330000001 275.166667H343.916667C356.5735420000001 275.166667 366.8333330000001 285.426458 366.8333330000001 298.083333V481.416667C366.8333330000001 494.073083 356.5735420000001 504.333333 343.916667 504.333333z" />
    <glyph glyph-name="archived"
      unicode="&#xF102;"
      horiz-adv-x="642" d="M229.4 412.6V343.9C229.4 331.25233 239.65233 321 252.3 321H389.7000000000001C402.3476700000001 321 412.6 331.2523300000001 412.6 343.9V412.6H550V114.9C550 102.25233 539.74767 92 527.1 92H114.9C102.252788 92 92 102.25233 92 114.9V412.6zM550 550C562.64767 550 572.9 539.747212 572.9 527.1V481.3C572.9 468.652788 562.64767 458.4 550 458.4H92C79.352788 458.4 69.1 468.652788 69.1 481.3V527.1C69.1 539.747212 79.352788 550 92 550z" />
    <glyph glyph-name="archived-1"
      unicode="&#x61;&#x72;&#x63;&#x68;&#x69;&#x76;&#x65;&#x64;"
      horiz-adv-x="642" d="M229.4 412.6V343.9C229.4 331.25233 239.65233 321 252.3 321H389.7000000000001C402.3476700000001 321 412.6 331.2523300000001 412.6 343.9V412.6H550V114.9C550 102.25233 539.74767 92 527.1 92H114.9C102.252788 92 92 102.25233 92 114.9V412.6zM550 550C562.64767 550 572.9 539.747212 572.9 527.1V481.3C572.9 468.652788 562.64767 458.4 550 458.4H92C79.352788 458.4 69.1 468.652788 69.1 481.3V527.1C69.1 539.747212 79.352788 550 92 550z" />
    <glyph glyph-name="arrow-down-left"
      unicode="&#xF103;"
      horiz-adv-x="642" d="M94.3951521 149.340087L94.3396103 406.815292C94.3396103 421.984515 106.630083 434.278064 121.799306 434.274987L163.974341 434.265919C179.143563 434.262843 191.443104 421.963302 191.446181 406.79408L191.47889 256.249596L482.927655 547.6983612C491.870597 556.6413028000001 506.369925 556.6416267 515.31319 547.6983612L547.698726 515.3128260000001C556.641991 506.369561 556.641667 491.870233 547.698726 482.927291L256.24996 191.4785260000001L406.79412 191.4461400000001C421.963505 191.4429010000001 434.263531 179.1428750000001 434.26677 163.9734910000001L434.2748660000001 121.799428C434.2781040000001 106.630043 421.9845550000001 94.339732 406.815171 94.339732L149.340451 94.3947880000001C119.003301 94.4028840000001 94.4032484 119.0029370000001 94.3951521 149.3400870000001z" />
    <glyph glyph-name="arrow-down-left-1"
      unicode="&#x61;&#x72;&#x72;&#x6F;&#x77;&#x2D;&#x64;&#x6F;&#x77;&#x6E;&#x2D;&#x6C;&#x65;&#x66;&#x74;"
      horiz-adv-x="642" d="M94.3951521 149.340087L94.3396103 406.815292C94.3396103 421.984515 106.630083 434.278064 121.799306 434.274987L163.974341 434.265919C179.143563 434.262843 191.443104 421.963302 191.446181 406.79408L191.47889 256.249596L482.927655 547.6983612C491.870597 556.6413028000001 506.369925 556.6416267 515.31319 547.6983612L547.698726 515.3128260000001C556.641991 506.369561 556.641667 491.870233 547.698726 482.927291L256.24996 191.4785260000001L406.79412 191.4461400000001C421.963505 191.4429010000001 434.263531 179.1428750000001 434.26677 163.9734910000001L434.2748660000001 121.799428C434.2781040000001 106.630043 421.9845550000001 94.339732 406.815171 94.339732L149.340451 94.3947880000001C119.003301 94.4028840000001 94.4032484 119.0029370000001 94.3951521 149.3400870000001z" />
    <glyph glyph-name="arrow-down-right"
      unicode="&#xF104;"
      horiz-adv-x="642" d="M492.659913 94.3951520000001L235.184708 94.3396100000001C220.015485 94.3396100000001 207.721936 106.6300830000001 207.725013 121.7993060000001L207.734081 163.9743410000001C207.737157 179.1435630000001 220.036698 191.4431040000001 235.20592 191.4461810000001L385.750404 191.4788900000001L94.3016388 482.9276550000001C85.3586972 491.8705970000001 85.3583733 506.3699250000001 94.3016388 515.3131900000001L126.687174 547.6987255000001C135.630439 556.6419910000001 150.129767 556.6416672 159.072709 547.6987255000001L450.521474 256.2499600000001L450.5538599999999 406.7941200000002C450.5570989999999 421.9635050000001 462.8571249999999 434.2635310000001 478.0265089999999 434.2667700000001L520.200572 434.2748660000001C535.369957 434.2781040000001 547.660268 421.9845550000001 547.660268 406.8151710000001L547.6052119999999 149.3404510000002C547.5971159999999 119.0033010000002 522.9970629999999 94.4032480000002 492.659913 94.3951520000002z" />
    <glyph glyph-name="arrow-down-right-1"
      unicode="&#x61;&#x72;&#x72;&#x6F;&#x77;&#x2D;&#x64;&#x6F;&#x77;&#x6E;&#x2D;&#x72;&#x69;&#x67;&#x68;&#x74;"
      horiz-adv-x="642" d="M492.659913 94.3951520000001L235.184708 94.3396100000001C220.015485 94.3396100000001 207.721936 106.6300830000001 207.725013 121.7993060000001L207.734081 163.9743410000001C207.737157 179.1435630000001 220.036698 191.4431040000001 235.20592 191.4461810000001L385.750404 191.4788900000001L94.3016388 482.9276550000001C85.3586972 491.8705970000001 85.3583733 506.3699250000001 94.3016388 515.3131900000001L126.687174 547.6987255000001C135.630439 556.6419910000001 150.129767 556.6416672 159.072709 547.6987255000001L450.521474 256.2499600000001L450.5538599999999 406.7941200000002C450.5570989999999 421.9635050000001 462.8571249999999 434.2635310000001 478.0265089999999 434.2667700000001L520.200572 434.2748660000001C535.369957 434.2781040000001 547.660268 421.9845550000001 547.660268 406.8151710000001L547.6052119999999 149.3404510000002C547.5971159999999 119.0033010000002 522.9970629999999 94.4032480000002 492.659913 94.3951520000002z" />
    <glyph glyph-name="arrow-down"
      unicode="&#xF105;"
      horiz-adv-x="642" d="M282.148064 39.384287L100.046327 221.407477C89.3178911 232.131562 89.3178911 249.517265 100.046327 260.24135L129.874992 290.057191C140.603428 300.781276 157.997604 300.781276 168.72604 290.057191L275.200195 183.629295V595.8000916C275.200195 608.447321 285.452539 618.7001230999999 298.100226 618.7001230999999H343.900289C356.547977 618.7001230999999 366.800321 608.447321 366.800321 595.8000916V183.629295L473.274017 290.057191C484.002682 300.781276 501.397546 300.781276 512.12621 290.057191L541.953501 260.24135C552.6821659999999 249.517265 552.6821659999999 232.1315620000001 541.953501 221.407477L359.852451 39.3842870000001C338.395122 17.9384070000001 303.605394 17.9384070000001 282.148064 39.3842870000001z" />
    <glyph glyph-name="arrow-down-1"
      unicode="&#x61;&#x72;&#x72;&#x6F;&#x77;&#x2D;&#x64;&#x6F;&#x77;&#x6E;"
      horiz-adv-x="642" d="M282.148064 39.384287L100.046327 221.407477C89.3178911 232.131562 89.3178911 249.517265 100.046327 260.24135L129.874992 290.057191C140.603428 300.781276 157.997604 300.781276 168.72604 290.057191L275.200195 183.629295V595.8000916C275.200195 608.447321 285.452539 618.7001230999999 298.100226 618.7001230999999H343.900289C356.547977 618.7001230999999 366.800321 608.447321 366.800321 595.8000916V183.629295L473.274017 290.057191C484.002682 300.781276 501.397546 300.781276 512.12621 290.057191L541.953501 260.24135C552.6821659999999 249.517265 552.6821659999999 232.1315620000001 541.953501 221.407477L359.852451 39.3842870000001C338.395122 17.9384070000001 303.605394 17.9384070000001 282.148064 39.3842870000001z" />
    <glyph glyph-name="arrow-left"
      unicode="&#xF106;"
      horiz-adv-x="642" d="M39.3842865 359.851936C17.938407 338.394606 17.938407 303.6048780000001 39.3842865 282.1475490000001L221.407477 100.046499C232.131562 89.3178340000001 249.517265 89.3178340000001 260.24135 100.046499L290.057191 129.87379C300.781276 140.602454 300.781276 157.997318 290.057191 168.725983L183.629295 275.199679H595.800092C608.447321 275.199679 618.700123 285.452023 618.700123 298.099711V343.8997740000001C618.700123 356.5474610000001 608.447321 366.7998050000001 595.800092 366.7998050000001H183.629295L290.057191 473.27396C300.781276 484.002396 300.781276 501.396572 290.057191 512.125008L260.24135 541.953673C249.517265 552.6821089 232.131562 552.6821089 221.407477 541.953673z" />
    <glyph glyph-name="arrow-left-1"
      unicode="&#x61;&#x72;&#x72;&#x6F;&#x77;&#x2D;&#x6C;&#x65;&#x66;&#x74;"
      horiz-adv-x="642" d="M39.3842865 359.851936C17.938407 338.394606 17.938407 303.6048780000001 39.3842865 282.1475490000001L221.407477 100.046499C232.131562 89.3178340000001 249.517265 89.3178340000001 260.24135 100.046499L290.057191 129.87379C300.781276 140.602454 300.781276 157.997318 290.057191 168.725983L183.629295 275.199679H595.800092C608.447321 275.199679 618.700123 285.452023 618.700123 298.099711V343.8997740000001C618.700123 356.5474610000001 608.447321 366.7998050000001 595.800092 366.7998050000001H183.629295L290.057191 473.27396C300.781276 484.002396 300.781276 501.396572 290.057191 512.125008L260.24135 541.953673C249.517265 552.6821089 232.131562 552.6821089 221.407477 541.953673z" />
    <glyph glyph-name="arrow-right"
      unicode="&#xF107;"
      horiz-adv-x="642" d="M602.615713 282.148064L420.5925230000001 100.046327C409.8684380000001 89.317891 392.4827350000001 89.317891 381.7586500000001 100.046327L351.9428090000001 129.874992C341.2187240000001 140.603428 341.2187240000001 157.997604 351.9428090000001 168.72604L458.370705 275.200195H46.1999084C33.552679 275.200195 23.2998769 285.452539 23.2998769 298.100226V343.9002890000001C23.2998769 356.5479770000001 33.552679 366.8003210000001 46.1999084 366.8003210000001H458.370705L351.942809 473.2740170000001C341.218724 484.002682 341.218724 501.397546 351.942809 512.1262100000001L381.75865 541.9535010000001C392.482735 552.6821662000001 409.868438 552.6821662000001 420.592523 541.9535010000001L602.6157129999999 359.8524510000001C624.0615929999999 338.3951220000001 624.0615929999999 303.6053940000001 602.6157129999999 282.1480640000001z" />
    <glyph glyph-name="arrow-right-1"
      unicode="&#x61;&#x72;&#x72;&#x6F;&#x77;&#x2D;&#x72;&#x69;&#x67;&#x68;&#x74;"
      horiz-adv-x="642" d="M602.615713 282.148064L420.5925230000001 100.046327C409.8684380000001 89.317891 392.4827350000001 89.317891 381.7586500000001 100.046327L351.9428090000001 129.874992C341.2187240000001 140.603428 341.2187240000001 157.997604 351.9428090000001 168.72604L458.370705 275.200195H46.1999084C33.552679 275.200195 23.2998769 285.452539 23.2998769 298.100226V343.9002890000001C23.2998769 356.5479770000001 33.552679 366.8003210000001 46.1999084 366.8003210000001H458.370705L351.942809 473.2740170000001C341.218724 484.002682 341.218724 501.397546 351.942809 512.1262100000001L381.75865 541.9535010000001C392.482735 552.6821662000001 409.868438 552.6821662000001 420.592523 541.9535010000001L602.6157129999999 359.8524510000001C624.0615929999999 338.3951220000001 624.0615929999999 303.6053940000001 602.6157129999999 282.1480640000001z" />
    <glyph glyph-name="arrow-up-left"
      unicode="&#xF108;"
      horiz-adv-x="642" d="M149.340087 547.6048479C119.002937 547.5967516 94.4028841 522.996699 94.3947877 492.659549L94.3397317 235.1848290000001C94.3397317 220.0154450000001 106.630043 207.721896 121.799428 207.725134L163.973491 207.7332300000001C179.142875 207.7364690000001 191.442901 220.0364950000001 191.44614 235.2058800000001L191.478526 385.75004L482.927291 94.301274C491.870233 85.358333 506.369561 85.358009 515.312826 94.301274L547.698361 126.68681C556.641627 135.630075 556.641303 150.129403 547.698361 159.0723450000001L256.249596 450.52111L406.79408 450.553819C421.963302 450.5568960000001 434.2628430000001 462.856437 434.265919 478.025659L434.274987 520.200694C434.2780640000001 535.369917 421.984515 547.6603897 406.815292 547.6603897z" />
    <glyph glyph-name="arrow-up-left-1"
      unicode="&#x61;&#x72;&#x72;&#x6F;&#x77;&#x2D;&#x75;&#x70;&#x2D;&#x6C;&#x65;&#x66;&#x74;"
      horiz-adv-x="642" d="M149.340087 547.6048479C119.002937 547.5967516 94.4028841 522.996699 94.3947877 492.659549L94.3397317 235.1848290000001C94.3397317 220.0154450000001 106.630043 207.721896 121.799428 207.725134L163.973491 207.7332300000001C179.142875 207.7364690000001 191.442901 220.0364950000001 191.44614 235.2058800000001L191.478526 385.75004L482.927291 94.301274C491.870233 85.358333 506.369561 85.358009 515.312826 94.301274L547.698361 126.68681C556.641627 135.630075 556.641303 150.129403 547.698361 159.0723450000001L256.249596 450.52111L406.79408 450.553819C421.963302 450.5568960000001 434.2628430000001 462.856437 434.265919 478.025659L434.274987 520.200694C434.2780640000001 535.369917 421.984515 547.6603897 406.815292 547.6603897z" />
    <glyph glyph-name="arrow-up-right"
      unicode="&#xF109;"
      horiz-adv-x="642" d="M547.604848 492.659913L547.6603899999999 235.184708C547.6603899999999 220.015485 535.3699169999999 207.721936 520.2006939999999 207.725013L478.0256589999999 207.734081C462.8564369999999 207.737157 450.5568959999999 220.036698 450.5538189999999 235.20592L450.5211099999999 385.750404L159.0723449999999 94.301639C150.129403 85.358697 135.6300749999999 85.358373 126.6868099999999 94.301639L94.3012744999999 126.687174C85.3580089999999 135.630439 85.3583327999999 150.129767 94.3012744999999 159.072709L385.7500399999999 450.521474L235.2058799999999 450.55386C220.0364949999999 450.557099 207.7364689999999 462.857125 207.7332299999999 478.026509L207.7251339999999 520.200572C207.7218959999999 535.369957 220.0154449999999 547.6602683 235.1848289999999 547.6602683L492.6595489999999 547.6052123C522.9966989999998 547.5971159000001 547.5967519999998 522.997063 547.6048479999998 492.659913z" />
    <glyph glyph-name="arrow-up-right-1"
      unicode="&#x61;&#x72;&#x72;&#x6F;&#x77;&#x2D;&#x75;&#x70;&#x2D;&#x72;&#x69;&#x67;&#x68;&#x74;"
      horiz-adv-x="642" d="M547.604848 492.659913L547.6603899999999 235.184708C547.6603899999999 220.015485 535.3699169999999 207.721936 520.2006939999999 207.725013L478.0256589999999 207.734081C462.8564369999999 207.737157 450.5568959999999 220.036698 450.5538189999999 235.20592L450.5211099999999 385.750404L159.0723449999999 94.301639C150.129403 85.358697 135.6300749999999 85.358373 126.6868099999999 94.301639L94.3012744999999 126.687174C85.3580089999999 135.630439 85.3583327999999 150.129767 94.3012744999999 159.072709L385.7500399999999 450.521474L235.2058799999999 450.55386C220.0364949999999 450.557099 207.7364689999999 462.857125 207.7332299999999 478.026509L207.7251339999999 520.200572C207.7218959999999 535.369957 220.0154449999999 547.6602683 235.1848289999999 547.6602683L492.6595489999999 547.6052123C522.9966989999998 547.5971159000001 547.5967519999998 522.997063 547.6048479999998 492.659913z" />
    <glyph glyph-name="arrow-up"
      unicode="&#xF10A;"
      horiz-adv-x="642" d="M359.851936 602.6157135L541.953673 420.5925230000001C552.682109 409.868438 552.682109 392.482735 541.953673 381.75865L512.125008 351.942809C501.396572 341.218724 484.002396 341.218724 473.27396 351.942809L366.799805 458.370705V46.1999080000001C366.799805 33.552679 356.547461 23.299877 343.899774 23.299877H298.099711C285.452023 23.299877 275.199679 33.552679 275.199679 46.1999080000001V458.370705L168.7259829999999 351.942809C157.9973179999999 341.218724 140.602454 341.218724 129.8737899999999 351.942809L100.0464989999999 381.75865C89.3178337999999 392.482735 89.3178337999999 409.868438 100.0464989999999 420.592523L282.1475489999999 602.6157135C303.604878 624.061593 338.3946059999999 624.061593 359.8519359999999 602.6157135z" />
    <glyph glyph-name="arrow-up-1"
      unicode="&#x61;&#x72;&#x72;&#x6F;&#x77;&#x2D;&#x75;&#x70;"
      horiz-adv-x="642" d="M359.851936 602.6157135L541.953673 420.5925230000001C552.682109 409.868438 552.682109 392.482735 541.953673 381.75865L512.125008 351.942809C501.396572 341.218724 484.002396 341.218724 473.27396 351.942809L366.799805 458.370705V46.1999080000001C366.799805 33.552679 356.547461 23.299877 343.899774 23.299877H298.099711C285.452023 23.299877 275.199679 33.552679 275.199679 46.1999080000001V458.370705L168.7259829999999 351.942809C157.9973179999999 341.218724 140.602454 341.218724 129.8737899999999 351.942809L100.0464989999999 381.75865C89.3178337999999 392.482735 89.3178337999999 409.868438 100.0464989999999 420.592523L282.1475489999999 602.6157135C303.604878 624.061593 338.3946059999999 624.061593 359.8519359999999 602.6157135z" />
    <glyph glyph-name="attach"
      unicode="&#xF10B;"
      horiz-adv-x="642" d="M178.8125 211.625C178.8125 141.909375 224.815625 91.3125 288.1875 91.3125S397.5625 141.909375 397.5625 211.625V375.6875C397.5625 428.034375 366.784375 463.1875 321 463.1875S244.4375 428.034375 244.4375 375.6875V222.5625H288.1875V375.6875C288.1875 388.85625 291.38125 419.4375 321 419.4375S353.8125 388.85625 353.8125 375.6875V211.625C353.8125 173.496875 333.5125 135.0625 288.1875 135.0625S222.5625 173.496875 222.5625 211.625V397.5625C222.5625 460.934375 263.971875 506.9375 321 506.9375S419.4375 460.934375 419.4375 397.5625V244.4375H463.1875V397.5625C463.1875 484.865625 402.06875 550.6875 321 550.6875S178.8125 484.865625 178.8125 397.5625z" />
    <glyph glyph-name="attach-1"
      unicode="&#x61;&#x74;&#x74;&#x61;&#x63;&#x68;"
      horiz-adv-x="642" d="M178.8125 211.625C178.8125 141.909375 224.815625 91.3125 288.1875 91.3125S397.5625 141.909375 397.5625 211.625V375.6875C397.5625 428.034375 366.784375 463.1875 321 463.1875S244.4375 428.034375 244.4375 375.6875V222.5625H288.1875V375.6875C288.1875 388.85625 291.38125 419.4375 321 419.4375S353.8125 388.85625 353.8125 375.6875V211.625C353.8125 173.496875 333.5125 135.0625 288.1875 135.0625S222.5625 173.496875 222.5625 211.625V397.5625C222.5625 460.934375 263.971875 506.9375 321 506.9375S419.4375 460.934375 419.4375 397.5625V244.4375H463.1875V397.5625C463.1875 484.865625 402.06875 550.6875 321 550.6875S178.8125 484.865625 178.8125 397.5625z" />
    <glyph glyph-name="background-rec"
      unicode="&#xF10C;"
      horiz-adv-x="642" d="M503.2 274.649621V71.8301650000001C503.2 49.717389 476.821256 38.6437810000001 461.392136 54.2795410000001L400.164704 116.3289410000001C395.572704 120.9852290000001 389.343656 123.6003730000001 382.848272 123.6003730000001H344.011432C330.485696 123.6003730000001 319.52 134.7130130000001 319.52 148.4201330000001V198.0596530000001C319.52 211.7690690000001 330.485696 222.8794130000001 344.011432 222.8794130000001H382.848272C389.343656 222.8794130000001 395.572704 225.4945570000001 400.164704 230.1508450000001L461.392136 292.2002450000001C476.81896 307.8360050000001 503.2 296.7623970000001 503.2 274.649621zM560.6 230.6398930000001C592.300872 230.6398930000001 618 204.9407650000001 618 173.2398930000001S592.300872 115.8398930000001 560.6 115.8398930000001C554.260744 115.8398930000001 549.12 120.9806370000001 549.12 127.3198930000001V138.7998930000001C549.12 145.1391490000001 554.260744 150.2798930000001 560.6 150.2798930000001C573.280808 150.2798930000001 583.5600000000001 160.5590850000002 583.5600000000001 173.2398930000001S573.2808080000001 196.1998930000001 560.6 196.1998930000001C554.260744 196.1998930000001 549.12 201.3406370000001 549.12 207.6798930000001V219.1598930000001C549.12 225.4991490000001 554.260744 230.6398930000002 560.6 230.6398930000002zM296.56 253.599893C297.749328 253.599893 298.9134 253.510349 300.052216 253.335853C283.84016 240.276205 273.6 220.199981 273.6 198.061949V161.759893H66.96C54.28034 161.759893 44 172.041381 44 184.719893V230.639893C44 243.318405 54.28034 253.599893 66.96 253.599893zM411.36 414.319893C424.0408080000001 414.319893 434.32 404.040701 434.32 391.359893V345.439893C434.32 332.759085 424.040808 322.479893 411.36 322.479893H66.96C54.2796512 322.479893 44 332.7590850000001 44 345.439893V391.359893C44 404.040701 54.2796512 414.319893 66.96 414.319893zM411.36 575.0398932C424.0408080000001 575.0398932 434.32 564.760242 434.32 552.0798932V506.159893C434.32 493.479544 424.040808 483.199893 411.36 483.199893H66.96C54.2796512 483.199893 44 493.479544 44 506.159893V552.0798932C44 564.760242 54.2796512 575.0398932 66.96 575.0398932z" />
    <glyph glyph-name="background-rec-1"
      unicode="&#x62;&#x61;&#x63;&#x6B;&#x67;&#x72;&#x6F;&#x75;&#x6E;&#x64;&#x2D;&#x72;&#x65;&#x63;"
      horiz-adv-x="642" d="M503.2 274.649621V71.8301650000001C503.2 49.717389 476.821256 38.6437810000001 461.392136 54.2795410000001L400.164704 116.3289410000001C395.572704 120.9852290000001 389.343656 123.6003730000001 382.848272 123.6003730000001H344.011432C330.485696 123.6003730000001 319.52 134.7130130000001 319.52 148.4201330000001V198.0596530000001C319.52 211.7690690000001 330.485696 222.8794130000001 344.011432 222.8794130000001H382.848272C389.343656 222.8794130000001 395.572704 225.4945570000001 400.164704 230.1508450000001L461.392136 292.2002450000001C476.81896 307.8360050000001 503.2 296.7623970000001 503.2 274.649621zM560.6 230.6398930000001C592.300872 230.6398930000001 618 204.9407650000001 618 173.2398930000001S592.300872 115.8398930000001 560.6 115.8398930000001C554.260744 115.8398930000001 549.12 120.9806370000001 549.12 127.3198930000001V138.7998930000001C549.12 145.1391490000001 554.260744 150.2798930000001 560.6 150.2798930000001C573.280808 150.2798930000001 583.5600000000001 160.5590850000002 583.5600000000001 173.2398930000001S573.2808080000001 196.1998930000001 560.6 196.1998930000001C554.260744 196.1998930000001 549.12 201.3406370000001 549.12 207.6798930000001V219.1598930000001C549.12 225.4991490000001 554.260744 230.6398930000002 560.6 230.6398930000002zM296.56 253.599893C297.749328 253.599893 298.9134 253.510349 300.052216 253.335853C283.84016 240.276205 273.6 220.199981 273.6 198.061949V161.759893H66.96C54.28034 161.759893 44 172.041381 44 184.719893V230.639893C44 243.318405 54.28034 253.599893 66.96 253.599893zM411.36 414.319893C424.0408080000001 414.319893 434.32 404.040701 434.32 391.359893V345.439893C434.32 332.759085 424.040808 322.479893 411.36 322.479893H66.96C54.2796512 322.479893 44 332.7590850000001 44 345.439893V391.359893C44 404.040701 54.2796512 414.319893 66.96 414.319893zM411.36 575.0398932C424.0408080000001 575.0398932 434.32 564.760242 434.32 552.0798932V506.159893C434.32 493.479544 424.040808 483.199893 411.36 483.199893H66.96C54.2796512 483.199893 44 493.479544 44 506.159893V552.0798932C44 564.760242 54.2796512 575.0398932 66.96 575.0398932z" />
    <glyph glyph-name="block"
      unicode="&#xF10D;"
      horiz-adv-x="642" d="M65.427083 413.8030300000001V112.193181H413.935606V65.791666H65.427083C39.8000897 65.791666 18.95928 86.6027459999999 18.95928 112.193181V413.80303zM135.128788 483.405303V181.795454H483.63731V135.393939H135.128788C109.501794 135.393939 88.6609845 156.205019 88.6609845 181.795454V483.405303zM516.490047 576.208333L623.040719 469.809659V251.3977270000001C623.040719 225.807291 602.1999099999999 204.996212 576.572916 204.996212H204.8304919999999C179.2034989999999 204.996212 158.3626889999999 225.807291 158.3626889999999 251.3977270000001V529.806818C158.3626889999999 555.3740527 179.2034989999999 576.208333 204.8304919999999 576.208333zM483.63731 529.806818H204.830492V251.3977270000001H576.59615L576.572916 437.0037880000001H483.63731zM506.871212 344.200757V297.799242H251.298295V344.200757zM413.935606 437.003788V390.6022720000001H251.298295V437.0037880000001z" />
    <glyph glyph-name="block-1"
      unicode="&#x62;&#x6C;&#x6F;&#x63;&#x6B;"
      horiz-adv-x="642" d="M65.427083 413.8030300000001V112.193181H413.935606V65.791666H65.427083C39.8000897 65.791666 18.95928 86.6027459999999 18.95928 112.193181V413.80303zM135.128788 483.405303V181.795454H483.63731V135.393939H135.128788C109.501794 135.393939 88.6609845 156.205019 88.6609845 181.795454V483.405303zM516.490047 576.208333L623.040719 469.809659V251.3977270000001C623.040719 225.807291 602.1999099999999 204.996212 576.572916 204.996212H204.8304919999999C179.2034989999999 204.996212 158.3626889999999 225.807291 158.3626889999999 251.3977270000001V529.806818C158.3626889999999 555.3740527 179.2034989999999 576.208333 204.8304919999999 576.208333zM483.63731 529.806818H204.830492V251.3977270000001H576.59615L576.572916 437.0037880000001H483.63731zM506.871212 344.200757V297.799242H251.298295V344.200757zM413.935606 437.003788V390.6022720000001H251.298295V437.0037880000001z" />
    <glyph glyph-name="caret-down"
      unicode="&#xF10E;"
      horiz-adv-x="642" d="M350.739893 195.853118C334.314758 179.428105 307.684903 179.428099 291.259769 195.853063L140.446018 346.6670900000001C113.950682 373.1624250000001 132.71557 418.4656510000001 170.185804 418.4656510000001H471.813857C509.2842460000001 418.4656510000001 528.049476 373.1624250000001 501.5539190000001 346.6670900000001z" />
    <glyph glyph-name="caret-down-1"
      unicode="&#x63;&#x61;&#x72;&#x65;&#x74;&#x2D;&#x64;&#x6F;&#x77;&#x6E;"
      horiz-adv-x="642" d="M350.739893 195.853118C334.314758 179.428105 307.684903 179.428099 291.259769 195.853063L140.446018 346.6670900000001C113.950682 373.1624250000001 132.71557 418.4656510000001 170.185804 418.4656510000001H471.813857C509.2842460000001 418.4656510000001 528.049476 373.1624250000001 501.5539190000001 346.6670900000001z" />
    <glyph glyph-name="caret-left"
      unicode="&#xF10F;"
      horiz-adv-x="642" d="M195.853118 291.260107C179.428105 307.685242 179.428099 334.315097 195.853063 350.740231L346.6670900000001 501.553982C373.1624250000001 528.049318 418.4656510000001 509.28443 418.4656510000001 471.814196V170.186143C418.4656510000001 132.715754 373.1624250000001 113.950524 346.6670900000001 140.4460809999999z" />
    <glyph glyph-name="caret-left-1"
      unicode="&#x63;&#x61;&#x72;&#x65;&#x74;&#x2D;&#x6C;&#x65;&#x66;&#x74;"
      horiz-adv-x="642" d="M195.853118 291.260107C179.428105 307.685242 179.428099 334.315097 195.853063 350.740231L346.6670900000001 501.553982C373.1624250000001 528.049318 418.4656510000001 509.28443 418.4656510000001 471.814196V170.186143C418.4656510000001 132.715754 373.1624250000001 113.950524 346.6670900000001 140.4460809999999z" />
    <glyph glyph-name="caret-right"
      unicode="&#xF110;"
      horiz-adv-x="642" d="M446.146882 350.739893C462.571895 334.314758 462.571901 307.684903 446.146937 291.259769L295.33291 140.446018C268.837575 113.950682 223.534349 132.71557 223.534349 170.185804V471.813857C223.534349 509.284246 268.837575 528.049476 295.33291 501.553919z" />
    <glyph glyph-name="caret-right-1"
      unicode="&#x63;&#x61;&#x72;&#x65;&#x74;&#x2D;&#x72;&#x69;&#x67;&#x68;&#x74;"
      horiz-adv-x="642" d="M446.146882 350.739893C462.571895 334.314758 462.571901 307.684903 446.146937 291.259769L295.33291 140.446018C268.837575 113.950682 223.534349 132.71557 223.534349 170.185804V471.813857C223.534349 509.284246 268.837575 528.049476 295.33291 501.553919z" />
    <glyph glyph-name="caret-up"
      unicode="&#xF111;"
      horiz-adv-x="642" d="M291.258441 446.146882C307.683408 462.571895 334.312991 462.571901 350.737958 446.146937L501.550169 295.33291C528.0452339999999 268.837575 509.280538 223.534349 471.810686 223.534349H170.185712C132.715706 223.534349 113.950668 268.837575 140.445954 295.33291z" />
    <glyph glyph-name="caret-up-1"
      unicode="&#x63;&#x61;&#x72;&#x65;&#x74;&#x2D;&#x75;&#x70;"
      horiz-adv-x="642" d="M291.258441 446.146882C307.683408 462.571895 334.312991 462.571901 350.737958 446.146937L501.550169 295.33291C528.0452339999999 268.837575 509.280538 223.534349 471.810686 223.534349H170.185712C132.715706 223.534349 113.950668 268.837575 140.445954 295.33291z" />
    <glyph glyph-name="cascading"
      unicode="&#xF112;"
      horiz-adv-x="642" d="M408.5 583.5C420.575 583.5 430.375 573.7 430.375 561.625V474.125C430.375 462.05 420.575 452.25 408.5 452.25H299.125V430.375C299.125 418.321875 308.946875 408.5 321 408.5H386.625C422.80625 408.5 452.25 379.05625 452.25 342.875H539.75C551.825 342.875 561.625 333.075 561.625 321V233.5C561.625 221.425 551.825 211.625 539.75 211.625H474.125V167.875C474.125 131.69375 444.68125 102.25 408.5 102.25H386.625V80.375C386.625 68.3 376.825 58.5 364.75 58.5H102.25C90.175 58.5 80.375 68.3 80.375 80.375V167.875C80.375 179.95 90.175 189.75 102.25 189.75H364.75C376.825 189.75 386.625 179.95 386.625 167.875V146H408.5C420.553125 146 430.375 155.821875 430.375 167.875V211.625H277.25C265.175 211.625 255.375 221.425 255.375 233.5V321C255.375 333.075 265.175 342.875 277.25 342.875H408.5C408.5 354.928125 398.678125 364.75 386.625 364.75H321C284.81875 364.75 255.375 394.19375 255.375 430.375V452.25H146C133.925 452.25 124.125 462.05 124.125 474.125V561.625C124.125 573.7 133.925 583.5 146 583.5zM342.875 146H124.125V102.25H342.875zM517.875 299.125H299.125V255.375H517.875zM386.625 539.75H167.875V496H386.625z" />
    <glyph glyph-name="cascading-1"
      unicode="&#x63;&#x61;&#x73;&#x63;&#x61;&#x64;&#x69;&#x6E;&#x67;"
      horiz-adv-x="642" d="M408.5 583.5C420.575 583.5 430.375 573.7 430.375 561.625V474.125C430.375 462.05 420.575 452.25 408.5 452.25H299.125V430.375C299.125 418.321875 308.946875 408.5 321 408.5H386.625C422.80625 408.5 452.25 379.05625 452.25 342.875H539.75C551.825 342.875 561.625 333.075 561.625 321V233.5C561.625 221.425 551.825 211.625 539.75 211.625H474.125V167.875C474.125 131.69375 444.68125 102.25 408.5 102.25H386.625V80.375C386.625 68.3 376.825 58.5 364.75 58.5H102.25C90.175 58.5 80.375 68.3 80.375 80.375V167.875C80.375 179.95 90.175 189.75 102.25 189.75H364.75C376.825 189.75 386.625 179.95 386.625 167.875V146H408.5C420.553125 146 430.375 155.821875 430.375 167.875V211.625H277.25C265.175 211.625 255.375 221.425 255.375 233.5V321C255.375 333.075 265.175 342.875 277.25 342.875H408.5C408.5 354.928125 398.678125 364.75 386.625 364.75H321C284.81875 364.75 255.375 394.19375 255.375 430.375V452.25H146C133.925 452.25 124.125 462.05 124.125 474.125V561.625C124.125 573.7 133.925 583.5 146 583.5zM342.875 146H124.125V102.25H342.875zM517.875 299.125H299.125V255.375H517.875zM386.625 539.75H167.875V496H386.625z" />
    <glyph glyph-name="check-circle"
      unicode="&#xF113;"
      horiz-adv-x="642" d="M321 596C472.877917 596 596 472.878375 596 321C596 169.122083 472.877917 46 321 46C169.121625 46 46 169.122083 46 321C46 472.878375 169.121625 596 321 596zM443.569792 427.596187C432.831042 438.335625 415.4189580000001 438.335625 404.680208 427.596187L275.166667 298.083333L225.862146 347.388542C215.122708 358.127292 197.710625 358.127292 186.971188 347.388542L168.570479 328.986458C157.831042 318.247708 157.831042 300.835625 168.570479 290.096875L236.274792 222.391875C257.754583 200.912083 292.57875 200.912083 314.058542 222.391875L461.971875 370.305208C472.7106249999999 381.043958 472.7106249999999 398.456042 461.971875 409.194792z" />
    <glyph glyph-name="check-circle-1"
      unicode="&#x63;&#x68;&#x65;&#x63;&#x6B;&#x2D;&#x63;&#x69;&#x72;&#x63;&#x6C;&#x65;"
      horiz-adv-x="642" d="M321 596C472.877917 596 596 472.878375 596 321C596 169.122083 472.877917 46 321 46C169.121625 46 46 169.122083 46 321C46 472.878375 169.121625 596 321 596zM443.569792 427.596187C432.831042 438.335625 415.4189580000001 438.335625 404.680208 427.596187L275.166667 298.083333L225.862146 347.388542C215.122708 358.127292 197.710625 358.127292 186.971188 347.388542L168.570479 328.986458C157.831042 318.247708 157.831042 300.835625 168.570479 290.096875L236.274792 222.391875C257.754583 200.912083 292.57875 200.912083 314.058542 222.391875L461.971875 370.305208C472.7106249999999 381.043958 472.7106249999999 398.456042 461.971875 409.194792z" />
    <glyph glyph-name="check"
      unicode="&#xF114;"
      horiz-adv-x="642" d="M135.201267 331.157549L158.506094 354.464117C172.107784 368.064936 194.160499 368.064936 207.762188 354.464117L270.207246 292.018189L434.238465 456.048536C447.839284 469.650226 469.891999 469.650226 483.492818 456.048536L506.799386 432.742839C520.400205 419.14202 520.400205 397.089305 506.799386 383.488486L319.4645020000001 196.153602C292.2599620000001 168.949061 248.154531 168.949061 220.9499910000001 196.153602L135.201267 281.9031960000001C121.599578 295.5040150000001 121.599578 317.55673 135.201267 331.157549z" />
    <glyph glyph-name="check-1"
      unicode="&#x63;&#x68;&#x65;&#x63;&#x6B;"
      horiz-adv-x="642" d="M135.201267 331.157549L158.506094 354.464117C172.107784 368.064936 194.160499 368.064936 207.762188 354.464117L270.207246 292.018189L434.238465 456.048536C447.839284 469.650226 469.891999 469.650226 483.492818 456.048536L506.799386 432.742839C520.400205 419.14202 520.400205 397.089305 506.799386 383.488486L319.4645020000001 196.153602C292.2599620000001 168.949061 248.154531 168.949061 220.9499910000001 196.153602L135.201267 281.9031960000001C121.599578 295.5040150000001 121.599578 317.55673 135.201267 331.157549z" />
    <glyph glyph-name="clone"
      unicode="&#xF115;"
      horiz-adv-x="642" d="M167.875 474.125V124.125H430.375V80.375H167.875C143.746875 80.375 124.125 99.9968750000001 124.125 124.125V474.125zM417.567188 561.625L517.885938 461.30625V211.625C517.885938 187.496875 498.264063 167.875 474.135938 167.875H255.385938C231.257813 167.875 211.635938 187.496875 211.635938 211.625V517.875C211.635938 541.98125 231.257813 561.625 255.385938 561.625zM386.635938 517.875H255.385938V211.625H474.157813L474.135938 430.375H386.635938z" />
    <glyph glyph-name="clone-1"
      unicode="&#x63;&#x6C;&#x6F;&#x6E;&#x65;"
      horiz-adv-x="642" d="M167.875 474.125V124.125H430.375V80.375H167.875C143.746875 80.375 124.125 99.9968750000001 124.125 124.125V474.125zM417.567188 561.625L517.885938 461.30625V211.625C517.885938 187.496875 498.264063 167.875 474.135938 167.875H255.385938C231.257813 167.875 211.635938 187.496875 211.635938 211.625V517.875C211.635938 541.98125 231.257813 561.625 255.385938 561.625zM386.635938 517.875H255.385938V211.625H474.157813L474.135938 430.375H386.635938z" />
    <glyph glyph-name="close"
      unicode="&#xF116;"
      horiz-adv-x="642" d="M320.9998 389.679851L168.726229 541.95365C157.997763 552.6821165 140.603468 552.6821165 129.875231 541.95365L100.046464 512.125113C89.3179979 501.396647 89.3179979 484.002351 100.046464 473.273885L252.320034 321.000086L100.046464 168.7256C89.3179979 157.99782 89.3179979 140.603525 100.046464 129.8757459999999L129.875231 100.0458339999999C140.603468 89.3180549999999 157.997763 89.3180549999999 168.726229 100.0458339999999L320.9998 252.3203209999999L473.274286 100.0458339999999C484.002065 89.3180549999999 501.39636 89.3180549999999 512.12414 100.0458339999999L541.954051 129.8757459999999C552.6818300000001 140.6035249999999 552.6818300000001 157.9978199999999 541.954051 168.7255999999999L389.6795650000001 321.0000859999999L541.954051 473.2738849999999C552.6818300000001 484.0023509999999 552.6818300000001 501.3966469999999 541.954051 512.1251129999998L512.12414 541.9536499999999C501.39636 552.6821164999999 484.002065 552.6821164999999 473.274286 541.9536499999999z" />
    <glyph glyph-name="close-1"
      unicode="&#x63;&#x6C;&#x6F;&#x73;&#x65;"
      horiz-adv-x="642" d="M320.9998 389.679851L168.726229 541.95365C157.997763 552.6821165 140.603468 552.6821165 129.875231 541.95365L100.046464 512.125113C89.3179979 501.396647 89.3179979 484.002351 100.046464 473.273885L252.320034 321.000086L100.046464 168.7256C89.3179979 157.99782 89.3179979 140.603525 100.046464 129.8757459999999L129.875231 100.0458339999999C140.603468 89.3180549999999 157.997763 89.3180549999999 168.726229 100.0458339999999L320.9998 252.3203209999999L473.274286 100.0458339999999C484.002065 89.3180549999999 501.39636 89.3180549999999 512.12414 100.0458339999999L541.954051 129.8757459999999C552.6818300000001 140.6035249999999 552.6818300000001 157.9978199999999 541.954051 168.7255999999999L389.6795650000001 321.0000859999999L541.954051 473.2738849999999C552.6818300000001 484.0023509999999 552.6818300000001 501.3966469999999 541.954051 512.1251129999998L512.12414 541.9536499999999C501.39636 552.6821164999999 484.002065 552.6821164999999 473.274286 541.9536499999999z" />
    <glyph glyph-name="data-sync"
      unicode="&#xF117;"
      horiz-adv-x="642" d="M583.5 189.75C583.5 117.365625 524.634375 58.5 452.25 58.5C416.85625 58.5 384.021875 72.4125 359.521875 97.021875L321 58.5V167.875H430.375L390.759375 128.259375C407.1 111.875 428.690625 102.25 452.25 102.25C500.50625 102.25 539.75 141.49375 539.75 189.75zM255.375 583.5C353.221875 583.5 452.25 553.44375 452.25 496V408.36875H408.478125C408.478125 408.4125 408.5 408.45625 408.5 408.5V439.125C370.525 418.95625 312.81875 408.5 255.375 408.5S140.225 418.95625 102.25 439.125V408.5C102.25 395.790625 155.909375 364.75 255.375 364.75C262.965625 364.75 270.20625 364.990625 277.25 365.31875V321.503125C269.9875 321.175 262.68125 321 255.375 321C197.93125 321 140.225 331.45625 102.25 351.625V321C102.25 308.290625 155.909375 277.25 255.375 277.25C262.965625 277.25 270.20625 277.490625 277.25 277.81875V234.003125C269.9875 233.675 262.68125 233.5 255.375 233.5C197.93125 233.5 140.225 243.95625 102.25 264.125V233.5C102.25 220.790625 155.909375 189.75 255.375 189.75C262.965625 189.75 270.20625 189.990625 277.25 190.31875V146.546875C269.965625 146.21875 262.68125 146 255.375 146C157.528125 146 58.5 176.05625 58.5 233.5V496C58.5 553.44375 157.528125 583.5 255.375 583.5zM583.493438 321.006562V211.631562H474.118438L513.734063 251.247187C497.415313 267.609687 475.824688 277.256562 452.243438 277.256562C404.009063 277.256562 364.743438 237.990937 364.743438 189.756562H320.993438C320.993438 262.119062 379.880938 321.006562 452.243438 321.006562C487.637188 321.006562 520.515313 307.094062 544.993438 282.484687zM255.375 539.75C155.909375 539.75 102.2499999999999 508.709375 102.2499999999999 496S155.909375 452.25 255.375 452.25S408.5 483.290625 408.5 496S354.840625 539.75 255.375 539.75z" />
    <glyph glyph-name="data-sync-1"
      unicode="&#x64;&#x61;&#x74;&#x61;&#x2D;&#x73;&#x79;&#x6E;&#x63;"
      horiz-adv-x="642" d="M583.5 189.75C583.5 117.365625 524.634375 58.5 452.25 58.5C416.85625 58.5 384.021875 72.4125 359.521875 97.021875L321 58.5V167.875H430.375L390.759375 128.259375C407.1 111.875 428.690625 102.25 452.25 102.25C500.50625 102.25 539.75 141.49375 539.75 189.75zM255.375 583.5C353.221875 583.5 452.25 553.44375 452.25 496V408.36875H408.478125C408.478125 408.4125 408.5 408.45625 408.5 408.5V439.125C370.525 418.95625 312.81875 408.5 255.375 408.5S140.225 418.95625 102.25 439.125V408.5C102.25 395.790625 155.909375 364.75 255.375 364.75C262.965625 364.75 270.20625 364.990625 277.25 365.31875V321.503125C269.9875 321.175 262.68125 321 255.375 321C197.93125 321 140.225 331.45625 102.25 351.625V321C102.25 308.290625 155.909375 277.25 255.375 277.25C262.965625 277.25 270.20625 277.490625 277.25 277.81875V234.003125C269.9875 233.675 262.68125 233.5 255.375 233.5C197.93125 233.5 140.225 243.95625 102.25 264.125V233.5C102.25 220.790625 155.909375 189.75 255.375 189.75C262.965625 189.75 270.20625 189.990625 277.25 190.31875V146.546875C269.965625 146.21875 262.68125 146 255.375 146C157.528125 146 58.5 176.05625 58.5 233.5V496C58.5 553.44375 157.528125 583.5 255.375 583.5zM583.493438 321.006562V211.631562H474.118438L513.734063 251.247187C497.415313 267.609687 475.824688 277.256562 452.243438 277.256562C404.009063 277.256562 364.743438 237.990937 364.743438 189.756562H320.993438C320.993438 262.119062 379.880938 321.006562 452.243438 321.006562C487.637188 321.006562 520.515313 307.094062 544.993438 282.484687zM255.375 539.75C155.909375 539.75 102.2499999999999 508.709375 102.2499999999999 496S155.909375 452.25 255.375 452.25S408.5 483.290625 408.5 496S354.840625 539.75 255.375 539.75z" />
    <glyph glyph-name="deploy"
      unicode="&#xF118;"
      horiz-adv-x="642" d="M592.803879 527.079604L549.194685 407.152831C542.3351720000001 388.28688 531.4231420000001 371.154124 517.230178 356.961159L367.0627040000001 206.793686V78.118286C367.0627040000001 49.56064 332.5361830000001 35.2600660000001 312.3422890000001 55.45167L55.4526052000001 312.3445600000001C35.2598560000001 332.5361640000001 49.5611168000001 367.0626850000001 78.1180760000001 367.0626850000001H206.7937050000001L356.961178 517.229701C371.1541430000001 531.423581 388.286899 542.3346946 407.15285 549.1946656L527.079852 592.8047761C568.007976 607.6875844 607.6882899999999 568.0072697 592.8038789999999 527.079604zM92.3158487000001 183.898115L183.8981340000001 92.31583C169.8661250000001 64.2527280000001 141.1827820000001 46.524687 109.8064620000001 46.524687H46.5247061000001V109.805757C46.5247061000001 141.181848 64.2520601000001 169.865419 92.3158487000001 183.898115z" />
    <glyph glyph-name="deploy-1"
      unicode="&#x64;&#x65;&#x70;&#x6C;&#x6F;&#x79;"
      horiz-adv-x="642" d="M592.803879 527.079604L549.194685 407.152831C542.3351720000001 388.28688 531.4231420000001 371.154124 517.230178 356.961159L367.0627040000001 206.793686V78.118286C367.0627040000001 49.56064 332.5361830000001 35.2600660000001 312.3422890000001 55.45167L55.4526052000001 312.3445600000001C35.2598560000001 332.5361640000001 49.5611168000001 367.0626850000001 78.1180760000001 367.0626850000001H206.7937050000001L356.961178 517.229701C371.1541430000001 531.423581 388.286899 542.3346946 407.15285 549.1946656L527.079852 592.8047761C568.007976 607.6875844 607.6882899999999 568.0072697 592.8038789999999 527.079604zM92.3158487000001 183.898115L183.8981340000001 92.31583C169.8661250000001 64.2527280000001 141.1827820000001 46.524687 109.8064620000001 46.524687H46.5247061000001V109.805757C46.5247061000001 141.181848 64.2520601000001 169.865419 92.3158487000001 183.898115z" />
    <glyph glyph-name="down"
      unicode="&#xF119;"
      horiz-adv-x="642" d="M320.465408 213.149969L135.0625 398.552877L166.155456 429.645833L321.645889 274.1554L476.037015 428.546527L507.129972 397.453571L321.7270630000001 212.050662L320.5465830000001 213.231143z" />
    <glyph glyph-name="down-1"
      unicode="&#x64;&#x6F;&#x77;&#x6E;"
      horiz-adv-x="642" d="M320.465408 213.149969L135.0625 398.552877L166.155456 429.645833L321.645889 274.1554L476.037015 428.546527L507.129972 397.453571L321.7270630000001 212.050662L320.5465830000001 213.231143z" />
    <glyph glyph-name="download"
      unicode="&#xF11A;"
      horiz-adv-x="642" d="M187.431812 183.5L256.1825 114.75C291.9806250000001 78.951875 350.0193750000001 78.951875 385.8175 114.75L454.5675 183.5H527.25C552.56375 183.5 573.083333 162.980417 573.083333 137.666667V91.833333C573.083333 66.519583 552.56375 46 527.25 46H114.75C89.4369375 46 68.9166667 66.519583 68.9166667 91.833333V137.666667C68.9166667 162.980417 89.4369375 183.5 114.75 183.5zM343.916667 596C356.5735420000001 596 366.8333330000001 585.73975 366.8333330000001 573.0833333V275.166667L442.2956250000001 350.628958C451.244583 359.577917 465.755417 359.577917 474.704375 350.628958L499.587292 325.746042C508.5362500000001 316.797083 508.5362500000001 302.28625 499.587292 293.337292L353.4087500000001 147.15875C335.5108330000001 129.2608330000001 306.4891670000001 129.2608330000001 288.5912500000001 147.15875L142.4129380000001 293.337292C133.4632920000001 302.28625 133.4632920000001 316.797083 142.4129380000001 325.746042L167.2953960000001 350.628958C176.2450420000001 359.577917 190.7549580000001 359.577917 199.7046040000001 350.628958L275.1666670000001 275.166667V573.0833333C275.1666670000001 585.7399792 285.4264580000001 596 298.0833330000001 596z" />
    <glyph glyph-name="download-1"
      unicode="&#x64;&#x6F;&#x77;&#x6E;&#x6C;&#x6F;&#x61;&#x64;"
      horiz-adv-x="642" d="M187.431812 183.5L256.1825 114.75C291.9806250000001 78.951875 350.0193750000001 78.951875 385.8175 114.75L454.5675 183.5H527.25C552.56375 183.5 573.083333 162.980417 573.083333 137.666667V91.833333C573.083333 66.519583 552.56375 46 527.25 46H114.75C89.4369375 46 68.9166667 66.519583 68.9166667 91.833333V137.666667C68.9166667 162.980417 89.4369375 183.5 114.75 183.5zM343.916667 596C356.5735420000001 596 366.8333330000001 585.73975 366.8333330000001 573.0833333V275.166667L442.2956250000001 350.628958C451.244583 359.577917 465.755417 359.577917 474.704375 350.628958L499.587292 325.746042C508.5362500000001 316.797083 508.5362500000001 302.28625 499.587292 293.337292L353.4087500000001 147.15875C335.5108330000001 129.2608330000001 306.4891670000001 129.2608330000001 288.5912500000001 147.15875L142.4129380000001 293.337292C133.4632920000001 302.28625 133.4632920000001 316.797083 142.4129380000001 325.746042L167.2953960000001 350.628958C176.2450420000001 359.577917 190.7549580000001 359.577917 199.7046040000001 350.628958L275.1666670000001 275.166667V573.0833333C275.1666670000001 585.7399792 285.4264580000001 596 298.0833330000001 596z" />
    <glyph glyph-name="drafts"
      unicode="&#xF11B;"
      horiz-adv-x="642" d="M482.733988 270.984676L551.5229860000001 202.195678L397.6718060000001 48.3444979999999C393.2807750000001 43.9534669999999 388.0413460000001 40.4979659999999 382.2745350000001 38.1912419999999L326.0418220000001 15.6995329999999C307.3243360000001 8.2129969999999 288.7513070000001 26.7860259999999 296.2378420000001 45.5035129999999L318.7295520000001 101.7362249999999C321.0362760000001 107.5030359999998 324.4917770000001 112.7424649999999 328.8828080000001 117.1334959999999zM310.761493 592V500.281336C310.761493 468.622117 336.426668 442.957171 368.085658 442.957171H459.804322V312.909277L296.455674 149.56063C287.671319 140.778568 280.764904 130.302003 276.151455 118.768381L272.833532 110.4770139999999H115.859332C90.5319107999999 110.4770139999999 69.9999999999999 131.008237 69.9999999999999 156.3363459999999V546.140668C69.9999999999999 571.4680891999999 90.5319107999999 592 115.859332 592zM585.9174849999999 305.379175C604.91242 286.38424 604.91242 255.585112 585.9174849999999 236.590177L574.452652 225.125344L505.663654 293.914342L517.128487 305.379175C536.123422 324.37411 566.92255 324.37411 585.9174849999999 305.379175zM345.155992 592L459.804322 477.35167H368.085658C355.421603 477.35167 345.155992 487.61774 345.155992 500.281336z" />
    <glyph glyph-name="drafts-1"
      unicode="&#x64;&#x72;&#x61;&#x66;&#x74;&#x73;"
      horiz-adv-x="642" d="M482.733988 270.984676L551.5229860000001 202.195678L397.6718060000001 48.3444979999999C393.2807750000001 43.9534669999999 388.0413460000001 40.4979659999999 382.2745350000001 38.1912419999999L326.0418220000001 15.6995329999999C307.3243360000001 8.2129969999999 288.7513070000001 26.7860259999999 296.2378420000001 45.5035129999999L318.7295520000001 101.7362249999999C321.0362760000001 107.5030359999998 324.4917770000001 112.7424649999999 328.8828080000001 117.1334959999999zM310.761493 592V500.281336C310.761493 468.622117 336.426668 442.957171 368.085658 442.957171H459.804322V312.909277L296.455674 149.56063C287.671319 140.778568 280.764904 130.302003 276.151455 118.768381L272.833532 110.4770139999999H115.859332C90.5319107999999 110.4770139999999 69.9999999999999 131.008237 69.9999999999999 156.3363459999999V546.140668C69.9999999999999 571.4680891999999 90.5319107999999 592 115.859332 592zM585.9174849999999 305.379175C604.91242 286.38424 604.91242 255.585112 585.9174849999999 236.590177L574.452652 225.125344L505.663654 293.914342L517.128487 305.379175C536.123422 324.37411 566.92255 324.37411 585.9174849999999 305.379175zM345.155992 592L459.804322 477.35167H368.085658C355.421603 477.35167 345.155992 487.61774 345.155992 500.281336z" />
    <glyph glyph-name="edit"
      unicode="&#xF11C;"
      horiz-adv-x="642" d="M369.281754 498.993362L498.9931319999999 369.280837L228.263509 98.5512140000001C225.0624579999999 95.3501620000001 220.985474 93.1672100000001 216.5461929999999 92.2798130000001L94.9406290999999 67.9577830000001C78.8959313999999 64.749852 64.7498516999999 78.895473 67.9586994999999 94.9397120000001L92.2798122999999 216.5452760000001C93.1676683999999 220.9845570000001 95.3497032999999 225.0615410000001 98.5507547999999 228.2625920000001zM547.634899 547.6355876C583.454116 511.8166 583.454116 453.742279 547.634899 417.923063L531.420977 401.708682L401.7095980000001 531.4216650000001L417.9235210000001 547.6355876C453.742737 583.4548041 511.815683 583.4548041 547.634899 547.6355876z" />
    <glyph glyph-name="edit-1"
      unicode="&#x65;&#x64;&#x69;&#x74;"
      horiz-adv-x="642" d="M369.281754 498.993362L498.9931319999999 369.280837L228.263509 98.5512140000001C225.0624579999999 95.3501620000001 220.985474 93.1672100000001 216.5461929999999 92.2798130000001L94.9406290999999 67.9577830000001C78.8959313999999 64.749852 64.7498516999999 78.895473 67.9586994999999 94.9397120000001L92.2798122999999 216.5452760000001C93.1676683999999 220.9845570000001 95.3497032999999 225.0615410000001 98.5507547999999 228.2625920000001zM547.634899 547.6355876C583.454116 511.8166 583.454116 453.742279 547.634899 417.923063L531.420977 401.708682L401.7095980000001 531.4216650000001L417.9235210000001 547.6355876C453.742737 583.4548041 511.815683 583.4548041 547.634899 547.6355876z" />
    <glyph glyph-name="email"
      unicode="&#xF11D;"
      horiz-adv-x="642" d="M91.7692308 527.307692C53.7891308 527.307692 23 496.5185612 23 458.5384612V183.461538C23 145.480292 53.7891308 114.692307 91.7692308 114.692307H550.230769C588.2120150000001 114.692307 619 145.480292 619 183.461538V458.5384612C619 496.5185612 588.212015 527.3076920000001 550.230769 527.3076920000001zM138.606808 443.3993735C127.977835 450.2769843000001 113.7859292 447.2360089 106.9083185 436.6068074000001C100.0307077 425.9778350000001 103.0716831 411.7868460000001 113.7008846 404.9076300000001L283.639969 294.9479230000001C306.3750770000001 280.2358920000001 335.624923 280.2358920000001 358.360031 294.9479230000001L528.297969 404.9076300000001C538.9273999999999 411.7868460000001 541.969292 425.9778350000001 535.092369 436.6068074000001C528.2131539999999 447.2360089 514.021477 450.2769843000001 503.3920459999999 443.3993735L333.4518149999999 333.438061C325.8757379999999 328.534815 316.1242619999999 328.534815 308.5458919999999 333.438061z" />
    <glyph glyph-name="email-1"
      unicode="&#x65;&#x6D;&#x61;&#x69;&#x6C;"
      horiz-adv-x="642" d="M91.7692308 527.307692C53.7891308 527.307692 23 496.5185612 23 458.5384612V183.461538C23 145.480292 53.7891308 114.692307 91.7692308 114.692307H550.230769C588.2120150000001 114.692307 619 145.480292 619 183.461538V458.5384612C619 496.5185612 588.212015 527.3076920000001 550.230769 527.3076920000001zM138.606808 443.3993735C127.977835 450.2769843000001 113.7859292 447.2360089 106.9083185 436.6068074000001C100.0307077 425.9778350000001 103.0716831 411.7868460000001 113.7008846 404.9076300000001L283.639969 294.9479230000001C306.3750770000001 280.2358920000001 335.624923 280.2358920000001 358.360031 294.9479230000001L528.297969 404.9076300000001C538.9273999999999 411.7868460000001 541.969292 425.9778350000001 535.092369 436.6068074000001C528.2131539999999 447.2360089 514.021477 450.2769843000001 503.3920459999999 443.3993735L333.4518149999999 333.438061C325.8757379999999 328.534815 316.1242619999999 328.534815 308.5458919999999 333.438061z" />
    <glyph glyph-name="expand-arrow"
      unicode="&#xF11E;"
      horiz-adv-x="642" d="M477.8 545C514.91456 545 545 514.91344 545 477.8V164.2C545 127.08544 514.91456 97 477.8 97H164.2C127.08656 97 97 127.08544 97 164.2V477.8C97 514.91344 127.08656 545 164.2 545zM433 455.4H307.87808C287.92192 455.4 277.9270400000001 431.272064 292.03904 417.16096L332.2 377L224.839264 269.63904C216.091392 260.89184 216.091392 246.70816 224.839264 237.96096L237.96096 224.83904C246.70816 216.09184 260.89184 216.09184 269.63904 224.83904L377 332.2000000000001L417.16096 292.0390400000001C431.27296 277.9270400000001 455.4 287.9219200000001 455.4 307.8780800000001V433.0000000000001C455.4 445.3710720000001 445.37152 455.4000000000001 433 455.4000000000001z" />
    <glyph glyph-name="expand-arrow-1"
      unicode="&#x65;&#x78;&#x70;&#x61;&#x6E;&#x64;&#x2D;&#x61;&#x72;&#x72;&#x6F;&#x77;"
      horiz-adv-x="642" d="M477.8 545C514.91456 545 545 514.91344 545 477.8V164.2C545 127.08544 514.91456 97 477.8 97H164.2C127.08656 97 97 127.08544 97 164.2V477.8C97 514.91344 127.08656 545 164.2 545zM433 455.4H307.87808C287.92192 455.4 277.9270400000001 431.272064 292.03904 417.16096L332.2 377L224.839264 269.63904C216.091392 260.89184 216.091392 246.70816 224.839264 237.96096L237.96096 224.83904C246.70816 216.09184 260.89184 216.09184 269.63904 224.83904L377 332.2000000000001L417.16096 292.0390400000001C431.27296 277.9270400000001 455.4 287.9219200000001 455.4 307.8780800000001V433.0000000000001C455.4 445.3710720000001 445.37152 455.4000000000001 433 455.4000000000001z" />
    <glyph glyph-name="expand"
      unicode="&#xF11F;"
      horiz-adv-x="642" d="M619 252.230769V169.707692C619 126.662738 584.106492 91.769231 541.061538 91.769231H458.538462V160.538462H527.3076920000001C539.9681080000001 160.538462 550.2307690000001 170.801123 550.2307690000001 183.461538V252.230769zM91.7692308 252.230769V183.461538C91.7692308 170.801123 102.032351 160.5384620000001 114.692308 160.5384620000001H183.4615379999999V91.769231H100.9384619999999C57.8941953999999 91.769231 22.9999999999999 126.662738 22.9999999999999 169.707692V252.230769zM467.707692 412.6923080000001C475.3043999999999 412.6923080000001 481.461538 406.535169 481.461538 398.938462V243.061538C481.461538 235.464831 475.3044 229.307692 467.707692 229.307692H174.2923079999999C166.6962879999999 229.307692 160.5384619999999 235.464831 160.5384619999999 243.061538V398.938462C160.5384619999999 406.535169 166.6962879999999 412.6923080000001 174.2923079999999 412.6923080000001zM183.461538 550.2307691999999V481.461538H114.692308C102.032351 481.461538 91.7692308 471.198418 91.7692308 458.538462V389.769231H23V472.292308C23 515.3365739999999 57.8941954 550.2307691999999 100.938462 550.2307691999999zM541.0615379999999 550.2307691999999C584.1064919999999 550.2307691999999 618.9999999999999 515.336574 618.9999999999999 472.292308V389.769231H550.2307689999999V458.538462C550.2307689999999 471.1984179999999 539.9681079999999 481.461538 527.3076919999999 481.461538H458.5384619999999V550.2307691999999z" />
    <glyph glyph-name="expand-1"
      unicode="&#x65;&#x78;&#x70;&#x61;&#x6E;&#x64;"
      horiz-adv-x="642" d="M619 252.230769V169.707692C619 126.662738 584.106492 91.769231 541.061538 91.769231H458.538462V160.538462H527.3076920000001C539.9681080000001 160.538462 550.2307690000001 170.801123 550.2307690000001 183.461538V252.230769zM91.7692308 252.230769V183.461538C91.7692308 170.801123 102.032351 160.5384620000001 114.692308 160.5384620000001H183.4615379999999V91.769231H100.9384619999999C57.8941953999999 91.769231 22.9999999999999 126.662738 22.9999999999999 169.707692V252.230769zM467.707692 412.6923080000001C475.3043999999999 412.6923080000001 481.461538 406.535169 481.461538 398.938462V243.061538C481.461538 235.464831 475.3044 229.307692 467.707692 229.307692H174.2923079999999C166.6962879999999 229.307692 160.5384619999999 235.464831 160.5384619999999 243.061538V398.938462C160.5384619999999 406.535169 166.6962879999999 412.6923080000001 174.2923079999999 412.6923080000001zM183.461538 550.2307691999999V481.461538H114.692308C102.032351 481.461538 91.7692308 471.198418 91.7692308 458.538462V389.769231H23V472.292308C23 515.3365739999999 57.8941954 550.2307691999999 100.938462 550.2307691999999zM541.0615379999999 550.2307691999999C584.1064919999999 550.2307691999999 618.9999999999999 515.336574 618.9999999999999 472.292308V389.769231H550.2307689999999V458.538462C550.2307689999999 471.1984179999999 539.9681079999999 481.461538 527.3076919999999 481.461538H458.5384619999999V550.2307691999999z" />
    <glyph glyph-name="file-audio"
      unicode="&#xF120;"
      horiz-adv-x="642" d="M412.666667 550.1666667V458.498625C412.666667 407.870208 453.710417 366.831042 504.333333 366.831042H596V137.666667C596 112.3529170000001 575.480417 91.833333 550.166667 91.833333H91.8333332999999C66.5202707999999 91.833333 45.9999999999999 112.3529170000001 45.9999999999999 137.666667V504.333333C45.9999999999999 529.6463960000001 66.5202707999999 550.1666667000001 91.8333332999999 550.1666667000001zM256.354375 405.360833L195.242958 343.428542C190.658708 338.781042 184.441187 336.170833 177.958062 336.170833H139.194521C125.694083 336.170833 114.75 325.081458 114.75 311.397917V261.852083C114.75 248.170833 125.694083 237.079167 139.194521 237.079167H177.958062C184.441187 237.079167 190.658708 234.468958 195.242958 229.821458L256.354375 167.889167C271.754375 152.282917 298.083333 163.335625 298.083333 185.406667V387.843333C298.083333 409.914375 271.752083 420.967313 256.354375 405.360833zM355.375 343.916667C349.047708 343.916667 343.916667 338.7856250000001 343.916667 332.4583330000001V321.0000000000001C343.916667 314.6727080000001 349.047708 309.5416670000001 355.375 309.5416670000001C368.031875 309.5416670000001 378.291667 299.2818750000001 378.291667 286.6250000000001S368.031875 263.7083330000001 355.375 263.7083330000001C349.047708 263.7083330000001 343.916667 258.5772920000001 343.916667 252.2500000000001V240.7916670000001C343.916667 234.4643750000001 349.047708 229.3333330000001 355.375 229.3333330000001C387.016042 229.3333330000001 412.666667 254.9839580000001 412.666667 286.6250000000001S387.0160420000001 343.9166670000002 355.375 343.9166670000002zM458.5 550.1666667L596 412.666667H504.333333C479.021875 412.666667 458.5 433.186021 458.5 458.5z" />
    <glyph glyph-name="file-audio-1"
      unicode="&#x66;&#x69;&#x6C;&#x65;&#x2D;&#x61;&#x75;&#x64;&#x69;&#x6F;"
      horiz-adv-x="642" d="M412.666667 550.1666667V458.498625C412.666667 407.870208 453.710417 366.831042 504.333333 366.831042H596V137.666667C596 112.3529170000001 575.480417 91.833333 550.166667 91.833333H91.8333332999999C66.5202707999999 91.833333 45.9999999999999 112.3529170000001 45.9999999999999 137.666667V504.333333C45.9999999999999 529.6463960000001 66.5202707999999 550.1666667000001 91.8333332999999 550.1666667000001zM256.354375 405.360833L195.242958 343.428542C190.658708 338.781042 184.441187 336.170833 177.958062 336.170833H139.194521C125.694083 336.170833 114.75 325.081458 114.75 311.397917V261.852083C114.75 248.170833 125.694083 237.079167 139.194521 237.079167H177.958062C184.441187 237.079167 190.658708 234.468958 195.242958 229.821458L256.354375 167.889167C271.754375 152.282917 298.083333 163.335625 298.083333 185.406667V387.843333C298.083333 409.914375 271.752083 420.967313 256.354375 405.360833zM355.375 343.916667C349.047708 343.916667 343.916667 338.7856250000001 343.916667 332.4583330000001V321.0000000000001C343.916667 314.6727080000001 349.047708 309.5416670000001 355.375 309.5416670000001C368.031875 309.5416670000001 378.291667 299.2818750000001 378.291667 286.6250000000001S368.031875 263.7083330000001 355.375 263.7083330000001C349.047708 263.7083330000001 343.916667 258.5772920000001 343.916667 252.2500000000001V240.7916670000001C343.916667 234.4643750000001 349.047708 229.3333330000001 355.375 229.3333330000001C387.016042 229.3333330000001 412.666667 254.9839580000001 412.666667 286.6250000000001S387.0160420000001 343.9166670000002 355.375 343.9166670000002zM458.5 550.1666667L596 412.666667H504.333333C479.021875 412.666667 458.5 433.186021 458.5 458.5z" />
    <glyph glyph-name="file-image"
      unicode="&#xF121;"
      horiz-adv-x="642" d="M412.666667 550.1666667V458.498625C412.666667 407.870208 453.710417 366.831042 504.333333 366.831042H596V137.666667C596 112.3529170000001 575.480417 91.833333 550.166667 91.833333H91.8333332999999C66.5202707999999 91.833333 45.9999999999999 112.3529170000001 45.9999999999999 137.666667V504.333333C45.9999999999999 529.6463960000001 66.5202707999999 550.1666667000001 91.8333332999999 550.1666667000001zM334.424583 288.59125L298.083333 252.252292C285.426458 239.595417 264.906875 239.595417 252.25 252.252292C239.593125 264.906875 219.072625 264.906875 206.416208 252.252292L142.134271 187.96875C132.028708 177.864792 139.186042 160.585625 153.477563 160.585625H488.520833C502.813958 160.585625 509.970833 177.864792 499.864583 187.96875L399.242083 288.59125C381.341875 306.491458 352.3225 306.491458 334.424583 288.59125zM206.416667 458.5C168.447188 458.5 137.666667 427.719479 137.666667 389.75C137.666667 351.779375 168.447188 321 206.416667 321C244.387292 321 275.166667 351.779375 275.166667 389.75C275.166667 427.719479 244.387292 458.5 206.416667 458.5zM458.5 550.1666667L596 412.666667H504.333333C479.021875 412.666667 458.5 433.186021 458.5 458.5z" />
    <glyph glyph-name="file-image-1"
      unicode="&#x66;&#x69;&#x6C;&#x65;&#x2D;&#x69;&#x6D;&#x61;&#x67;&#x65;"
      horiz-adv-x="642" d="M412.666667 550.1666667V458.498625C412.666667 407.870208 453.710417 366.831042 504.333333 366.831042H596V137.666667C596 112.3529170000001 575.480417 91.833333 550.166667 91.833333H91.8333332999999C66.5202707999999 91.833333 45.9999999999999 112.3529170000001 45.9999999999999 137.666667V504.333333C45.9999999999999 529.6463960000001 66.5202707999999 550.1666667000001 91.8333332999999 550.1666667000001zM334.424583 288.59125L298.083333 252.252292C285.426458 239.595417 264.906875 239.595417 252.25 252.252292C239.593125 264.906875 219.072625 264.906875 206.416208 252.252292L142.134271 187.96875C132.028708 177.864792 139.186042 160.585625 153.477563 160.585625H488.520833C502.813958 160.585625 509.970833 177.864792 499.864583 187.96875L399.242083 288.59125C381.341875 306.491458 352.3225 306.491458 334.424583 288.59125zM206.416667 458.5C168.447188 458.5 137.666667 427.719479 137.666667 389.75C137.666667 351.779375 168.447188 321 206.416667 321C244.387292 321 275.166667 351.779375 275.166667 389.75C275.166667 427.719479 244.387292 458.5 206.416667 458.5zM458.5 550.1666667L596 412.666667H504.333333C479.021875 412.666667 458.5 433.186021 458.5 458.5z" />
    <glyph glyph-name="file-video"
      unicode="&#xF122;"
      horiz-adv-x="642" d="M412.666667 550.1666667V458.498625C412.666667 407.870208 453.710417 366.831042 504.333333 366.831042H596V137.666667C596 112.3529170000001 575.480417 91.833333 550.166667 91.833333H91.8333332999999C66.5202707999999 91.833333 45.9999999999999 112.3529170000001 45.9999999999999 137.666667V504.333333C45.9999999999999 529.6463960000001 66.5202707999999 550.1666667000001 91.8333332999999 550.1666667000001zM160.583333 407.029167V212.054167C160.583333 187.890833 190.280583 174.690833 209.841333 190.159583L333.1114580000001 287.647083C347.5191670000001 299.04125 347.5191670000001 320.042083 333.1114580000001 331.4362500000001L209.841333 428.9237500000001C190.280583 444.3922710000001 160.583333 431.1925000000001 160.583333 407.0291670000001zM458.5 550.1666667L596 412.666667H504.333333C479.021875 412.666667 458.5 433.18625 458.5 458.5z" />
    <glyph glyph-name="file-video-1"
      unicode="&#x66;&#x69;&#x6C;&#x65;&#x2D;&#x76;&#x69;&#x64;&#x65;&#x6F;"
      horiz-adv-x="642" d="M412.666667 550.1666667V458.498625C412.666667 407.870208 453.710417 366.831042 504.333333 366.831042H596V137.666667C596 112.3529170000001 575.480417 91.833333 550.166667 91.833333H91.8333332999999C66.5202707999999 91.833333 45.9999999999999 112.3529170000001 45.9999999999999 137.666667V504.333333C45.9999999999999 529.6463960000001 66.5202707999999 550.1666667000001 91.8333332999999 550.1666667000001zM160.583333 407.029167V212.054167C160.583333 187.890833 190.280583 174.690833 209.841333 190.159583L333.1114580000001 287.647083C347.5191670000001 299.04125 347.5191670000001 320.042083 333.1114580000001 331.4362500000001L209.841333 428.9237500000001C190.280583 444.3922710000001 160.583333 431.1925000000001 160.583333 407.0291670000001zM458.5 550.1666667L596 412.666667H504.333333C479.021875 412.666667 458.5 433.18625 458.5 458.5z" />
    <glyph glyph-name="file"
      unicode="&#xF123;"
      horiz-adv-x="642" d="M412.666667 550.1666667V458.498625C412.666667 407.870208 453.710417 366.831042 504.333333 366.831042H596V137.666667C596 112.3529170000001 575.480417 91.833333 550.166667 91.833333H91.8333332999999C66.5202707999999 91.833333 45.9999999999999 112.3529170000001 45.9999999999999 137.666667V504.333333C45.9999999999999 529.6463960000001 66.5202707999999 550.1666667000001 91.8333332999999 550.1666667000001zM458.5 550.1666667L596 412.666667H504.333333C479.021875 412.666667 458.5 433.186021 458.5 458.5z" />
    <glyph glyph-name="file-1"
      unicode="&#x66;&#x69;&#x6C;&#x65;"
      horiz-adv-x="642" d="M412.666667 550.1666667V458.498625C412.666667 407.870208 453.710417 366.831042 504.333333 366.831042H596V137.666667C596 112.3529170000001 575.480417 91.833333 550.166667 91.833333H91.8333332999999C66.5202707999999 91.833333 45.9999999999999 112.3529170000001 45.9999999999999 137.666667V504.333333C45.9999999999999 529.6463960000001 66.5202707999999 550.1666667000001 91.8333332999999 550.1666667000001zM458.5 550.1666667L596 412.666667H504.333333C479.021875 412.666667 458.5 433.186021 458.5 458.5z" />
    <glyph glyph-name="filter-arrows"
      unicode="&#xF124;"
      horiz-adv-x="642" d="M471.810119 278.929634C509.280354 278.929634 528.045793 233.625858 501.549906 207.1305220000001L350.736155 56.316771C334.31102 39.892188 307.681165 39.892188 291.256031 56.316771L140.442224 207.1305220000001C113.946668 233.6258580000001 132.711848 278.929634 170.182286 278.929634zM350.734501 585.6796196L501.5482519999999 434.865593C528.0435879999999 408.3702570000001 509.2787 363.0670320000001 471.808465 363.0670320000001H170.1804119999999C132.7100229999999 363.0670320000001 113.9447939999999 408.3702570000001 140.44035 434.8655930000001L291.254377 585.6795645000001C307.679511 602.1045777 334.309366 602.1045832000001 350.734501 585.6796196z" />
    <glyph glyph-name="filter-arrows-1"
      unicode="&#x66;&#x69;&#x6C;&#x74;&#x65;&#x72;&#x2D;&#x61;&#x72;&#x72;&#x6F;&#x77;&#x73;"
      horiz-adv-x="642" d="M471.810119 278.929634C509.280354 278.929634 528.045793 233.625858 501.549906 207.1305220000001L350.736155 56.316771C334.31102 39.892188 307.681165 39.892188 291.256031 56.316771L140.442224 207.1305220000001C113.946668 233.6258580000001 132.711848 278.929634 170.182286 278.929634zM350.734501 585.6796196L501.5482519999999 434.865593C528.0435879999999 408.3702570000001 509.2787 363.0670320000001 471.808465 363.0670320000001H170.1804119999999C132.7100229999999 363.0670320000001 113.9447939999999 408.3702570000001 140.44035 434.8655930000001L291.254377 585.6795645000001C307.679511 602.1045777 334.309366 602.1045832000001 350.734501 585.6796196z" />
    <glyph glyph-name="filter"
      unicode="&#xF125;"
      horiz-adv-x="642" d="M366.833333 194.958333C379.490208 194.958333 389.75 184.698542 389.75 172.041667V103.291667C389.75 90.634792 379.490208 80.375 366.833333 80.375H275.166667C262.509792 80.375 252.25 90.634792 252.25 103.291667V172.041667C252.25 184.698542 262.509792 194.958333 275.166667 194.958333zM458.5 378.291667C471.156875 378.291667 481.416667 368.031875 481.416667 355.375V286.625C481.416667 273.968125 471.156875 263.708333 458.5 263.708333H183.5C170.843583 263.708333 160.583333 273.968125 160.583333 286.625V355.375C160.583333 368.031875 170.843583 378.291667 183.5 378.291667zM573.083333 561.625C585.740208 561.625 596 551.36475 596 538.7083329999999V469.958333C596 457.301917 585.740208 447.041667 573.083333 447.041667H68.9166667000001C56.2602500000001 447.041667 46.0000000000001 457.301917 46.0000000000001 469.958333V538.708333C46.0000000000001 551.36475 56.2602500000001 561.625 68.9166667000001 561.625z" />
    <glyph glyph-name="filter-1"
      unicode="&#x66;&#x69;&#x6C;&#x74;&#x65;&#x72;"
      horiz-adv-x="642" d="M366.833333 194.958333C379.490208 194.958333 389.75 184.698542 389.75 172.041667V103.291667C389.75 90.634792 379.490208 80.375 366.833333 80.375H275.166667C262.509792 80.375 252.25 90.634792 252.25 103.291667V172.041667C252.25 184.698542 262.509792 194.958333 275.166667 194.958333zM458.5 378.291667C471.156875 378.291667 481.416667 368.031875 481.416667 355.375V286.625C481.416667 273.968125 471.156875 263.708333 458.5 263.708333H183.5C170.843583 263.708333 160.583333 273.968125 160.583333 286.625V355.375C160.583333 368.031875 170.843583 378.291667 183.5 378.291667zM573.083333 561.625C585.740208 561.625 596 551.36475 596 538.7083329999999V469.958333C596 457.301917 585.740208 447.041667 573.083333 447.041667H68.9166667000001C56.2602500000001 447.041667 46.0000000000001 457.301917 46.0000000000001 469.958333V538.708333C46.0000000000001 551.36475 56.2602500000001 561.625 68.9166667000001 561.625z" />
    <glyph glyph-name="folder-in"
      unicode="&#xF126;"
      horiz-adv-x="642" d="M167.875 274.333333H211.625V178.8125H561.646875L561.625 397.5625H381.15625C367.4625 397.5625 354.359375 404.103125 346.15625 415.0625L310.0625 463.1875H211.625V367.666667H167.875V463.1875C167.875 487.29375 187.496875 506.9375 211.625 506.9375H310.0625C323.75625 506.9375 336.859375 500.396875 345.0625 489.4375L381.15625 441.3125H561.625C585.753125 441.3125 605.375 421.66875 605.375 397.5625V178.8125C605.375 154.684375 585.753125 135.0625 561.625 135.0625H211.625C187.496875 135.0625 167.875 154.684375 167.875 178.8125zM386.625 321.342868L280.119845 211.625L247.928576 244.540361L299.982542 297.342085H36.6249999999999V344.316258H298.9551609999999L248.2710359999999 397.4596389999999L279.777384 430.375z" />
    <glyph glyph-name="folder-in-1"
      unicode="&#x66;&#x6F;&#x6C;&#x64;&#x65;&#x72;&#x2D;&#x69;&#x6E;"
      horiz-adv-x="642" d="M167.875 274.333333H211.625V178.8125H561.646875L561.625 397.5625H381.15625C367.4625 397.5625 354.359375 404.103125 346.15625 415.0625L310.0625 463.1875H211.625V367.666667H167.875V463.1875C167.875 487.29375 187.496875 506.9375 211.625 506.9375H310.0625C323.75625 506.9375 336.859375 500.396875 345.0625 489.4375L381.15625 441.3125H561.625C585.753125 441.3125 605.375 421.66875 605.375 397.5625V178.8125C605.375 154.684375 585.753125 135.0625 561.625 135.0625H211.625C187.496875 135.0625 167.875 154.684375 167.875 178.8125zM386.625 321.342868L280.119845 211.625L247.928576 244.540361L299.982542 297.342085H36.6249999999999V344.316258H298.9551609999999L248.2710359999999 397.4596389999999L279.777384 430.375z" />
    <glyph glyph-name="folder-out"
      unicode="&#xF127;"
      horiz-adv-x="642" d="M189.75 274.333333H233.5V178.8125H583.521875L583.5 397.5625H403.03125C389.3375 397.5625 376.234375 404.103125 368.03125 415.0625L331.9375 463.1875H233.5V367.666667H189.75V463.1875C189.75 487.29375 209.371875 506.9375 233.5 506.9375H331.9375C345.63125 506.9375 358.734375 500.396875 366.9375 489.4375L403.03125 441.3125H583.5C607.628125 441.3125 627.25 421.66875 627.25 397.5625V178.8125C627.25 154.684375 607.628125 135.0625 583.5 135.0625H233.5C209.371875 135.0625 189.75 154.684375 189.75 178.8125zM14.75 320.657132L121.255155 430.375L153.446424 397.4596390000001L101.392458 344.657915H364.75V297.683742H102.419839L153.103964 244.540361L121.597616 211.625z" />
    <glyph glyph-name="folder-out-1"
      unicode="&#x66;&#x6F;&#x6C;&#x64;&#x65;&#x72;&#x2D;&#x6F;&#x75;&#x74;"
      horiz-adv-x="642" d="M189.75 274.333333H233.5V178.8125H583.521875L583.5 397.5625H403.03125C389.3375 397.5625 376.234375 404.103125 368.03125 415.0625L331.9375 463.1875H233.5V367.666667H189.75V463.1875C189.75 487.29375 209.371875 506.9375 233.5 506.9375H331.9375C345.63125 506.9375 358.734375 500.396875 366.9375 489.4375L403.03125 441.3125H583.5C607.628125 441.3125 627.25 421.66875 627.25 397.5625V178.8125C627.25 154.684375 607.628125 135.0625 583.5 135.0625H233.5C209.371875 135.0625 189.75 154.684375 189.75 178.8125zM14.75 320.657132L121.255155 430.375L153.446424 397.4596390000001L101.392458 344.657915H364.75V297.683742H102.419839L153.103964 244.540361L121.597616 211.625z" />
    <glyph glyph-name="folder-plus"
      unicode="&#xF128;"
      horiz-adv-x="642" d="M244.4375 506.9375C258.13125 506.9375 271.234375 500.396875 279.4375 489.4375L315.53125 441.3125H496C520.128125 441.3125 539.75 421.66875 539.75 397.5625V178.8125C539.75 154.684375 520.128125 135.0625 496 135.0625H146C121.871875 135.0625 102.25 154.684375 102.25 178.8125V463.1875C102.25 487.29375 121.871875 506.9375 146 506.9375zM244.4375 463.1875H146V178.8125H496.021875L496 397.5625H315.53125C301.8375 397.5625 288.734375 404.103125 280.53125 415.0625zM342.885937 377V311.375H408.510937V267.625H342.885937V202H299.135937V267.625H233.510937V311.375H299.135937V377z" />
    <glyph glyph-name="folder-plus-1"
      unicode="&#x66;&#x6F;&#x6C;&#x64;&#x65;&#x72;&#x2D;&#x70;&#x6C;&#x75;&#x73;"
      horiz-adv-x="642" d="M244.4375 506.9375C258.13125 506.9375 271.234375 500.396875 279.4375 489.4375L315.53125 441.3125H496C520.128125 441.3125 539.75 421.66875 539.75 397.5625V178.8125C539.75 154.684375 520.128125 135.0625 496 135.0625H146C121.871875 135.0625 102.25 154.684375 102.25 178.8125V463.1875C102.25 487.29375 121.871875 506.9375 146 506.9375zM244.4375 463.1875H146V178.8125H496.021875L496 397.5625H315.53125C301.8375 397.5625 288.734375 404.103125 280.53125 415.0625zM342.885937 377V311.375H408.510937V267.625H342.885937V202H299.135937V267.625H233.510937V311.375H299.135937V377z" />
    <glyph glyph-name="folder-public"
      unicode="&#xF129;"
      horiz-adv-x="642" d="M487.303774 350.207547C567.922615 350.207547 633.511321 284.618842 633.511321 204C633.511321 123.366538 567.922615 57.792453 487.303774 57.792453C406.684932 57.792453 341.096226 123.366538 341.096226 204C341.096226 284.618842 406.684932 350.207547 487.303774 350.207547zM487.242142 320.966038C455.659696 320.966038 426.9594190000001 308.381969 405.892427 287.96495C405.982202 287.823859 406.072395 287.682815 406.162898 287.541796L406.70876 286.695808C409.174029 282.888654 411.706423 279.068156 412.16525 274.807651C413.642618 261.089313 409.435108 262.2255980000001 405.612078 250.015911C403.2662219999999 242.523903 410.345892 222.521535 415.35683 215.7530010000001C415.719535 215.263076 419.425377 210.4614140000001 423.405564 205.4160930000001L423.975697 204.6941150000001C424.166142 204.4531950000001 424.356879 204.2121630000001 424.547574 203.9714570000001L425.119208 203.250755C429.020008 198.338647 432.764473 193.7481560000001 433.497832 193.2636450000001C434.473074 192.6193270000001 435.598657 192.2499090000001 436.741242 191.909253L437.721654 191.6185650000001C438.700011 191.3234390000001 439.662869 190.9977780000001 440.526263 190.4865810000001C443.364231 188.8062800000001 445.553738 186.2372570000001 448.339065 184.4764620000001C453.5097509999999 181.2077200000001 472.177634 175.3409480000001 474.3005979999999 172.4337990000001C474.9255509999999 171.5779990000001 474.5410019999999 170.3120990000001 474.3005979999999 169.2904470000001C473.6599519999999 166.5678740000001 471.2240739999999 164.7249410000001 468.6561509999999 162.7794010000001L468.2388359999999 162.4628530000001C463.9897089999999 159.2323210000001 459.6260349999999 155.578584 462.6007139999999 147.1001010000001C464.2105719999999 142.5116540000001 469.015307 140.7692330000001 474.019651 139.061045L475.0939749999999 138.6945030000001C481.6646139999999 136.4452070000001 488.2106669999999 133.910199 488.005845 124.7752010000001C487.8811029999999 119.211726 480.434701 112.9103240000001 480.019167 103.7771620000001C479.963207 102.5472010000001 479.420874 93.0382630000001 482.700713 91.8316770000001C484.674514 91.1055550000001 486.864012 92.6512690000001 488.817264 93.4276470000001C489.328165 93.6307200000001 489.385597 94.397002 489.856652 94.6760180000001C508.464956 105.6981200000001 498.146313 98.1927350000001 517.854459 122.2821980000001C524.399533 130.2823070000001 532.746175 135.1661400000001 540.597364 141.5646620000001C540.601034 141.5676530000001 540.6107089999999 141.5760330000001 540.626103 141.5896110000001L540.6891509999999 141.6457530000001C541.9366919999999 142.7637080000001 555.1829129999999 154.9470190000001 550.6666829999999 158.5073670000001C548.443364 160.2601100000001 542.915367 162.5388540000001 537.1397739999999 164.6617440000001L536.1754069999998 165.0139990000001C535.8535359999998 165.1308580000001 535.5314259999998 165.2471190000001 535.2095999999998 165.3626660000001L534.2454979999998 165.7070440000001C527.8308249999998 167.9870410000001 521.7395059999998 169.9343270000001 520.1650699999998 170.6135700000001C518.1291329999998 171.4919150000001 516.2780899999998 172.5568870000001 514.4619969999998 173.6477460000001L512.8328999999998 174.6321690000001C509.7582469999998 176.4884400000001 506.6545939999997 178.2801610000001 502.7852559999998 179.2176080000001C500.5194879999998 179.7665490000001 499.7606189999998 179.1247840000001 498.8675269999998 178.3603100000001L498.7171539999998 178.2319450000001C497.3982749999998 177.1127730000001 495.6091239999998 175.8613730000001 488.4038259999998 177.6963900000001C484.9037209999997 178.5877840000001 476.2117169999997 187.2052900000001 474.2542309999998 188.6327140000001C472.3745279999998 190.0034160000001 469.1623989999998 191.0971570000002 465.8506779999998 192.1676920000002L465.0545839999998 192.4243050000002C460.0085399999998 194.0483430000002 454.9602649999998 195.6656690000002 454.2392379999998 198.1674230000002C449.8112999999999 213.5310750000002 473.8890949999998 210.6262900000002 481.0083249999998 211.8808100000002C482.6204059999998 212.1648840000002 483.9557879999999 213.3350150000002 485.1967909999998 214.3700760000002C491.4510209999999 219.5864290000002 484.7742459999998 225.8870900000002 494.1069399999998 233.9515510000002C497.4770069999998 236.8636550000002 503.6567699999998 240.0294030000002 510.1119619999998 243.4204380000002L511.1331229999998 243.9577330000002C511.4740259999999 244.1374520000001 511.8153229999999 244.3177920000001 512.1566439999998 244.4987470000002L513.1803089999999 245.0434560000002C513.3508089999998 245.1345480000002 513.5212219999999 245.2257920000002 513.6915029999999 245.3171890000002L514.7112269999999 245.8673930000002C523.0199529999999 250.3755990000002 530.7886329999999 255.2472310000002 532.583639 260.4214900000002C533.327365 262.5653430000002 532.895536 265.0040360000002 532.344078 267.2015620000002C529.407387 278.9040850000002 517.292522 289.4653720000002 504.728797 287.0222460000002C503.619564 286.8065460000002 502.995038 285.5373660000003 502.480008 284.5628810000003C500.57374 280.9560490000003 499.904491 276.7292110000003 497.52649 273.3948240000003C488.60423 260.8842060000003 475.592412 280.3143490000003 472.098176 286.2485550000003C468.726119 291.9752650000003 469.950292 295.9163460000003 476.526203 299.0873350000002C479.621492 300.5799230000003 484.049926 301.8298800000003 488.543984 303.3213200000003L489.361526 303.5952600000002C498.219956 306.5941020000003 507.034949 310.6436590000003 506.120301 319.4434580000003C499.9735480000001 320.4451750000003 493.667492 320.9660380000003 487.2421420000001 320.9660380000003zM244.4375 506.9375C258.13125 506.9375 271.234375 500.396875 279.4375 489.4375L315.53125 441.3125H496C520.128125 441.3125 539.75 421.66875 539.75 397.5625L539.753333 371.641446C526.6241219999999 376.035531 512.057751 378.538819 496.005458 378.872853L496 397.5625H315.53125C301.8375 397.5625 288.734375 404.103125 280.53125 415.0625L244.4375 463.1875H146V178.8125L314.397656 178.808985C316.466917 162.224287 321.109212 147.713557 327.93748 135.058516L146 135.0625C121.871875 135.0625 102.25 154.684375 102.25 178.8125V463.1875C102.25 487.29375 121.871875 506.9375 146 506.9375zM596.36909 245.7735850000001C589.1118200000001 243.3249140000001 579.155555 238.720007 583.0297360000001 232.7774540000001C583.6329860000001 231.8521360000001 584.9475590000001 231.1327560000001 586.291634 230.4620020000001L586.69506 230.2620770000001C588.844112 229.2019150000001 590.894145 228.2259630000001 590.052424 226.689877L590.947095 224.5717340000001C588.934944 220.899689 585.450151 219.532073 581.809232 218.0265730000001L581.079356 217.7229110000001C579.251414 216.9555420000001 577.406381 216.1129960000001 575.7088239999999 214.8899860000001C569.3774129999999 210.3285010000001 569.251769 205.3466690000001 569.5423269999999 198.4952240000001C569.9450159999999 188.9996910000001 577.1807309999999 179.1569510000001 583.6021329999999 172.1226750000001C587.2954049999998 168.0769080000001 591.5038039999998 164.3913370000001 595.8307899999999 160.8420330000001C601.1526549999999 174.2008450000001 604.0801359999998 188.7632420000001 604.0801359999998 203.9961290000001C604.0801359999998 218.7073620000001 601.3497269999998 232.7932420000001 596.3690899999998 245.7735850000001zM536.039623 310.522642C536.097957 308.715599 536.194669 306.91109 536.380556 305.1124690000001C536.9862899999999 299.2514440000001 538.06696 287.6732980000001 544.11608 283.3183130000001C550.63175 278.6274430000001 560.992874 285.060667 565.233732 291.4022670000001C556.561038 299.1445840000001 546.7311920000001 305.6165200000001 536.039623 310.5226420000001z" />
    <glyph glyph-name="folder-public-1"
      unicode="&#x66;&#x6F;&#x6C;&#x64;&#x65;&#x72;&#x2D;&#x70;&#x75;&#x62;&#x6C;&#x69;&#x63;"
      horiz-adv-x="642" d="M487.303774 350.207547C567.922615 350.207547 633.511321 284.618842 633.511321 204C633.511321 123.366538 567.922615 57.792453 487.303774 57.792453C406.684932 57.792453 341.096226 123.366538 341.096226 204C341.096226 284.618842 406.684932 350.207547 487.303774 350.207547zM487.242142 320.966038C455.659696 320.966038 426.9594190000001 308.381969 405.892427 287.96495C405.982202 287.823859 406.072395 287.682815 406.162898 287.541796L406.70876 286.695808C409.174029 282.888654 411.706423 279.068156 412.16525 274.807651C413.642618 261.089313 409.435108 262.2255980000001 405.612078 250.015911C403.2662219999999 242.523903 410.345892 222.521535 415.35683 215.7530010000001C415.719535 215.263076 419.425377 210.4614140000001 423.405564 205.4160930000001L423.975697 204.6941150000001C424.166142 204.4531950000001 424.356879 204.2121630000001 424.547574 203.9714570000001L425.119208 203.250755C429.020008 198.338647 432.764473 193.7481560000001 433.497832 193.2636450000001C434.473074 192.6193270000001 435.598657 192.2499090000001 436.741242 191.909253L437.721654 191.6185650000001C438.700011 191.3234390000001 439.662869 190.9977780000001 440.526263 190.4865810000001C443.364231 188.8062800000001 445.553738 186.2372570000001 448.339065 184.4764620000001C453.5097509999999 181.2077200000001 472.177634 175.3409480000001 474.3005979999999 172.4337990000001C474.9255509999999 171.5779990000001 474.5410019999999 170.3120990000001 474.3005979999999 169.2904470000001C473.6599519999999 166.5678740000001 471.2240739999999 164.7249410000001 468.6561509999999 162.7794010000001L468.2388359999999 162.4628530000001C463.9897089999999 159.2323210000001 459.6260349999999 155.578584 462.6007139999999 147.1001010000001C464.2105719999999 142.5116540000001 469.015307 140.7692330000001 474.019651 139.061045L475.0939749999999 138.6945030000001C481.6646139999999 136.4452070000001 488.2106669999999 133.910199 488.005845 124.7752010000001C487.8811029999999 119.211726 480.434701 112.9103240000001 480.019167 103.7771620000001C479.963207 102.5472010000001 479.420874 93.0382630000001 482.700713 91.8316770000001C484.674514 91.1055550000001 486.864012 92.6512690000001 488.817264 93.4276470000001C489.328165 93.6307200000001 489.385597 94.397002 489.856652 94.6760180000001C508.464956 105.6981200000001 498.146313 98.1927350000001 517.854459 122.2821980000001C524.399533 130.2823070000001 532.746175 135.1661400000001 540.597364 141.5646620000001C540.601034 141.5676530000001 540.6107089999999 141.5760330000001 540.626103 141.5896110000001L540.6891509999999 141.6457530000001C541.9366919999999 142.7637080000001 555.1829129999999 154.9470190000001 550.6666829999999 158.5073670000001C548.443364 160.2601100000001 542.915367 162.5388540000001 537.1397739999999 164.6617440000001L536.1754069999998 165.0139990000001C535.8535359999998 165.1308580000001 535.5314259999998 165.2471190000001 535.2095999999998 165.3626660000001L534.2454979999998 165.7070440000001C527.8308249999998 167.9870410000001 521.7395059999998 169.9343270000001 520.1650699999998 170.6135700000001C518.1291329999998 171.4919150000001 516.2780899999998 172.5568870000001 514.4619969999998 173.6477460000001L512.8328999999998 174.6321690000001C509.7582469999998 176.4884400000001 506.6545939999997 178.2801610000001 502.7852559999998 179.2176080000001C500.5194879999998 179.7665490000001 499.7606189999998 179.1247840000001 498.8675269999998 178.3603100000001L498.7171539999998 178.2319450000001C497.3982749999998 177.1127730000001 495.6091239999998 175.8613730000001 488.4038259999998 177.6963900000001C484.9037209999997 178.5877840000001 476.2117169999997 187.2052900000001 474.2542309999998 188.6327140000001C472.3745279999998 190.0034160000001 469.1623989999998 191.0971570000002 465.8506779999998 192.1676920000002L465.0545839999998 192.4243050000002C460.0085399999998 194.0483430000002 454.9602649999998 195.6656690000002 454.2392379999998 198.1674230000002C449.8112999999999 213.5310750000002 473.8890949999998 210.6262900000002 481.0083249999998 211.8808100000002C482.6204059999998 212.1648840000002 483.9557879999999 213.3350150000002 485.1967909999998 214.3700760000002C491.4510209999999 219.5864290000002 484.7742459999998 225.8870900000002 494.1069399999998 233.9515510000002C497.4770069999998 236.8636550000002 503.6567699999998 240.0294030000002 510.1119619999998 243.4204380000002L511.1331229999998 243.9577330000002C511.4740259999999 244.1374520000001 511.8153229999999 244.3177920000001 512.1566439999998 244.4987470000002L513.1803089999999 245.0434560000002C513.3508089999998 245.1345480000002 513.5212219999999 245.2257920000002 513.6915029999999 245.3171890000002L514.7112269999999 245.8673930000002C523.0199529999999 250.3755990000002 530.7886329999999 255.2472310000002 532.583639 260.4214900000002C533.327365 262.5653430000002 532.895536 265.0040360000002 532.344078 267.2015620000002C529.407387 278.9040850000002 517.292522 289.4653720000002 504.728797 287.0222460000002C503.619564 286.8065460000002 502.995038 285.5373660000003 502.480008 284.5628810000003C500.57374 280.9560490000003 499.904491 276.7292110000003 497.52649 273.3948240000003C488.60423 260.8842060000003 475.592412 280.3143490000003 472.098176 286.2485550000003C468.726119 291.9752650000003 469.950292 295.9163460000003 476.526203 299.0873350000002C479.621492 300.5799230000003 484.049926 301.8298800000003 488.543984 303.3213200000003L489.361526 303.5952600000002C498.219956 306.5941020000003 507.034949 310.6436590000003 506.120301 319.4434580000003C499.9735480000001 320.4451750000003 493.667492 320.9660380000003 487.2421420000001 320.9660380000003zM244.4375 506.9375C258.13125 506.9375 271.234375 500.396875 279.4375 489.4375L315.53125 441.3125H496C520.128125 441.3125 539.75 421.66875 539.75 397.5625L539.753333 371.641446C526.6241219999999 376.035531 512.057751 378.538819 496.005458 378.872853L496 397.5625H315.53125C301.8375 397.5625 288.734375 404.103125 280.53125 415.0625L244.4375 463.1875H146V178.8125L314.397656 178.808985C316.466917 162.224287 321.109212 147.713557 327.93748 135.058516L146 135.0625C121.871875 135.0625 102.25 154.684375 102.25 178.8125V463.1875C102.25 487.29375 121.871875 506.9375 146 506.9375zM596.36909 245.7735850000001C589.1118200000001 243.3249140000001 579.155555 238.720007 583.0297360000001 232.7774540000001C583.6329860000001 231.8521360000001 584.9475590000001 231.1327560000001 586.291634 230.4620020000001L586.69506 230.2620770000001C588.844112 229.2019150000001 590.894145 228.2259630000001 590.052424 226.689877L590.947095 224.5717340000001C588.934944 220.899689 585.450151 219.532073 581.809232 218.0265730000001L581.079356 217.7229110000001C579.251414 216.9555420000001 577.406381 216.1129960000001 575.7088239999999 214.8899860000001C569.3774129999999 210.3285010000001 569.251769 205.3466690000001 569.5423269999999 198.4952240000001C569.9450159999999 188.9996910000001 577.1807309999999 179.1569510000001 583.6021329999999 172.1226750000001C587.2954049999998 168.0769080000001 591.5038039999998 164.3913370000001 595.8307899999999 160.8420330000001C601.1526549999999 174.2008450000001 604.0801359999998 188.7632420000001 604.0801359999998 203.9961290000001C604.0801359999998 218.7073620000001 601.3497269999998 232.7932420000001 596.3690899999998 245.7735850000001zM536.039623 310.522642C536.097957 308.715599 536.194669 306.91109 536.380556 305.1124690000001C536.9862899999999 299.2514440000001 538.06696 287.6732980000001 544.11608 283.3183130000001C550.63175 278.6274430000001 560.992874 285.060667 565.233732 291.4022670000001C556.561038 299.1445840000001 546.7311920000001 305.6165200000001 536.039623 310.5226420000001z" />
    <glyph glyph-name="folder-shared"
      unicode="&#xF12A;"
      horiz-adv-x="642" d="M500.964539 201.270021C572.590115 201.270021 622.595745 163.761998 622.595745 110.046616V94.842716H379.333333V110.046616C379.333333 163.761998 429.3541669999999 201.270021 500.9645389999999 201.270021zM244.4375 506.9375C258.13125 506.9375 271.234375 500.396875 279.4375 489.4375L315.53125 441.3125H496C520.128125 441.3125 539.75 421.66875 539.75 397.5625L539.751573 358.967358C527.989274 364.564209 514.836741 367.697917 500.964539 367.697917C499.299982 367.697917 497.645787 367.652797 496.003113 367.563716L496 397.5625H315.53125C301.8375 397.5625 288.734375 404.103125 280.53125 415.0625L244.4375 463.1874999999999H146V178.8125L374.77144 178.814077C363.766177 166.170406 356.169306 151.4234589999999 352.632693 135.0626859999999L146 135.0625C121.871875 135.0625 102.25 154.6843749999999 102.25 178.8125V463.1874999999999C102.25 487.2937499999999 121.871875 506.9374999999999 146 506.9374999999999zM500.964539 337.960328C534.504344 337.960328 561.780142 310.68453 561.780142 277.144725S534.504344 216.329122 500.9645389999999 216.329122S440.148936 243.60492 440.148936 277.144725S467.4247339999999 337.960328 500.9645389999999 337.960328z" />
    <glyph glyph-name="folder-shared-1"
      unicode="&#x66;&#x6F;&#x6C;&#x64;&#x65;&#x72;&#x2D;&#x73;&#x68;&#x61;&#x72;&#x65;&#x64;"
      horiz-adv-x="642" d="M500.964539 201.270021C572.590115 201.270021 622.595745 163.761998 622.595745 110.046616V94.842716H379.333333V110.046616C379.333333 163.761998 429.3541669999999 201.270021 500.9645389999999 201.270021zM244.4375 506.9375C258.13125 506.9375 271.234375 500.396875 279.4375 489.4375L315.53125 441.3125H496C520.128125 441.3125 539.75 421.66875 539.75 397.5625L539.751573 358.967358C527.989274 364.564209 514.836741 367.697917 500.964539 367.697917C499.299982 367.697917 497.645787 367.652797 496.003113 367.563716L496 397.5625H315.53125C301.8375 397.5625 288.734375 404.103125 280.53125 415.0625L244.4375 463.1874999999999H146V178.8125L374.77144 178.814077C363.766177 166.170406 356.169306 151.4234589999999 352.632693 135.0626859999999L146 135.0625C121.871875 135.0625 102.25 154.6843749999999 102.25 178.8125V463.1874999999999C102.25 487.2937499999999 121.871875 506.9374999999999 146 506.9374999999999zM500.964539 337.960328C534.504344 337.960328 561.780142 310.68453 561.780142 277.144725S534.504344 216.329122 500.9645389999999 216.329122S440.148936 243.60492 440.148936 277.144725S467.4247339999999 337.960328 500.9645389999999 337.960328z" />
    <glyph glyph-name="folder-subscribed"
      unicode="&#xF12B;"
      horiz-adv-x="642" d="M496.022118 354.753567C575.333076 354.753567 639.8577339999999 290.22891 639.8577339999999 210.917951C639.8577339999999 131.5926080000001 575.3330759999999 67.082334 496.022118 67.082334C416.711159 67.082334 352.186501 131.5926079999999 352.186501 210.917951C352.186501 290.22891 416.711159 354.753567 496.022118 354.753567zM244.4375 506.9375C258.13125 506.9375 271.234375 500.396875 279.4375 489.4375L315.53125 441.3125H496C520.128125 441.3125 539.75 421.66875 539.75 397.5625L539.753588 380.249502C526.553072 384.169191 512.087517 386.260417 496.364583 386.260417L496.001 386.2575L496.0000000000001 397.5625H315.5312500000001C301.8375000000001 397.5625 288.7343750000001 404.103125 280.5312500000001 415.0625L244.4375000000001 463.1875H146.0000000000001V178.8125L324.4272810000001 178.809488C327.6516670000001 162.702672 333.3407970000001 148.10367 341.1068940000001 135.059408L146.0000000000001 135.0625C121.8718750000001 135.0625 102.2500000000001 154.6843749999999 102.2500000000001 178.8125V463.1874999999999C102.2500000000001 487.2937499999999 121.8718750000001 506.9374999999999 146.0000000000001 506.9374999999999zM560.397873 279.4375L463.964553 173.358733L431.4640490000001 205.859237L412.7654190000001 187.160606L464.8741020000001 135.0625L579.963747 261.658995z" />
    <glyph glyph-name="folder-subscribed-1"
      unicode="&#x66;&#x6F;&#x6C;&#x64;&#x65;&#x72;&#x2D;&#x73;&#x75;&#x62;&#x73;&#x63;&#x72;&#x69;&#x62;&#x65;&#x64;"
      horiz-adv-x="642" d="M496.022118 354.753567C575.333076 354.753567 639.8577339999999 290.22891 639.8577339999999 210.917951C639.8577339999999 131.5926080000001 575.3330759999999 67.082334 496.022118 67.082334C416.711159 67.082334 352.186501 131.5926079999999 352.186501 210.917951C352.186501 290.22891 416.711159 354.753567 496.022118 354.753567zM244.4375 506.9375C258.13125 506.9375 271.234375 500.396875 279.4375 489.4375L315.53125 441.3125H496C520.128125 441.3125 539.75 421.66875 539.75 397.5625L539.753588 380.249502C526.553072 384.169191 512.087517 386.260417 496.364583 386.260417L496.001 386.2575L496.0000000000001 397.5625H315.5312500000001C301.8375000000001 397.5625 288.7343750000001 404.103125 280.5312500000001 415.0625L244.4375000000001 463.1875H146.0000000000001V178.8125L324.4272810000001 178.809488C327.6516670000001 162.702672 333.3407970000001 148.10367 341.1068940000001 135.059408L146.0000000000001 135.0625C121.8718750000001 135.0625 102.2500000000001 154.6843749999999 102.2500000000001 178.8125V463.1874999999999C102.2500000000001 487.2937499999999 121.8718750000001 506.9374999999999 146.0000000000001 506.9374999999999zM560.397873 279.4375L463.964553 173.358733L431.4640490000001 205.859237L412.7654190000001 187.160606L464.8741020000001 135.0625L579.963747 261.658995z" />
    <glyph glyph-name="folder"
      unicode="&#xF12C;"
      horiz-adv-x="642" d="M244.4375 506.9375C258.13125 506.9375 271.234375 500.396875 279.4375 489.4375L315.53125 441.3125H496C520.128125 441.3125 539.75 421.66875 539.75 397.5625V178.8125C539.75 154.684375 520.128125 135.0625 496 135.0625H146C121.871875 135.0625 102.25 154.684375 102.25 178.8125V463.1875C102.25 487.29375 121.871875 506.9375 146 506.9375zM244.4375 463.1875H146V178.8125H496.021875L496 397.5625H315.53125C301.8375 397.5625 288.734375 404.103125 280.53125 415.0625z" />
    <glyph glyph-name="folder-1"
      unicode="&#x66;&#x6F;&#x6C;&#x64;&#x65;&#x72;"
      horiz-adv-x="642" d="M244.4375 506.9375C258.13125 506.9375 271.234375 500.396875 279.4375 489.4375L315.53125 441.3125H496C520.128125 441.3125 539.75 421.66875 539.75 397.5625V178.8125C539.75 154.684375 520.128125 135.0625 496 135.0625H146C121.871875 135.0625 102.25 154.684375 102.25 178.8125V463.1875C102.25 487.29375 121.871875 506.9375 146 506.9375zM244.4375 463.1875H146V178.8125H496.021875L496 397.5625H315.53125C301.8375 397.5625 288.734375 404.103125 280.53125 415.0625z" />
    <glyph glyph-name="form-archived"
      unicode="&#xF12D;"
      horiz-adv-x="642" d="M567.056746 293.5715630000001C581.980336 293.5715630000001 594.1446169999999 281.5431220000001 594.386411 266.689203L594.3900789999999 266.2382290000001V225.2382290000001C594.3900789999999 217.7990070000001 588.436305 211.7419110000001 581.0369099999999 211.5750930000001L580.7234119999999 211.571563V74.904896C580.7234119999999 59.981306 568.708366 47.8170240000001 553.841455 47.575231L553.390079 47.5715630000001H362.056746C347.133156 47.5715630000001 334.968874 59.5866080000001 334.72708 74.45352L334.723412 74.904896V211.571563C327.28419 211.571563 321.227094 217.525336 321.060276 224.924731L321.056746 225.238229V266.238229C321.056746 281.1482889999999 333.071791 293.32583 347.938703 293.5678899999999L348.390079 293.5715629999999zM395.68125 539.75L496 439.4312500000001V330.572H452.256L452.25 408.5H364.75V496H189.75V146H297.723V102.25H189.75C165.863156 102.25 146.392888 121.4814 146.005871 145.277523L146 146V496C146 520.10625 165.621875 539.75 189.75 539.75zM498.723412 187.904896H416.723412V146.904896H498.723412zM537.723412 253.5715630000001H377.7234120000001V231.5715630000001H537.723412z" />
    <glyph glyph-name="form-archived-1"
      unicode="&#x66;&#x6F;&#x72;&#x6D;&#x2D;&#x61;&#x72;&#x63;&#x68;&#x69;&#x76;&#x65;&#x64;"
      horiz-adv-x="642" d="M567.056746 293.5715630000001C581.980336 293.5715630000001 594.1446169999999 281.5431220000001 594.386411 266.689203L594.3900789999999 266.2382290000001V225.2382290000001C594.3900789999999 217.7990070000001 588.436305 211.7419110000001 581.0369099999999 211.5750930000001L580.7234119999999 211.571563V74.904896C580.7234119999999 59.981306 568.708366 47.8170240000001 553.841455 47.575231L553.390079 47.5715630000001H362.056746C347.133156 47.5715630000001 334.968874 59.5866080000001 334.72708 74.45352L334.723412 74.904896V211.571563C327.28419 211.571563 321.227094 217.525336 321.060276 224.924731L321.056746 225.238229V266.238229C321.056746 281.1482889999999 333.071791 293.32583 347.938703 293.5678899999999L348.390079 293.5715629999999zM395.68125 539.75L496 439.4312500000001V330.572H452.256L452.25 408.5H364.75V496H189.75V146H297.723V102.25H189.75C165.863156 102.25 146.392888 121.4814 146.005871 145.277523L146 146V496C146 520.10625 165.621875 539.75 189.75 539.75zM498.723412 187.904896H416.723412V146.904896H498.723412zM537.723412 253.5715630000001H377.7234120000001V231.5715630000001H537.723412z" />
    </font>
</defs>
</svg>
