<?xml version="1.0" encoding="utf-8"?>
<!-- Generator: Adobe Illustrator 21.0.2, SVG Export Plug-In . SVG Version: 6.00 Build 0)  -->
<svg version="1.1" xmlns="http://www.w3.org/2000/svg" xmlns:xlink="http://www.w3.org/1999/xlink" x="0px" y="0px"
	 viewBox="0 0 292.6 75.6" style="enable-background:new 0 0 292.6 75.6;" xml:space="preserve">
<style type="text/css">
	.st0{fill:#222A35;}
	.st1{opacity:0.3;}
	.st2{fill:#478DCB;}
	.st3{fill:#CACDD6;}
	.st4{fill:#9499B4;}
	.st5{fill:#F4F4F6;}
	.st6{fill:#414554;}
	.st7{fill:#37A5FB;}
	.st8{fill:url(#SVGID_1_);}
	.st9{opacity:0.4;fill:#37A5FB;}
	.st10{fill:#62ACDF;}
	.st11{fill:#FFFFFF;}
	.st12{fill:none;stroke:#B3B3B3;stroke-miterlimit:10;}
	.st13{fill:none;stroke:#37A5FB;stroke-width:9;stroke-linecap:round;stroke-miterlimit:10;}
	.st14{opacity:0.6;fill:#37A5FB;}
	.st15{fill:none;stroke:#8DD1FF;stroke-width:7.5271;stroke-linecap:round;stroke-miterlimit:10;}
	.st16{fill:none;stroke:#FFFFFF;stroke-width:1.0753;stroke-miterlimit:10;}
	.st17{fill:#8DD1FF;}
	.st18{fill:#1A4E8B;}
	.st19{fill:none;stroke:#FFFFFF;stroke-linecap:round;stroke-miterlimit:10;}
	.st20{fill:none;stroke:#FFFFFF;stroke-linecap:round;stroke-miterlimit:10;stroke-dasharray:0.9992,2.9977;}
	.st21{fill:none;stroke:#FFFFFF;stroke-linecap:round;stroke-miterlimit:10;stroke-dasharray:1.0108,3.0323;}
	.st22{fill:none;stroke:#FFFFFF;stroke-linecap:round;stroke-miterlimit:10;stroke-dasharray:0.9878,2.9634;}
	.st23{fill:none;stroke:#FFFFFF;stroke-linecap:round;stroke-miterlimit:10;stroke-dasharray:0.999,2.9969;}
	.st24{fill:none;stroke:#FFFFFF;stroke-linecap:round;stroke-miterlimit:10;stroke-dasharray:1.0009,3.0027;}
	.st25{clip-path:url(#SVGID_3_);}
	.st26{fill:none;stroke:#37A5FB;stroke-width:2.1695;stroke-miterlimit:10;}
	.st27{fill:#25A9E0;}
	.st28{fill:none;stroke:#FFFFFF;stroke-width:4.3673;stroke-miterlimit:10;}
	.st29{fill:#4B5766;}
	.st30{fill:url(#SVGID_4_);}
	.st31{fill:#2195F2;}
	.st32{fill:url(#SVGID_5_);}
	.st33{fill:url(#SVGID_6_);}
	.st34{fill:url(#SVGID_7_);}
	.st35{fill:#FF6680;}
	.st36{fill:#FFA983;}
	.st37{fill:#00A99D;}
	.st38{fill:#F2F2F2;stroke:#CCCCCC;stroke-width:0.7902;stroke-miterlimit:10;}
	.st39{fill:#CED3D8;}
	.st40{fill:none;stroke:#CCCCCC;stroke-width:0.7902;stroke-miterlimit:10;}
	.st41{fill:#F2F2F2;}
	.st42{fill:none;stroke:#2195F2;stroke-width:3.9508;stroke-linecap:round;stroke-miterlimit:10;}
	.st43{fill:#B7EDE4;}
	.st44{fill:#DD97AC;}
	.st45{fill:#FCEE21;}
	.st46{fill:#F4BDBD;}
	.st47{fill:#08316D;}
	.st48{fill:#F7D0DE;}
	.st49{fill:#3E4F60;}
	.st50{fill:none;stroke:#37A5FB;stroke-width:6;stroke-linecap:round;stroke-miterlimit:10;}
	.st51{fill:none;stroke:#FFFFFF;stroke-width:6;stroke-miterlimit:10;}
	.st52{fill:url(#SVGID_8_);}
	.st53{fill:url(#SVGID_9_);}
	.st54{fill:url(#SVGID_10_);}
	.st55{fill:url(#SVGID_11_);}
	.st56{fill:#AEE2FF;}
	.st57{fill:url(#SVGID_12_);}
	.st58{fill:url(#SVGID_13_);}
	.st59{fill:url(#SVGID_14_);}
	.st60{fill:url(#SVGID_15_);}
	.st61{fill:url(#SVGID_16_);}
	.st62{fill:url(#SVGID_17_);}
	.st63{fill:url(#SVGID_18_);}
	.st64{fill:url(#SVGID_19_);}
	.st65{fill:url(#SVGID_20_);}
	.st66{fill:url(#SVGID_21_);}
	.st67{fill:url(#SVGID_22_);}
	.st68{fill:url(#SVGID_23_);}
	.st69{fill:#71D0FF;}
	.st70{fill:url(#SVGID_24_);}
	.st71{fill:none;stroke:#4B5766;stroke-width:4;stroke-linecap:round;stroke-miterlimit:10;}
	.st72{fill:none;}
	.st73{fill:none;stroke:#8DD1FF;stroke-width:6;stroke-miterlimit:10;}
	.st74{opacity:0.7;fill:url(#SVGID_27_);}
	.st75{fill:none;stroke:#ACB8C6;stroke-width:0.4761;stroke-miterlimit:10;stroke-dasharray:1.31,0.8734;}
	.st76{fill:none;stroke:#ACB8C6;stroke-width:0.3349;stroke-miterlimit:10;stroke-dasharray:0.9213,0.6142;}
	.st77{fill:none;stroke:#ACB8C6;stroke-width:0.3834;stroke-miterlimit:10;stroke-dasharray:1.0547,0.7032;}
	.st78{fill:none;stroke:#B8CFE0;stroke-miterlimit:10;}
	.st79{fill:#64C0FF;}
	.st80{fill:url(#SVGID_28_);}
	.st81{fill:#37A5FF;}
</style>
<g id="Layer_1">
</g>
<g id="Layer_2">
</g>
<g id="Layer_3">
</g>
<g id="Layer_4">
	<g>
		<g>
			<path class="st11" d="M60.6,37.8l10.8-12.4c0.3-0.3,0-0.8-0.4-0.8h-2.5c-1.2,0-2.3,0.5-3.1,1.4l-9,10.6V25.3
				c0-0.4-0.3-0.6-0.6-0.6h-3c-0.4,0-0.6,0.3-0.6,0.6v25.1c0,0.4,0.3,0.6,0.6,0.6h3c0.4,0,0.6-0.3,0.6-0.6V39.2l9,10.4
				c0.8,0.9,1.9,1.4,3.1,1.4h2.7c0.4,0,0.6-0.5,0.4-0.8L60.6,37.8z"/>
		</g>
		<g>
			<path class="st11" d="M108,37.4c1.4-0.5,2.5-1.2,3.3-2.2c0.8-1,1.2-2.3,1.2-3.8c0-1.3-0.3-2.4-1-3.4c-0.7-1-1.6-1.8-2.9-2.4
				c-1.3-0.6-2.8-0.9-4.6-0.9h-9.4c-0.4,0-0.6,0.3-0.6,0.6v25.1c0,0.4,0.3,0.6,0.6,0.6h9.9c1.7,0,3.3-0.3,4.6-0.9
				c1.3-0.6,2.3-1.5,3-2.5c0.7-1.1,1-2.3,1-3.6c0-1.6-0.5-3-1.5-4.2C110.7,38.4,109.4,37.6,108,37.4z M98.2,28.1h5.3
				c1.4,0,2.5,0.3,3.3,1c0.8,0.7,1.2,1.6,1.2,2.8c0,1.2-0.4,2.1-1.2,2.8c-0.8,0.6-1.9,1-3.3,1h-5.3V28.1z M107.5,46.3
				c-0.8,0.7-2,1.1-3.5,1.1h-5.8v-8.2h5.7c1.5,0,2.6,0.4,3.5,1.1c0.9,0.8,1.3,1.8,1.3,3.1C108.8,44.6,108.4,45.6,107.5,46.3z"/>
		</g>
		<path class="st79" d="M38.6,42.8v2.8c0,1.6-1.3,2.8-2.8,2.8h-6.1c-1.6,0-2.8-1.3-2.8-2.8V30c0-1.6,1.3-2.8,2.8-2.8h6.1
			c1.6,0,2.8,1.3,2.8,2.8v0.4c0.5-0.2,1.1-0.3,1.7-0.3c0.7,0,1.4,0.1,2,0.4V30c0-3.6-2.9-6.5-6.5-6.5h-6.1c-3.6,0-6.5,2.9-6.5,6.5
			v15.6c0,3.6,2.9,6.5,6.5,6.5h6.1c3.6,0,6.5-2.9,6.5-6.5v-7.1L38.6,42.8z"/>
		<path class="st79" d="M35.6,41.9l6.6-7.6c0.2-0.2,0.2-0.6-0.1-0.8l0,0c-1.2-1-2.9-0.9-3.9,0.3l-4.1,4.7c-0.1,0.1-0.3,0.1-0.3,0
			l-1.5-1.9c-0.3-0.4-0.8-0.4-1.2,0h0c-1,1-1,2.6-0.1,3.7l1.2,1.5C33,43,34.7,43,35.6,41.9z"/>
		<path class="st79" d="M147.7,32.6v12.5c0,1,0.2,1.8,0.7,2.2c0.4,0.4,1.2,0.6,2.3,0.6h2.2c0.2,0,0.4,0.2,0.4,0.4v2.2
			c0,0.2-0.2,0.4-0.4,0.4H150c-2,0-3.4-0.5-4.4-1.4c-1-0.9-1.5-2.4-1.5-4.4V32.6h-2.3c-0.2,0-0.4-0.2-0.4-0.4v-2.1
			c0-0.2,0.2-0.4,0.4-0.4h2.3v-4.9c0-0.2,0.2-0.4,0.4-0.4h2.7c0.2,0,0.4,0.2,0.4,0.4v4.9h5.1c0.2,0,0.4,0.2,0.4,0.4v2.1
			c0,0.2-0.2,0.4-0.4,0.4H147.7z"/>
		<path class="st79" d="M159.3,49.9c-1.6-0.9-2.9-2.2-3.8-3.8c-0.9-1.7-1.4-3.6-1.4-5.8c0-2.2,0.5-4.1,1.4-5.7s2.2-2.9,3.8-3.8
			s3.4-1.3,5.4-1.3s3.8,0.4,5.4,1.3s2.9,2.2,3.8,3.8c0.9,1.6,1.4,3.6,1.4,5.8c0,2.2-0.5,4.1-1.4,5.8c-1,1.7-2.3,2.9-3.9,3.8
			c-1.6,0.9-3.5,1.4-5.5,1.4C162.7,51.3,160.9,50.8,159.3,49.9z M168.2,47.3c1.1-0.6,2-1.5,2.7-2.7c0.7-1.2,1-2.6,1-4.3
			c0-1.7-0.3-3.1-1-4.3c-0.7-1.2-1.5-2.1-2.6-2.6c-1.1-0.6-2.3-0.9-3.5-0.9c-1.3,0-2.5,0.3-3.5,0.9c-1.1,0.6-1.9,1.5-2.6,2.6
			c-0.6,1.2-1,2.6-1,4.3c0,1.7,0.3,3.2,0.9,4.4c0.6,1.2,1.5,2.1,2.5,2.6c1.1,0.6,2.2,0.9,3.5,0.9C166,48.2,167.1,47.9,168.2,47.3z"
			/>
		<path class="st79" d="M182.5,49.9c-1.6-0.9-2.9-2.2-3.8-3.8c-0.9-1.7-1.4-3.6-1.4-5.8c0-2.2,0.5-4.1,1.4-5.7s2.2-2.9,3.8-3.8
			s3.4-1.3,5.4-1.3s3.8,0.4,5.4,1.3s2.9,2.2,3.8,3.8c0.9,1.6,1.4,3.6,1.4,5.8c0,2.2-0.5,4.1-1.4,5.8c-1,1.7-2.3,2.9-3.9,3.8
			c-1.6,0.9-3.5,1.4-5.5,1.4C185.9,51.3,184.1,50.8,182.5,49.9z M191.4,47.3c1.1-0.6,2-1.5,2.7-2.7c0.7-1.2,1-2.6,1-4.3
			c0-1.7-0.3-3.1-1-4.3c-0.7-1.2-1.5-2.1-2.6-2.6c-1.1-0.6-2.3-0.9-3.5-0.9c-1.3,0-2.5,0.3-3.5,0.9c-1.1,0.6-1.9,1.5-2.6,2.6
			c-0.6,1.2-1,2.6-1,4.3c0,1.7,0.3,3.2,0.9,4.4c0.6,1.2,1.5,2.1,2.5,2.6c1.1,0.6,2.2,0.9,3.5,0.9C189.1,48.2,190.3,47.9,191.4,47.3z
			"/>
		<path class="st79" d="M204.6,24.6v25.9c0,0.2-0.2,0.4-0.4,0.4h-2.7c-0.2,0-0.4-0.2-0.4-0.4V24.6c0-0.2,0.2-0.4,0.4-0.4h2.7
			C204.4,24.2,204.6,24.4,204.6,24.6z"/>
		<path class="st79" d="M214.7,30.6c1.4-0.8,3-1.2,4.8-1.2c1.9,0,3.6,0.5,5.1,1.4s2.7,2.2,3.6,3.8c0.9,1.6,1.3,3.5,1.3,5.7
			c0,2.1-0.4,4-1.3,5.7c-0.9,1.7-2.1,3-3.6,3.9c-1.5,0.9-3.2,1.4-5.1,1.4c-1.8,0-3.4-0.4-4.8-1.2c-1.4-0.8-2.4-1.8-3.1-3.1v3.5
			c0,0.2-0.2,0.4-0.4,0.4h-2.7c-0.2,0-0.4-0.2-0.4-0.4V24.6c0-0.2,0.2-0.4,0.4-0.4h2.7c0.2,0,0.4,0.2,0.4,0.4v9
			C212.2,32.4,213.3,31.4,214.7,30.6z M224.9,36.1c-0.6-1.2-1.5-2.1-2.6-2.7c-1.1-0.6-2.3-0.9-3.6-0.9c-1.3,0-2.5,0.3-3.6,0.9
			c-1.1,0.6-2,1.5-2.6,2.7c-0.7,1.2-1,2.6-1,4.2c0,1.6,0.3,3,1,4.2s1.5,2.1,2.6,2.7c1.1,0.6,2.3,0.9,3.6,0.9c1.3,0,2.5-0.3,3.6-0.9
			c1.1-0.6,2-1.5,2.6-2.7c0.6-1.2,1-2.6,1-4.2C225.9,38.6,225.6,37.2,224.9,36.1z"/>
		<path class="st79" d="M236.4,49.9c-1.6-0.9-2.9-2.2-3.8-3.8c-0.9-1.7-1.4-3.6-1.4-5.8c0-2.2,0.5-4.1,1.4-5.7s2.2-2.9,3.8-3.8
			s3.4-1.3,5.4-1.3s3.8,0.4,5.4,1.3s2.9,2.2,3.8,3.8c0.9,1.6,1.4,3.6,1.4,5.8c0,2.2-0.5,4.1-1.4,5.8c-1,1.7-2.3,2.9-3.9,3.8
			c-1.6,0.9-3.5,1.4-5.5,1.4C239.8,51.3,238,50.8,236.4,49.9z M245.4,47.3c1.1-0.6,2-1.5,2.7-2.7c0.7-1.2,1-2.6,1-4.3
			c0-1.7-0.3-3.1-1-4.3c-0.7-1.2-1.5-2.1-2.6-2.6c-1.1-0.6-2.3-0.9-3.5-0.9c-1.3,0-2.5,0.3-3.5,0.9c-1.1,0.6-1.9,1.5-2.6,2.6
			c-0.6,1.2-1,2.6-1,4.3c0,1.7,0.3,3.2,0.9,4.4c0.6,1.2,1.5,2.1,2.5,2.6c1.1,0.6,2.2,0.9,3.5,0.9C243.1,48.2,244.3,47.9,245.4,47.3z
			"/>
		<path class="st79" d="M265.4,50.5l-4.8-7.5l-4.6,7.5c-0.1,0.2-0.4,0.4-0.7,0.4h-2.9c-0.2,0-0.3-0.2-0.2-0.3l6.6-10.2L252.3,30
			c-0.1-0.1,0-0.3,0.2-0.3h3.2c0.3,0,0.5,0.1,0.7,0.4l4.8,7.5l4.6-7.5c0.1-0.2,0.4-0.4,0.7-0.4h2.9c0.2,0,0.3,0.2,0.2,0.3l-6.6,10.2
			l6.6,10.4c0.1,0.1,0,0.3-0.2,0.3h-3.2C265.8,50.9,265.6,50.8,265.4,50.5z"/>
		<g>
			<path class="st11" d="M80.7,32.1c4.2,0,7.6,3.4,7.6,7.6s-3.4,7.6-7.6,7.6s-7.6-3.4-7.6-7.6S76.5,32.1,80.7,32.1 M80.7,28.1
				c-6.4,0-11.6,5.2-11.6,11.6c0,6.4,5.2,11.6,11.6,11.6s11.6-5.2,11.6-11.6C92.3,33.3,87.1,28.1,80.7,28.1L80.7,28.1z"/>
		</g>
		<g>
			<path class="st11" d="M125.9,32.1c4.2,0,7.6,3.4,7.6,7.6s-3.4,7.6-7.6,7.6c-4.2,0-7.6-3.4-7.6-7.6S121.7,32.1,125.9,32.1
				 M125.9,28.1c-6.4,0-11.6,5.2-11.6,11.6c0,6.4,5.2,11.6,11.6,11.6c6.4,0,11.6-5.2,11.6-11.6C137.5,33.3,132.3,28.1,125.9,28.1
				L125.9,28.1z"/>
		</g>
	</g>
</g>
</svg>
